<svg width="302" height="324" viewBox="0 0 302 324" fill="none" xmlns="http://www.w3.org/2000/svg">
<g clip-path="url(#clip0_95_3693)">
<mask id="mask0_95_3693" style="mask-type:alpha" maskUnits="userSpaceOnUse" x="0" y="21" width="302" height="303">
<path d="M151 324C234.395 324 302 256.252 302 172.681C302 89.1103 234.395 21.3626 151 21.3626C67.605 21.3626 0 89.1103 0 172.681C0 256.252 67.605 324 151 324Z" fill="#C4C4C4"/>
</mask>
<g mask="url(#mask0_95_3693)">
<path d="M151 324C234.395 324 302 256.252 302 172.681C302 89.1103 234.395 21.3626 151 21.3626C67.605 21.3626 0 89.1103 0 172.681C0 256.252 67.605 324 151 324Z" fill="#95E6E2"/>
</g>
<g clip-path="url(#clip1_95_3693)">
<path d="M257.347 143.246C259.956 134.698 257.906 124.848 252.129 118.158C249.147 113.698 243.929 112.397 238.525 113.698C232.375 114.999 227.344 119.831 224.362 125.406C221.381 131.167 220.262 137.671 219.704 143.989C219.145 151.423 219.517 158.671 220.635 165.918C224.549 190.077 237.593 213.307 233.494 237.281C231.444 249.731 222.872 265.342 211.504 270.916C211.877 262.926 211.504 254.562 210.945 246.572C209.268 224.456 207.777 202.156 206.1 180.042C205.913 176.139 205.541 172.237 205.168 168.334C204.982 162.201 204.609 154.954 204.05 145.105C202.745 123.919 192.123 112.397 192.682 100.318C192.869 96.2294 192.682 91.026 192.31 86.1942L199.391 88.6099C198.087 87.495 195.478 86.3799 192.123 85.0791V84.8932C188.769 83.7781 185.042 82.849 182.246 81.9199C177.029 80.2474 171.624 78.7606 166.593 76.7164C172.184 77.2739 177.588 78.5747 182.806 80.0614C185.787 80.9908 188.955 82.1056 191.937 83.4066C191.751 81.7339 191.564 80.0614 191.378 78.5747L209.268 82.2916C204.795 79.504 197.9 77.6456 191.005 76.1588C191.005 75.9731 191.005 75.9731 191.005 75.7873C182.433 74.1146 173.488 73.3712 164.916 71.8847C172.37 71.513 179.638 72.0704 187.092 73.1855C188.396 73.3715 189.514 73.7429 190.819 73.9289C190.446 71.513 190.26 69.6545 190.073 68.5395L211.504 69.0971C205.168 67.2387 197.155 66.4953 189.701 66.4953C189.701 66.3096 189.701 66.1236 189.514 65.9379C180.756 65.7519 171.997 66.1236 163.425 66.4953C171.811 64.8228 180.569 63.8937 189.142 64.0794C188.024 57.0177 187.464 49.7699 186.533 45.4958C185.601 41.2215 183.737 24.1244 182.619 17.0626C182.433 14.8326 182.06 12.7884 181.688 10.7442C181.874 7.02745 182.619 2.38152 181.129 2.00985C179.638 1.63818 174.793 11.8592 171.252 20.0361C169.388 24.1244 167.525 28.213 166.593 32.1154C165.102 34.7172 162.68 35.6463 159.139 35.6463C155.412 35.6463 151.126 36.5755 147.585 36.5755C145.535 34.903 143.858 30.8146 142.926 28.213C141.249 23.3811 138.64 20.0361 136.218 16.5052C134.913 12.4167 133.608 8.88583 132.677 7.58496C129.881 3.49655 130.254 9.81502 129.509 18.1777C129.323 19.6644 129.322 21.3369 129.136 23.0095C128.95 25.6111 128.763 28.027 128.577 30.6288C128.204 35.6463 128.018 39.7347 128.018 39.7347C128.018 39.7347 119.632 51.2567 114.787 64.0794C120.937 64.4511 127.086 65.7519 132.863 67.0529C126.713 66.4953 120.377 65.9379 114.228 65.7519C114.228 65.9379 114.042 66.1236 114.042 66.3096C105.283 65.9379 95.5927 66.6812 87.9521 69.8405L113.296 69.0971C112.923 70.5837 112.551 72.0704 112.178 73.3712C118.514 72.4421 125.036 72.0704 131.372 72.4421C125.036 73.5572 118.514 74.1146 111.805 75.2297C111.805 75.4156 111.805 75.7873 111.805 75.9731C103.606 77.2739 95.0335 79.3181 90.002 82.6633L111.619 78.2032C111.619 78.5747 111.619 78.9464 111.619 79.3181C111.619 79.8757 111.619 80.4331 111.619 80.9908C112.364 80.8048 112.923 80.6191 113.669 80.2474C119.073 78.7606 124.477 77.4598 129.881 76.9022C124.664 78.9464 119.446 80.4331 114.228 82.1056C113.482 82.2916 112.551 82.6633 111.619 82.849C111.619 83.2207 111.619 83.4066 111.619 83.7783C106.401 85.4508 101.929 87.3091 100.065 88.7958L111.619 84.8932C111.433 97.7159 110.874 104.034 107.146 116.857C103.047 131.538 103.047 141.202 103.047 155.511C103.047 169.821 94.1018 178.184 93.729 202.528C93.5427 215.723 91.6792 239.509 92.9837 261.067C92.9837 263.297 93.17 265.527 93.17 267.757C93.5427 277.792 93.9153 288.384 99.3197 296.747C102.301 301.395 107.519 305.109 112.923 306.411C116.091 307.527 120.378 308.083 124.664 306.596C124.291 296.934 123.359 287.456 121.868 277.977C120.005 265.527 115.719 253.818 113.482 241.368C112.737 237.281 111.805 233.191 111.619 228.916H111.992C114.414 241.183 118.7 253.075 122.241 264.969C125.968 277.048 127.459 289.871 128.391 302.509C128.763 306.596 128.577 311.056 128.763 314.961C128.95 317.376 129.136 320.535 130.627 321.837C131 322.022 131.559 321.837 132.118 321.649L132.304 321.464C132.49 321.464 132.491 321.278 132.677 321.278C132.677 321.278 133.236 321.093 133.608 321.093C134.168 321.093 134.727 321.649 134.913 322.022C135.099 322.392 135.286 322.95 135.286 323.136C135.845 324.252 136.963 324.995 138.081 324.067C139.013 323.509 138.826 322.95 139.945 322.392C140.503 322.022 141.622 322.392 141.994 322.951C142.367 323.509 142.367 323.879 142.367 324.067C142.367 324.067 142.367 324.252 142.554 324.252H142.74C144.231 324.623 145.908 323.323 146.467 321.837C147.026 320.35 147.026 318.49 146.84 316.818C146.467 312.916 146.281 309.014 146.094 305.109H147.212C147.026 300.464 146.653 295.818 146.84 290.987C146.84 287.456 146.84 284.112 146.653 280.765C145.908 270.545 143.299 260.509 143.113 250.101C142.181 236.35 147.212 222.971 147.212 209.218C147.585 195.466 148.33 181.714 149.262 168.148H149.635C150.194 181.9 150.38 195.652 150.38 209.404C150.38 216.28 149.821 223.342 148.33 230.218C146.84 236.908 145.721 243.413 145.535 250.289C144.976 264.04 148.33 277.606 148.144 291.358C148.33 296.004 148.703 300.837 149.262 305.482H156.903C157.089 303.437 157.275 301.765 157.275 301.765C158.207 290.8 157.834 279.651 159.698 268.686C161.002 257.908 160.816 246.757 158.58 236.165C157.834 232.633 157.089 228.916 156.53 225.199C154.666 206.802 155.785 188.219 156.344 169.821H156.716C158.393 188.033 157.834 206.617 159.884 224.643C160.257 228.173 161.189 231.704 161.748 235.421C163.052 242.855 162.866 250.474 162.307 257.723C161.748 265.154 160.071 272.403 159.325 279.651C158.766 290.244 159.139 302.138 158.207 312.731C158.393 316.818 157.275 324.252 161.748 325.924C162.12 325.924 162.307 325.924 162.68 325.739C162.866 325.181 163.425 323.509 164.543 323.136C166.779 322.58 166.966 325.181 167.525 326.667C168.27 327.969 170.506 325.553 171.438 324.252C171.438 324.252 171.811 324.252 172.184 324.067C172.184 323.879 172.183 323.694 172.37 323.694C172.37 323.879 172.556 323.879 172.556 324.067C173.302 323.879 173.861 323.694 173.861 323.694C174.047 323.694 174.606 323.879 174.979 323.509C176.842 321.836 177.029 318.863 177.215 316.26C177.401 312.173 177.215 307.898 177.588 303.81C178.519 291.173 180.01 278.35 183.737 266.27C187.464 254.376 191.751 242.297 193.987 230.032H194.36C193.241 246.943 186.719 262.554 184.11 279.279C182.806 287.456 181.874 295.818 181.501 303.995C181.501 304.739 181.315 305.667 181.315 306.411C182.246 306.784 183.178 307.154 184.297 307.154C188.21 311.056 195.664 308.083 199.764 303.437C205.168 297.305 208.15 289.686 209.64 281.509L209.268 284.668C228.462 276.305 244.488 253.633 246.166 232.821C247.097 220.926 245.793 208.103 244.116 196.396C242.438 184.688 240.575 173.166 245.606 162.387C249.52 156.627 254.924 150.68 257.347 143.246ZM179.451 17.9918C181.315 13.7176 181.315 27.2836 181.315 27.2836L181.501 34.5313C181.501 34.5313 176.656 36.018 175.165 33.4164C175.165 33.4164 177.588 22.2661 179.451 17.9918ZM173.302 51.6284C175.724 51.4426 177.029 54.7876 175.351 56.4601C173.115 58.5043 170.32 59.991 167.338 60.9202C168.27 60.177 168.829 58.876 168.829 57.5752C168.829 55.531 167.338 53.8585 165.475 53.3008C168.084 52.3717 170.693 51.8143 173.302 51.6284ZM157.648 57.2035C158.393 56.6461 159.325 56.0884 160.257 55.531C160.071 56.0884 159.884 56.8318 159.884 57.3894C159.884 59.2477 161.189 60.9202 162.866 61.6635C162.307 61.6635 161.561 61.6635 161.002 61.6635C160.816 61.6635 160.816 61.8495 160.63 61.8495C159.325 62.7786 157.648 62.0352 156.716 60.9202C155.784 59.8053 156.53 58.1326 157.648 57.2035ZM150.939 65.3802C150.939 65.3802 152.989 63.8937 155.412 65.0088C155.412 65.0088 155.971 65.5662 155.971 66.1236C155.971 66.6812 155.412 67.0529 154.666 67.0529C151.312 67.0529 152.244 70.7696 152.057 71.513C152.057 71.513 151.685 71.8847 151.312 72.0704C150.753 72.2564 150.567 71.8847 150.567 71.8847C150.008 71.6987 150.008 68.5395 149.076 67.7963C148.144 66.867 146.653 67.0529 146.653 67.0529C146.653 67.0529 146.094 67.0529 145.908 66.3096C145.721 65.5662 146.467 65.1945 146.467 65.1945C146.467 65.1945 148.703 64.0794 150.939 65.3802ZM143.299 56.6461C143.299 56.6461 143.672 56.8318 143.858 56.8318C144.417 57.0177 144.976 57.2035 145.535 57.3894C146.84 57.7611 147.585 58.876 147.585 60.177C147.585 60.3627 147.585 60.3627 147.585 60.5485C147.585 61.8495 146.281 63.522 144.79 63.336C143.113 63.1503 141.435 62.7786 139.758 62.4069C141.622 61.6635 142.74 59.991 142.74 58.1326C142.74 57.5752 142.554 57.0177 142.367 56.4601C142.74 56.4601 143.113 56.4601 143.299 56.6461ZM132.49 19.8502C133.05 15.3901 137.522 27.2836 137.522 27.2836L139.945 33.6021C139.945 33.6021 135.286 36.7614 133.05 35.0889C133.05 35.0889 131.931 24.3103 132.49 19.8502ZM129.695 58.1326C127.645 57.0177 128.018 53.6725 130.44 53.1151C132.677 52.5575 134.913 52.9292 136.963 53.6725C134.913 54.2302 133.608 56.0884 133.608 58.1326C133.608 59.0619 133.795 59.8053 134.354 60.5485C132.677 59.6194 131.186 58.876 129.695 58.1326ZM161.002 79.6897C157.089 81.5482 152.617 80.2474 150.38 76.7164C147.212 80.6191 142.367 82.1056 138.267 78.5747C142.926 81.9199 147.399 79.6897 149.821 75.2297L150.567 74.1146L151.126 75.4156C152.989 80.4331 158.021 81.1765 162.493 79.1323C162.493 78.9464 161.002 79.6897 161.002 79.6897Z" fill="#01313D"/>
<path d="M72 276.68H111.349" stroke="#01313D"/>
<path d="M219.559 276.68H258.907" stroke="#01313D"/>
</g>
</g>
<defs>
<clipPath id="clip0_95_3693">
<rect width="302" height="324" fill="white"/>
</clipPath>
<clipPath id="clip1_95_3693">
<rect width="188" height="327" fill="white" transform="translate(72 2)"/>
</clipPath>
</defs>
</svg>
