<svg width="331" height="324" viewBox="0 0 331 324" fill="none" xmlns="http://www.w3.org/2000/svg">
<path d="M302 171.967C302 255.511 234.395 323.238 151 323.238C67.605 323.238 0 255.511 0 171.967C0 88.422 67.605 20.6956 151 20.6956C234.395 20.6956 302 88.422 302 171.967Z" fill="#95E6E2"/>
<path d="M330.649 288.058C330.649 287.905 330.496 287.601 330.496 287.448C330.342 286.838 330.038 286.685 329.885 286.381C329.581 285.924 329.275 285.771 328.971 285.468C327.75 284.707 326.682 284.097 325.464 283.64C320.889 281.813 316.162 280.746 310.06 280.442C308.231 280.442 306.249 280.596 304.878 280.899C304.267 280.899 303.504 280.899 302.893 280.746C302.436 280.746 301.979 280.746 301.521 280.746C301.521 280.596 301.675 280.593 301.979 280.442C303.2 279.986 304.724 278.766 297.251 278.766C290.237 279.223 285.51 280.442 280.935 281.356C278.8 281.813 274.836 282.574 270.108 282.727C265.38 282.727 259.738 281.66 254.247 279.679C251.504 278.766 248.911 277.548 246.47 276.482C244.03 275.264 241.744 274.197 239.913 272.827C236.1 270.39 233.814 267.802 232.899 266.735C231.375 264.908 229.39 261.557 228.629 257.598C227.714 253.637 227.714 249.526 227.561 246.632C227.408 240.997 227.104 234.601 226.647 229.573C226.647 228.813 226.19 226.376 226.036 225.462C224.665 219.219 222.072 212.517 219.02 206.578C217.495 203.835 215.82 200.637 214.446 198.506C210.329 191.044 205.297 184.342 200.265 177.64C198.74 175.813 197.215 173.832 195.537 171.854C193.859 169.721 192.181 167.59 190.506 165.609C186.996 161.345 183.796 157.386 180.897 153.578C180.136 152.665 178.611 150.684 178.001 149.924C175.408 147.03 170.985 141.851 166.41 136.368C164.124 133.627 161.682 130.733 159.396 127.992C156.955 125.25 154.515 122.661 152.229 120.681C149.637 118.397 147.502 116.722 145.67 115.351C144.756 114.742 143.995 114.133 143.231 113.523C142.774 113.219 142.468 113.067 142.164 112.762C141.706 112.457 140.943 112 140.335 111.696C138.35 112.305 137.893 112.457 136.825 112.609C135.911 112.762 134.843 113.067 133.776 113.371C132.708 113.676 131.337 113.828 129.965 114.133C129.812 114.133 129.659 114.133 129.355 114.285H129.048C128.897 114.285 128.744 114.285 128.44 114.437C128.134 114.589 127.676 114.589 127.372 114.742C126.609 115.046 125.694 115.199 124.78 115.503L121.271 116.417C120.967 116.569 120.356 116.417 119.746 116.569C118.985 116.569 118.221 116.722 117.611 116.722L115.782 117.026L114.867 117.179C114.867 117.179 114.41 117.179 114.104 117.179L110.293 117.331C109.072 117.483 108.005 117.331 106.633 117.331C105.412 117.331 104.191 117.179 102.973 117.179C103.126 117.179 102.058 117.179 102.058 117.179C102.058 117.179 101.905 117.179 101.752 117.179C101.599 117.179 101.295 117.179 100.991 117.179C100.38 117.179 99.9231 117.179 99.3127 117.026L98.3983 116.874C98.0919 116.874 97.9411 116.874 97.6347 116.722L96.8735 116.569L96.4139 116.417H96.1099H95.9567H95.8059H95.6527C94.7383 116.265 93.8214 116.112 93.0602 115.96C92.603 115.96 92.2966 115.808 91.8394 115.655C91.3822 115.503 90.925 115.351 90.4678 115.351C89.5534 115.046 88.6366 114.742 88.0285 114.437C87.2649 114.133 86.6545 113.828 86.3505 113.828C85.8933 113.676 85.5869 113.523 85.1297 113.371L84.5193 113.219C84.3685 113.219 84.3685 113.219 84.2153 113.219C83.454 112.762 82.6904 112.457 82.08 112.153C81.4696 111.848 80.8616 111.543 80.098 111.087C78.8772 110.477 77.8095 109.868 76.7419 109.107C76.5911 109.411 76.2847 109.868 76.1339 110.173C75.5235 111.239 74.7599 112.305 74.4558 113.371C74.1518 114.133 73.9987 114.742 73.8455 115.351C73.5415 116.722 73.3882 117.94 73.0842 119.006C72.931 120.072 72.7778 121.138 72.7778 122.204C72.7778 123.27 72.6246 124.184 72.6246 124.946C72.6246 128.449 72.6246 131.038 72.931 133.17C73.235 137.434 73.5415 140.176 73.8455 145.201C73.9987 146.572 73.9986 148.247 74.3027 149.771C74.7599 152.208 75.2171 154.949 76.1339 157.386C76.8951 159.821 77.8095 162.258 78.8771 164.542C80.8616 169.113 82.8436 173.072 84.3685 176.269C86.3505 181.601 87.1117 186.322 87.5713 190.891C87.8753 194.088 88.3325 199.877 88.4857 205.665C88.6389 211.298 88.4857 216.933 88.4857 219.37C88.4857 221.197 88.3325 223.788 88.1793 225.919C88.0285 228.509 87.8753 230.64 87.8753 233.23C87.8753 235.665 87.7221 238.559 87.5713 241.607C87.5713 243.13 87.4181 244.501 87.4181 245.871C87.4181 247.242 87.2649 248.459 87.2649 249.526C86.9609 253.637 86.1973 257.902 84.9789 261.557C83.9113 264.604 82.5372 267.496 80.7084 270.086C79.7939 271.456 78.8771 272.674 77.8095 273.741C76.7443 274.807 75.5235 275.874 74.1495 276.938C72.7778 278.005 71.5594 279.223 70.1854 280.442C68.9669 281.66 67.5929 283.183 66.6785 285.164C66.3745 285.621 66.3745 286.228 66.2213 286.685C66.2213 286.838 66.2213 286.991 66.0681 287.144V287.601C66.0681 288.058 65.9149 288.515 66.0681 288.819C66.2213 289.579 66.2213 290.342 66.5253 291.103L66.8317 292.17C66.8317 292.473 67.1357 292.32 67.2889 292.32H67.8993C68.2033 292.32 68.6605 292.32 68.9669 292.32L70.1854 292.17L71.8634 292.016L74.3027 291.713C79.4876 290.95 84.6725 290.342 89.8574 289.732C91.0782 289.579 92.4498 289.579 93.9746 289.122C94.7383 288.972 95.6527 288.515 96.4139 287.905C97.1775 287.295 97.9411 286.534 98.2451 285.621C99.0063 283.944 99.1595 282.423 99.3127 281.052L99.466 279.072H99.6167H100.38L103.124 278.919C104.955 278.766 106.784 278.615 108.768 278.615C108.768 278.615 110.14 278.462 112.732 278.309C113.343 278.309 114.104 278.309 115.021 278.158C115.935 278.005 117.003 277.852 118.07 277.395C119.289 276.938 120.51 275.721 121.12 274.504C121.73 273.284 122.034 271.913 122.188 270.846C123.712 262.014 125.694 249.679 127.83 236.579C128.44 233.23 128.897 230.03 129.508 226.682C129.812 225.005 130.116 223.331 130.269 221.654L130.422 220.437C130.422 220.284 130.573 220.437 130.573 220.437L131.49 220.59L132.861 220.74C133.776 220.894 134.69 220.893 135.454 220.893C137.283 220.893 138.961 220.894 140.792 220.74C142.621 220.59 144.299 220.284 145.977 219.98C146.891 219.827 147.653 219.523 148.416 219.219C148.873 219.066 149.177 218.913 149.637 218.762L150.245 218.609L150.551 218.456L151.162 218.152L151.466 217.999C151.619 217.999 151.619 217.846 151.77 217.846C151.77 217.846 151.77 217.999 151.619 217.999C151.466 218.152 151.466 218.306 151.313 218.456L151.009 218.913L150.398 219.827C149.941 220.437 149.637 221.047 149.331 221.654C147.959 224.244 147.044 226.832 146.738 229.423C146.434 232.011 146.585 234.295 147.045 236.428C147.806 239.473 149.177 242.367 150.855 244.651C152.533 247.089 154.515 249.069 156.497 250.743C158.479 252.571 160.615 254.094 162.599 255.465C164.581 256.835 166.563 258.206 168.392 259.576C172.205 262.167 175.712 264.604 179.219 266.888C180.897 268.105 182.575 269.172 184.1 270.239C184.861 270.696 185.778 271.456 185.929 271.609C186.082 271.609 186.235 271.76 186.235 271.913L186.082 272.066L185.625 272.217C185.321 272.217 185.014 272.37 184.71 272.37C183.796 272.523 181.05 272.827 176.78 273.131C172.509 273.437 166.867 273.894 160.311 274.654C153.754 275.568 146.281 276.788 138.503 279.529C136.521 280.289 134.69 281.052 132.708 282.117C131.641 282.727 129.659 284.097 128.744 285.315C128.287 285.924 127.98 286.534 127.98 287.295C127.83 287.905 128.134 288.819 128.591 289.275C128.744 289.579 129.048 289.732 129.355 289.885C129.659 290.036 129.965 290.189 130.269 290.189H131.947H135.301C137.589 290.189 139.875 290.342 142.164 290.342C144.452 290.342 146.738 290.493 149.026 290.493C151.313 290.493 153.601 290.646 155.583 290.493C159.7 290.342 163.818 290.036 167.631 289.885C175.408 289.428 182.728 289.122 189.132 288.972C195.384 288.972 200.876 289.275 204.229 290.493C204.686 290.646 205.144 290.95 205.45 291.103C205.754 291.256 206.211 291.407 206.518 291.56C206.975 291.713 207.279 291.863 207.585 291.863C208.346 292.016 208.957 291.713 209.567 291.56C210.178 291.256 210.482 290.799 210.786 290.342C211.092 289.885 211.245 289.428 211.245 288.972C211.396 288.515 211.396 288.058 211.396 287.601C211.396 287.448 211.396 287.295 211.396 286.991C211.396 286.838 211.396 286.685 211.396 286.685C211.396 286.534 211.396 286.228 211.396 286.228C210.939 283.337 210.178 281.356 209.718 279.679C209.11 278.005 208.653 276.635 208.193 275.568C207.736 274.504 207.432 273.588 207.126 272.827C207.126 272.674 207.126 272.674 207.126 272.674H207.279C207.585 272.523 207.736 272.37 208.042 272.217C209.11 271.61 210.329 270.846 211.703 269.476C212.77 268.412 213.531 267.345 214.142 266.125C214.446 265.518 214.752 265.061 214.903 264.451C215.056 264.147 215.056 263.841 215.209 263.537V263.384V263.233C215.363 262.777 215.209 262.777 215.363 262.777V262.47V262.32C215.363 262.32 215.363 262.32 215.363 262.47C215.363 262.623 215.513 262.623 215.513 262.777C215.513 262.927 215.667 262.927 215.667 263.08C215.971 263.537 216.124 263.994 216.428 264.451C216.734 264.908 217.038 265.518 217.345 265.974C220.088 270.239 223.901 275.264 230.915 280.442C234.424 283.03 238.845 285.468 244.337 287.295C249.826 289.122 256.078 290.493 263.549 290.799C271.176 291.103 277.732 289.885 283.528 288.666C289.17 287.448 294.048 286.078 298.319 285.315C302.589 284.554 306.249 284.707 309.452 285.011C310.977 285.315 312.502 285.468 313.873 286.078C314.637 286.381 315.245 286.534 315.855 286.685C316.466 286.838 317.229 287.295 317.837 287.448C320.583 288.515 323.022 289.275 325.768 289.732C326.074 289.732 326.532 289.885 326.989 289.885C327.14 289.885 327.446 289.885 327.75 289.885C328.056 289.885 328.514 289.885 329.124 289.429C329.275 289.275 329.428 289.122 329.732 288.972C329.885 288.665 330.038 288.362 330.192 288.058C330.649 288.665 330.649 288.209 330.649 288.058ZM101.142 265.061C101.142 264.908 101.295 264.908 101.295 264.755C101.295 264.755 101.295 264.755 101.448 264.755C101.448 264.755 101.448 264.755 101.599 264.755C101.752 264.755 101.752 264.604 101.905 264.604C101.905 264.604 102.058 264.604 102.209 264.604H102.362C102.362 264.604 102.516 264.604 102.666 264.604C103.124 264.451 102.973 264.451 103.124 264.451H103.277C103.277 264.451 103.43 264.451 103.43 264.298C103.277 263.69 103.277 263.08 103.277 262.47C103.277 261.404 103.583 256.835 103.43 256.075C103.277 255.465 103.277 254.094 103.43 253.484C103.43 252.877 103.277 252.114 103.734 251.506C103.734 251.353 103.887 251.2 103.734 251.049C103.43 250.286 103.734 249.526 103.734 248.763C103.734 248.459 103.734 248.002 103.887 247.699C104.191 246.785 104.04 245.718 104.191 244.651C104.04 244.044 104.04 243.434 104.04 242.824C104.04 242.214 104.04 241.607 104.344 240.997C104.344 240.844 104.498 240.54 104.498 240.387C104.191 239.473 104.955 237.189 104.651 235.818C104.344 233.991 105.108 234.144 105.108 232.317C105.108 231.707 105.108 231.097 105.108 230.489C105.259 229.573 105.259 228.813 104.955 228.052C105.108 227.899 105.259 227.595 105.108 227.442C104.955 226.985 105.259 226.682 105.259 226.225C105.869 223.635 104.651 223.331 105.565 222.264C105.716 222.111 105.869 221.96 105.869 221.807C106.022 220.59 106.326 219.37 105.716 218.456C105.716 217.696 105.869 217.239 106.022 216.629C106.326 215.868 106.326 213.735 106.326 213.127C106.326 212.974 106.326 212.821 106.326 212.821C106.326 212.821 106.326 212.821 106.48 212.67C106.633 212.67 106.48 212.517 106.48 212.364C106.48 212.061 106.633 212.214 106.633 212.061C106.633 212.061 106.633 212.061 106.784 212.214C106.937 212.364 106.937 212.364 106.937 212.364C107.701 212.67 108.462 213.127 109.072 213.584C110.75 214.192 112.122 215.258 113.8 215.868C113.8 215.868 113.953 215.868 114.257 216.019C114.41 216.019 114.561 216.172 114.714 216.172C114.867 216.172 114.714 216.172 114.867 216.172C114.867 216.325 114.867 216.476 114.867 216.629C114.867 216.933 114.867 217.389 114.867 217.846C114.867 221.047 114.714 224.548 114.714 226.376C114.714 229.117 113.647 231.097 114.104 232.924C114.104 233.077 114.104 233.23 114.104 233.381C113.953 233.838 113.647 237.799 113.036 241.757C112.579 245.718 111.818 249.526 111.665 249.83C111.665 251.657 111.361 251.353 111.054 252.42C110.901 253.637 110.75 254.247 110.597 255.312C110.293 256.378 109.836 258.055 108.462 260.796C107.701 262.167 106.937 263.08 106.326 263.384C105.716 263.841 105.412 263.841 105.259 263.994C104.802 264.147 104.344 264.298 102.82 264.451C102.516 264.604 102.058 264.755 101.752 264.908C101.295 265.211 101.142 265.211 101.142 265.061Z" fill="#033E4F"/>
<path d="M159.703 30.8252C159.549 29.4545 158.025 28.6929 156.804 29.3021L144.452 35.3941C142.927 36.1556 141.402 36.9172 139.571 36.9172C134.539 37.0695 131.643 31.5868 128.593 27.7792C123.866 21.992 116.088 18.946 108.615 19.7074C108.615 19.7074 94.7381 5.54376 89.8596 0.822565C88.9428 -0.0913464 87.5712 -0.243708 86.3504 0.365487C83.7579 1.88859 81.6227 4.32537 80.5575 7.06663C79.4898 9.80813 78.4222 11.4833 76.7442 14.5293C73.3881 20.4689 72.3205 30.6729 74.4557 37.0695C76.4378 43.3136 80.0979 48.9487 83.6071 54.4315C84.8256 56.1067 85.8932 57.9343 86.3504 60.0663C87.114 63.7215 85.2828 67.2245 83.9111 70.575C79.1834 81.2358 77.0482 93.1152 77.6586 104.842C78.1158 105.299 78.4222 105.908 78.8794 106.365C79.1834 106.517 79.6406 106.67 79.947 106.822C80.7083 106.974 82.8435 108.193 84.8255 109.106C86.8076 110.02 88.9428 110.782 89.2492 111.086C90.4677 111.391 93.8237 112.762 94.5849 112.609C95.3486 112.609 98.0942 113.371 99.0086 113.371C99.3126 113.371 99.619 113.371 99.923 113.523C101.295 113.828 102.82 113.371 104.194 113.523C105.108 113.675 105.872 113.675 106.786 113.675C106.939 113.675 107.243 113.675 107.396 113.675C108.464 113.828 109.682 113.828 110.75 113.675C111.818 113.523 113.038 113.523 114.106 113.523C114.563 113.523 115.021 113.523 115.478 113.371C115.782 113.371 116.088 113.371 116.392 113.218C118.07 112.609 119.899 112.762 121.577 112.457H121.73C122.798 111.848 124.019 111.848 125.084 111.543C125.39 111.391 125.848 111.391 126.152 111.239C126.458 111.239 126.762 111.239 127.068 111.086C128.287 110.477 129.508 110.172 130.728 109.563C130.879 109.563 130.879 109.563 131.032 109.411C131.947 108.802 133.014 108.65 134.082 108.345C134.539 107.584 134.846 106.822 135.15 105.908C137.742 98.1409 138.657 96.9225 138.657 88.6985C138.657 83.6726 141.402 61.5894 143.231 56.4114C144.909 54.2791 146.13 51.5378 148.265 49.8624C155.889 44.0752 160.768 37.9832 159.703 30.8252ZM108.158 30.9776C107.243 32.5004 106.939 34.1757 107.09 35.5464C106.786 35.6988 106.786 35.3941 106.633 35.2419C106.633 35.2419 106.633 35.0896 106.786 34.9372C107.09 34.328 106.329 35.0896 106.176 34.4804C106.176 34.328 106.329 34.1757 106.022 34.328V34.1757C105.718 34.328 105.565 34.1757 105.412 34.0236C105.412 33.8712 105.261 33.8712 105.108 33.8712C104.804 33.7188 105.565 33.262 104.955 33.262C104.498 33.262 104.804 32.6528 104.347 32.6528C104.347 32.6528 104.347 32.6528 104.347 32.5004C104.498 32.3481 104.498 32.196 104.347 32.196C104.194 32.196 104.04 32.3481 104.04 32.3481C103.887 32.5005 103.736 32.5005 103.583 32.3481C103.43 32.3481 103.279 31.8913 103.126 31.4344C102.973 30.9776 102.973 30.5205 102.973 30.0637C102.819 29.7592 102.819 29.3021 102.669 29.15C102.669 29.15 102.515 28.9976 102.515 28.8453C102.515 28.6929 102.819 28.6929 102.973 28.5408C103.126 27.6269 103.43 27.9316 104.347 27.9316C104.651 27.9316 104.804 27.9316 104.955 27.9316C105.261 27.7792 105.565 27.7792 105.872 27.6269H106.022H106.176C106.176 27.6269 106.176 27.6269 106.176 27.7792C106.176 27.7792 106.329 27.7792 106.329 27.6269C106.329 27.6269 107.09 27.6269 107.7 27.6269C108.311 27.6269 109.072 27.9316 109.225 27.9316C109.225 27.9316 109.225 27.9316 109.378 27.9316C109.836 27.3224 109.989 28.2361 110.446 28.2361C110.597 28.2361 111.056 28.2361 111.36 28.2361C110.293 28.5408 109.072 29.6068 108.158 30.9776ZM120.509 37.8308C120.359 38.7448 120.052 38.44 119.138 38.44C118.834 38.44 118.681 38.44 118.527 38.44C118.223 38.5924 117.917 38.5924 117.613 38.7448H117.46H117.307C117.307 38.7448 117.307 38.7448 117.307 38.5924C117.307 38.5924 117.156 38.5924 117.156 38.7448C117.156 38.7448 116.392 38.7448 115.782 38.7448C115.174 38.7448 114.41 38.44 114.257 38.44C114.257 38.44 114.257 38.44 114.106 38.44C113.649 39.0492 113.496 38.1356 113.038 38.1356C112.732 38.1356 112.275 38.1356 111.818 38.1356C113.039 37.6787 114.106 36.7648 115.021 35.3941C115.174 35.2419 115.174 35.0896 115.325 34.7849H115.478C115.478 34.7849 115.478 34.7849 115.325 34.6328C116.088 33.1096 116.241 31.4344 115.935 30.216C116.088 30.216 116.241 30.3684 116.241 30.5205C116.241 30.6729 116.241 30.8252 116.392 30.8252C116.849 30.3684 117.003 30.8252 117.156 30.9776C117.156 30.9776 117.156 31.1297 117.003 31.2821C116.699 31.8913 117.46 31.1297 117.613 31.7389C117.613 31.8913 117.46 32.0436 117.766 31.8912V32.0436C118.07 31.8913 118.223 32.0436 118.374 32.196C118.374 32.3481 118.527 32.3481 118.681 32.3481C118.985 32.5005 118.223 32.9573 118.834 32.9573C119.291 32.9573 118.985 33.5665 119.442 33.5665C119.442 33.5665 119.442 33.5665 119.442 33.7188C119.291 33.8712 119.291 34.0236 119.442 34.0236C119.595 34.0236 119.748 33.8712 119.748 33.8712C119.899 33.7188 120.052 33.7188 120.205 33.8712C120.359 33.8712 120.509 34.328 120.663 34.7849C120.816 35.2419 120.816 35.6988 120.816 36.1556C120.967 36.4603 120.967 36.9172 121.12 37.0695C121.12 37.0695 121.273 37.2216 121.273 37.374C120.967 37.5264 120.663 37.6787 120.509 37.8308Z" fill="#033E4F"/>
</svg>
