<svg width="1728" height="95" viewBox="0 0 1728 95" fill="none" xmlns="http://www.w3.org/2000/svg">
<g opacity="0.1">
<path d="M41.6963 11.2721C41.6963 12.0121 42.3211 12.6384 43.0597 12.6384C43.7981 12.6384 44.423 12.0121 44.423 11.2721C44.423 10.532 43.7981 9.90576 43.0597 9.90576C42.3211 9.90576 41.6963 10.532 41.6963 11.2721Z" fill="#F8F8F8"/>
<path d="M51.5811 11.2721C51.5811 12.0121 52.2059 12.6384 52.9444 12.6384C53.6829 12.6384 54.3078 12.0121 54.3078 11.2721C54.3078 10.532 53.6829 9.90576 52.9444 9.90576C52.2059 9.90576 51.5811 10.532 51.5811 11.2721Z" fill="#F8F8F8"/>
<path d="M42.8329 53.6834C42.8329 52.6588 42.0376 51.8618 41.0151 51.8618C39.9926 51.8618 39.1973 52.6588 39.1973 53.6834C39.1973 54.7082 39.9926 55.5052 41.0151 55.5052C42.0376 55.5622 42.8329 54.7082 42.8329 53.6834Z" fill="#F8F8F8"/>
<path d="M21.9274 35.4664C21.9274 35.4664 31.1301 36.8897 33.516 44.0057C33.8001 44.9166 34.709 45.5429 35.6747 45.5429H40.8441C42.4347 45.5429 43.9116 46.226 44.991 47.4215L46.2975 48.9016C47.3201 50.0971 48.8538 50.7802 50.4444 50.7802H66.6344C67.9409 50.7802 68.9635 51.9757 68.6795 53.2851L66.5208 65.1832C65.9527 68.2574 63.4532 70.6483 60.3288 71.1037L57.9998 71.4453C56.0116 71.73 54.2505 72.8116 53.0576 74.4056L52.6031 75.0318C50.7853 77.5936 50.1604 80.8386 50.8989 83.9126L53.5688 94.7861H116L73.9624 47.7062L111.341 0H62.4875L62.4306 27.4396C62.4306 27.4396 57.7725 26.5287 54.5346 21.2913C53.9665 20.4373 53.0576 19.925 52.0919 19.925H44.3661C43.4004 19.925 42.4915 20.4373 41.9803 21.2343C38.799 26.5287 34.0841 27.4396 34.0841 27.4396V0H0V94.7861H21.9274V35.4664Z" fill="#F8F8F8"/>
<path d="M243.696 11.2721C243.696 12.0121 244.321 12.6384 245.06 12.6384C245.798 12.6384 246.423 12.0121 246.423 11.2721C246.423 10.532 245.798 9.90576 245.06 9.90576C244.321 9.90576 243.696 10.532 243.696 11.2721Z" fill="#F8F8F8"/>
<path d="M253.581 11.2721C253.581 12.0121 254.206 12.6384 254.944 12.6384C255.683 12.6384 256.308 12.0121 256.308 11.2721C256.308 10.532 255.683 9.90576 254.944 9.90576C254.206 9.90576 253.581 10.532 253.581 11.2721Z" fill="#F8F8F8"/>
<path d="M244.833 53.6834C244.833 52.6588 244.038 51.8618 243.015 51.8618C241.993 51.8618 241.197 52.6588 241.197 53.6834C241.197 54.7082 241.993 55.5052 243.015 55.5052C244.038 55.5622 244.833 54.7082 244.833 53.6834Z" fill="#F8F8F8"/>
<path d="M223.927 35.4664C223.927 35.4664 233.13 36.8897 235.516 44.0057C235.8 44.9166 236.709 45.5429 237.675 45.5429H242.844C244.435 45.5429 245.912 46.226 246.991 47.4215L248.298 48.9016C249.32 50.0971 250.854 50.7802 252.444 50.7802H268.634C269.941 50.7802 270.963 51.9757 270.679 53.2851L268.521 65.1832C267.953 68.2574 265.453 70.6483 262.329 71.1037L260 71.4453C258.012 71.73 256.25 72.8116 255.058 74.4056L254.603 75.0318C252.785 77.5936 252.16 80.8386 252.899 83.9126L255.569 94.7861H318L275.962 47.7062L313.341 0H264.488L264.431 27.4396C264.431 27.4396 259.773 26.5287 256.535 21.2913C255.966 20.4373 255.058 19.925 254.092 19.925H246.366C245.4 19.925 244.491 20.4373 243.98 21.2343C240.799 26.5287 236.084 27.4396 236.084 27.4396V0H202V94.7861H223.927V35.4664Z" fill="#F8F8F8"/>
<path d="M445.696 11.2721C445.696 12.0121 446.321 12.6384 447.06 12.6384C447.798 12.6384 448.423 12.0121 448.423 11.2721C448.423 10.532 447.798 9.90576 447.06 9.90576C446.321 9.90576 445.696 10.532 445.696 11.2721Z" fill="#F8F8F8"/>
<path d="M455.581 11.2721C455.581 12.0121 456.206 12.6384 456.944 12.6384C457.683 12.6384 458.308 12.0121 458.308 11.2721C458.308 10.532 457.683 9.90576 456.944 9.90576C456.206 9.90576 455.581 10.532 455.581 11.2721Z" fill="#F8F8F8"/>
<path d="M446.833 53.6834C446.833 52.6588 446.038 51.8618 445.015 51.8618C443.993 51.8618 443.197 52.6588 443.197 53.6834C443.197 54.7082 443.993 55.5052 445.015 55.5052C446.038 55.5622 446.833 54.7082 446.833 53.6834Z" fill="#F8F8F8"/>
<path d="M425.927 35.4664C425.927 35.4664 435.13 36.8897 437.516 44.0057C437.8 44.9166 438.709 45.5429 439.675 45.5429H444.844C446.435 45.5429 447.912 46.226 448.991 47.4215L450.298 48.9016C451.32 50.0971 452.854 50.7802 454.444 50.7802H470.634C471.941 50.7802 472.963 51.9757 472.679 53.2851L470.521 65.1832C469.953 68.2574 467.453 70.6483 464.329 71.1037L462 71.4453C460.012 71.73 458.25 72.8116 457.058 74.4056L456.603 75.0318C454.785 77.5936 454.16 80.8386 454.899 83.9126L457.569 94.7861H520L477.962 47.7062L515.341 0H466.488L466.431 27.4396C466.431 27.4396 461.773 26.5287 458.535 21.2913C457.966 20.4373 457.058 19.925 456.092 19.925H448.366C447.4 19.925 446.491 20.4373 445.98 21.2343C442.799 26.5287 438.084 27.4396 438.084 27.4396V0H404V94.7861H425.927V35.4664Z" fill="#F8F8F8"/>
<path d="M647.696 11.2721C647.696 12.0121 648.321 12.6384 649.06 12.6384C649.798 12.6384 650.423 12.0121 650.423 11.2721C650.423 10.532 649.798 9.90576 649.06 9.90576C648.321 9.90576 647.696 10.532 647.696 11.2721Z" fill="#F8F8F8"/>
<path d="M657.581 11.2721C657.581 12.0121 658.206 12.6384 658.944 12.6384C659.683 12.6384 660.308 12.0121 660.308 11.2721C660.308 10.532 659.683 9.90576 658.944 9.90576C658.206 9.90576 657.581 10.532 657.581 11.2721Z" fill="#F8F8F8"/>
<path d="M648.833 53.6834C648.833 52.6588 648.038 51.8618 647.015 51.8618C645.993 51.8618 645.197 52.6588 645.197 53.6834C645.197 54.7082 645.993 55.5052 647.015 55.5052C648.038 55.5622 648.833 54.7082 648.833 53.6834Z" fill="#F8F8F8"/>
<path d="M627.927 35.4664C627.927 35.4664 637.13 36.8897 639.516 44.0057C639.8 44.9166 640.709 45.5429 641.675 45.5429H646.844C648.435 45.5429 649.912 46.226 650.991 47.4215L652.298 48.9016C653.32 50.0971 654.854 50.7802 656.444 50.7802H672.634C673.941 50.7802 674.963 51.9757 674.679 53.2851L672.521 65.1832C671.953 68.2574 669.453 70.6483 666.329 71.1037L664 71.4453C662.012 71.73 660.25 72.8116 659.058 74.4056L658.603 75.0318C656.785 77.5936 656.16 80.8386 656.899 83.9126L659.569 94.7861H722L679.962 47.7062L717.341 0H668.488L668.431 27.4396C668.431 27.4396 663.773 26.5287 660.535 21.2913C659.966 20.4373 659.058 19.925 658.092 19.925H650.366C649.4 19.925 648.491 20.4373 647.98 21.2343C644.799 26.5287 640.084 27.4396 640.084 27.4396V0H606V94.7861H627.927V35.4664Z" fill="#F8F8F8"/>
<path d="M849.696 11.2721C849.696 12.0121 850.321 12.6384 851.06 12.6384C851.798 12.6384 852.423 12.0121 852.423 11.2721C852.423 10.532 851.798 9.90576 851.06 9.90576C850.321 9.90576 849.696 10.532 849.696 11.2721Z" fill="#F8F8F8"/>
<path d="M859.581 11.2721C859.581 12.0121 860.206 12.6384 860.944 12.6384C861.683 12.6384 862.308 12.0121 862.308 11.2721C862.308 10.532 861.683 9.90576 860.944 9.90576C860.206 9.90576 859.581 10.532 859.581 11.2721Z" fill="#F8F8F8"/>
<path d="M850.833 53.6834C850.833 52.6588 850.038 51.8618 849.015 51.8618C847.993 51.8618 847.197 52.6588 847.197 53.6834C847.197 54.7082 847.993 55.5052 849.015 55.5052C850.038 55.5622 850.833 54.7082 850.833 53.6834Z" fill="#F8F8F8"/>
<path d="M829.927 35.4664C829.927 35.4664 839.13 36.8897 841.516 44.0057C841.8 44.9166 842.709 45.5429 843.675 45.5429H848.844C850.435 45.5429 851.912 46.226 852.991 47.4215L854.298 48.9016C855.32 50.0971 856.854 50.7802 858.444 50.7802H874.634C875.941 50.7802 876.963 51.9757 876.679 53.2851L874.521 65.1832C873.953 68.2574 871.453 70.6483 868.329 71.1037L866 71.4453C864.012 71.73 862.25 72.8116 861.058 74.4056L860.603 75.0318C858.785 77.5936 858.16 80.8386 858.899 83.9126L861.569 94.7861H924L881.962 47.7062L919.341 0H870.488L870.431 27.4396C870.431 27.4396 865.773 26.5287 862.535 21.2913C861.966 20.4373 861.058 19.925 860.092 19.925H852.366C851.4 19.925 850.491 20.4373 849.98 21.2343C846.799 26.5287 842.084 27.4396 842.084 27.4396V0H808V94.7861H829.927V35.4664Z" fill="#F8F8F8"/>
<path d="M1051.7 11.2721C1051.7 12.0121 1052.32 12.6384 1053.06 12.6384C1053.8 12.6384 1054.42 12.0121 1054.42 11.2721C1054.42 10.532 1053.8 9.90576 1053.06 9.90576C1052.32 9.90576 1051.7 10.532 1051.7 11.2721Z" fill="#F8F8F8"/>
<path d="M1061.58 11.2721C1061.58 12.0121 1062.21 12.6384 1062.94 12.6384C1063.68 12.6384 1064.31 12.0121 1064.31 11.2721C1064.31 10.532 1063.68 9.90576 1062.94 9.90576C1062.21 9.90576 1061.58 10.532 1061.58 11.2721Z" fill="#F8F8F8"/>
<path d="M1052.83 53.6834C1052.83 52.6588 1052.04 51.8618 1051.02 51.8618C1049.99 51.8618 1049.2 52.6588 1049.2 53.6834C1049.2 54.7082 1049.99 55.5052 1051.02 55.5052C1052.04 55.5622 1052.83 54.7082 1052.83 53.6834Z" fill="#F8F8F8"/>
<path d="M1031.93 35.4664C1031.93 35.4664 1041.13 36.8897 1043.52 44.0057C1043.8 44.9166 1044.71 45.5429 1045.67 45.5429H1050.84C1052.43 45.5429 1053.91 46.226 1054.99 47.4215L1056.3 48.9016C1057.32 50.0971 1058.85 50.7802 1060.44 50.7802H1076.63C1077.94 50.7802 1078.96 51.9757 1078.68 53.2851L1076.52 65.1832C1075.95 68.2574 1073.45 70.6483 1070.33 71.1037L1068 71.4453C1066.01 71.73 1064.25 72.8116 1063.06 74.4056L1062.6 75.0318C1060.79 77.5936 1060.16 80.8386 1060.9 83.9126L1063.57 94.7861H1126L1083.96 47.7062L1121.34 0H1072.49L1072.43 27.4396C1072.43 27.4396 1067.77 26.5287 1064.53 21.2913C1063.97 20.4373 1063.06 19.925 1062.09 19.925H1054.37C1053.4 19.925 1052.49 20.4373 1051.98 21.2343C1048.8 26.5287 1044.08 27.4396 1044.08 27.4396V0H1010V94.7861H1031.93V35.4664Z" fill="#F8F8F8"/>
<path d="M1253.7 11.2721C1253.7 12.0121 1254.32 12.6384 1255.06 12.6384C1255.8 12.6384 1256.42 12.0121 1256.42 11.2721C1256.42 10.532 1255.8 9.90576 1255.06 9.90576C1254.32 9.90576 1253.7 10.532 1253.7 11.2721Z" fill="#F8F8F8"/>
<path d="M1263.58 11.2721C1263.58 12.0121 1264.21 12.6384 1264.94 12.6384C1265.68 12.6384 1266.31 12.0121 1266.31 11.2721C1266.31 10.532 1265.68 9.90576 1264.94 9.90576C1264.21 9.90576 1263.58 10.532 1263.58 11.2721Z" fill="#F8F8F8"/>
<path d="M1254.83 53.6834C1254.83 52.6588 1254.04 51.8618 1253.02 51.8618C1251.99 51.8618 1251.2 52.6588 1251.2 53.6834C1251.2 54.7082 1251.99 55.5052 1253.02 55.5052C1254.04 55.5622 1254.83 54.7082 1254.83 53.6834Z" fill="#F8F8F8"/>
<path d="M1233.93 35.4664C1233.93 35.4664 1243.13 36.8897 1245.52 44.0057C1245.8 44.9166 1246.71 45.5429 1247.67 45.5429H1252.84C1254.43 45.5429 1255.91 46.226 1256.99 47.4215L1258.3 48.9016C1259.32 50.0971 1260.85 50.7802 1262.44 50.7802H1278.63C1279.94 50.7802 1280.96 51.9757 1280.68 53.2851L1278.52 65.1832C1277.95 68.2574 1275.45 70.6483 1272.33 71.1037L1270 71.4453C1268.01 71.73 1266.25 72.8116 1265.06 74.4056L1264.6 75.0318C1262.79 77.5936 1262.16 80.8386 1262.9 83.9126L1265.57 94.7861H1328L1285.96 47.7062L1323.34 0H1274.49L1274.43 27.4396C1274.43 27.4396 1269.77 26.5287 1266.53 21.2913C1265.97 20.4373 1265.06 19.925 1264.09 19.925H1256.37C1255.4 19.925 1254.49 20.4373 1253.98 21.2343C1250.8 26.5287 1246.08 27.4396 1246.08 27.4396V0H1212V94.7861H1233.93V35.4664Z" fill="#F8F8F8"/>
<path d="M1455.7 11.2721C1455.7 12.0121 1456.32 12.6384 1457.06 12.6384C1457.8 12.6384 1458.42 12.0121 1458.42 11.2721C1458.42 10.532 1457.8 9.90576 1457.06 9.90576C1456.32 9.90576 1455.7 10.532 1455.7 11.2721Z" fill="#F8F8F8"/>
<path d="M1465.58 11.2721C1465.58 12.0121 1466.21 12.6384 1466.94 12.6384C1467.68 12.6384 1468.31 12.0121 1468.31 11.2721C1468.31 10.532 1467.68 9.90576 1466.94 9.90576C1466.21 9.90576 1465.58 10.532 1465.58 11.2721Z" fill="#F8F8F8"/>
<path d="M1456.83 53.6834C1456.83 52.6588 1456.04 51.8618 1455.02 51.8618C1453.99 51.8618 1453.2 52.6588 1453.2 53.6834C1453.2 54.7082 1453.99 55.5052 1455.02 55.5052C1456.04 55.5622 1456.83 54.7082 1456.83 53.6834Z" fill="#F8F8F8"/>
<path d="M1435.93 35.4664C1435.93 35.4664 1445.13 36.8897 1447.52 44.0057C1447.8 44.9166 1448.71 45.5429 1449.67 45.5429H1454.84C1456.43 45.5429 1457.91 46.226 1458.99 47.4215L1460.3 48.9016C1461.32 50.0971 1462.85 50.7802 1464.44 50.7802H1480.63C1481.94 50.7802 1482.96 51.9757 1482.68 53.2851L1480.52 65.1832C1479.95 68.2574 1477.45 70.6483 1474.33 71.1037L1472 71.4453C1470.01 71.73 1468.25 72.8116 1467.06 74.4056L1466.6 75.0318C1464.79 77.5936 1464.16 80.8386 1464.9 83.9126L1467.57 94.7861H1530L1487.96 47.7062L1525.34 0H1476.49L1476.43 27.4396C1476.43 27.4396 1471.77 26.5287 1468.53 21.2913C1467.97 20.4373 1467.06 19.925 1466.09 19.925H1458.37C1457.4 19.925 1456.49 20.4373 1455.98 21.2343C1452.8 26.5287 1448.08 27.4396 1448.08 27.4396V0H1414V94.7861H1435.93V35.4664Z" fill="#F8F8F8"/>
<path d="M1657.7 11.2721C1657.7 12.0121 1658.32 12.6384 1659.06 12.6384C1659.8 12.6384 1660.42 12.0121 1660.42 11.2721C1660.42 10.532 1659.8 9.90576 1659.06 9.90576C1658.32 9.90576 1657.7 10.532 1657.7 11.2721Z" fill="#F8F8F8"/>
<path d="M1667.58 11.2721C1667.58 12.0121 1668.21 12.6384 1668.94 12.6384C1669.68 12.6384 1670.31 12.0121 1670.31 11.2721C1670.31 10.532 1669.68 9.90576 1668.94 9.90576C1668.21 9.90576 1667.58 10.532 1667.58 11.2721Z" fill="#F8F8F8"/>
<path d="M1658.83 53.6834C1658.83 52.6588 1658.04 51.8618 1657.02 51.8618C1655.99 51.8618 1655.2 52.6588 1655.2 53.6834C1655.2 54.7082 1655.99 55.5052 1657.02 55.5052C1658.04 55.5622 1658.83 54.7082 1658.83 53.6834Z" fill="#F8F8F8"/>
<path d="M1637.93 35.4664C1637.93 35.4664 1647.13 36.8897 1649.52 44.0057C1649.8 44.9166 1650.71 45.5429 1651.67 45.5429H1656.84C1658.43 45.5429 1659.91 46.226 1660.99 47.4215L1662.3 48.9016C1663.32 50.0971 1664.85 50.7802 1666.44 50.7802H1682.63C1683.94 50.7802 1684.96 51.9757 1684.68 53.2851L1682.52 65.1832C1681.95 68.2574 1679.45 70.6483 1676.33 71.1037L1674 71.4453C1672.01 71.73 1670.25 72.8116 1669.06 74.4056L1668.6 75.0318C1666.79 77.5936 1666.16 80.8386 1666.9 83.9126L1669.57 94.7861H1732L1689.96 47.7062L1727.34 0H1678.49L1678.43 27.4396C1678.43 27.4396 1673.77 26.5287 1670.53 21.2913C1669.97 20.4373 1669.06 19.925 1668.09 19.925H1660.37C1659.4 19.925 1658.49 20.4373 1657.98 21.2343C1654.8 26.5287 1650.08 27.4396 1650.08 27.4396V0H1616V94.7861H1637.93V35.4664Z" fill="#F8F8F8"/>
</g>
</svg>
