<svg width="287" height="70" viewBox="0 0 287 70" fill="none" xmlns="http://www.w3.org/2000/svg">
<g clip-path="url(#clip0_4_7598)">
<path d="M141.693 7.53401H126.028L108.078 27.7219V7.53401H96.526V59.9392H108.078V40.5422L126.568 59.8143L126.693 59.9392H142.815L117.842 33.8407L141.693 7.53401Z" fill="#033E4F"/>
<path d="M158.563 7.53401H146.97V59.9392H158.563V7.53401Z" fill="#033E4F"/>
<path d="M200.198 38.3361L175.142 8.32488L174.477 7.53401H165.751V59.9392H177.344V29.0955L202.358 59.1067L203.024 59.9392H211.791V7.53401H200.198V38.3361Z" fill="#033E4F"/>
<path d="M223.716 7.61728H225.005L227.331 14.8599L229.741 7.61728H230.988L228.246 16.1087H226.5L223.716 7.61728Z" fill="#033E4F"/>
<path d="M232.484 14.4853C232.774 14.9016 233.315 15.1097 233.855 15.1097C234.27 15.1097 234.645 15.0264 234.936 14.8183C235.226 14.6102 235.392 14.4021 235.517 14.1107L236.722 14.4853C236.473 15.0264 236.099 15.5259 235.6 15.8173C235.101 16.1087 234.52 16.2752 233.938 16.2752C232.982 16.2752 232.068 15.9006 231.487 15.2346C230.988 14.5686 230.739 13.7777 230.739 12.9868C230.739 12.1128 230.988 11.2386 231.487 10.6143C232.068 9.90667 232.941 9.57367 233.855 9.57367C234.769 9.57367 235.517 9.90667 236.099 10.5726C236.68 11.2803 236.847 12.2376 236.805 13.2782H232.068C232.11 13.6944 232.235 14.1107 232.484 14.4853ZM232.484 11.2803C232.276 11.5716 232.151 11.9046 232.11 12.2793H235.559C235.517 11.9046 235.434 11.53 235.226 11.2386C234.936 10.8223 234.395 10.6558 233.855 10.6558C233.356 10.6143 232.858 10.8223 232.484 11.2803Z" fill="#033E4F"/>
<path d="M239.88 13.5279C239.88 14.0274 239.839 14.4437 240.004 14.6934C240.171 14.9848 240.42 15.1097 240.711 15.1097C241.043 15.1513 241.418 15.1097 241.75 15.0681V16.1087C241.293 16.2335 240.587 16.2335 240.129 16.1503C239.548 16.067 239.174 15.8589 238.883 15.3594C238.592 14.8599 238.633 14.3188 238.633 13.6112V10.7391H237.429V9.74009H238.633V7.95027H239.839V9.74009H241.75V10.7391H239.839V13.5279H239.88Z" fill="#033E4F"/>
<path d="M244.16 14.4853C244.451 14.9016 244.992 15.1097 245.531 15.1097C245.947 15.1097 246.321 15.0264 246.612 14.8183C246.902 14.6102 247.069 14.4021 247.193 14.1107L248.398 14.4853C248.149 15.0264 247.775 15.5259 247.277 15.8173C246.778 16.1087 246.196 16.2752 245.615 16.2752C244.659 16.2752 243.745 15.9006 243.163 15.2346C242.664 14.5686 242.415 13.7777 242.415 12.9868C242.415 12.1128 242.664 11.2386 243.163 10.6143C243.745 9.90667 244.617 9.57367 245.531 9.57367C246.446 9.57367 247.193 9.90667 247.775 10.5726C248.357 11.2803 248.523 12.2376 248.481 13.2782H243.745C243.786 13.6944 243.911 14.1107 244.16 14.4853ZM244.16 11.2803C243.952 11.5716 243.828 11.9046 243.786 12.2793H247.235C247.194 11.9046 247.11 11.53 246.902 11.2386C246.612 10.8223 246.071 10.6558 245.531 10.6558C245.033 10.6143 244.534 10.8223 244.16 11.2803Z" fill="#033E4F"/>
<path d="M253.758 9.6985V10.864C253.468 10.7391 253.093 10.6975 252.72 10.7391C252.221 10.7808 251.847 10.9473 251.598 11.197C251.141 11.6133 251.099 12.196 251.099 12.9036V16.1087H249.852V9.74017H250.933V10.6558C251.058 10.4061 251.265 10.198 251.514 9.98992C251.889 9.6985 252.345 9.57367 252.803 9.57367C253.135 9.53201 253.426 9.57367 253.758 9.6985Z" fill="#033E4F"/>
<path d="M256.21 8.6995H254.963V7.4924H256.21V8.6995ZM256.21 16.1087H254.963V9.74008H256.21V16.1087Z" fill="#033E4F"/>
<path d="M263.232 12.9868V16.0671H261.986V13.0285C261.986 12.196 261.903 11.4883 261.404 11.0305C261.113 10.7808 260.739 10.6558 260.282 10.6558C259.95 10.6975 259.617 10.7808 259.368 10.9888C259.077 11.197 258.911 11.53 258.869 11.9463C258.786 12.3208 258.786 12.7788 258.786 13.2366V16.0254H257.54V9.74017H258.62V10.531L258.827 10.2813C259.243 9.82342 259.866 9.61526 260.448 9.57367C261.113 9.53201 261.82 9.65692 262.401 10.1563C263.191 10.8223 263.232 11.9463 263.232 12.9868Z" fill="#033E4F"/>
<path d="M268.842 16.1087V15.1929C268.26 15.9837 267.512 16.2752 266.515 16.2752C265.268 16.2752 264.437 15.5259 264.437 14.3188C264.437 13.4863 264.77 12.9036 265.559 12.5289C266.348 12.1543 267.637 12.0294 268.717 11.863C268.675 11.1137 268.135 10.6975 267.304 10.6975C266.64 10.6975 266.057 10.9056 265.559 11.4051L264.811 10.5726C265.476 9.86499 266.307 9.49033 267.388 9.49033C268.052 9.49033 268.717 9.78174 269.133 10.1563C269.714 10.6558 269.922 11.4051 269.922 12.1959V16.067H268.842V16.1087ZM268.717 12.8619C268.011 12.9868 267.304 13.1117 266.806 13.1949C266.182 13.3198 265.642 13.6528 265.642 14.2356C265.642 14.8183 266.141 15.2345 266.764 15.2345C267.512 15.2345 268.135 14.9016 268.468 14.3188C268.717 13.9026 268.717 13.4447 268.717 12.8619Z" fill="#033E4F"/>
<path d="M275.157 9.6985V10.864C274.866 10.7391 274.493 10.6975 274.118 10.7391C273.62 10.7808 273.246 10.9473 272.997 11.197C272.539 11.6133 272.498 12.196 272.498 12.9036V16.1087H271.252V9.74017H272.332V10.6558C272.456 10.4061 272.664 10.198 272.914 9.98992C273.287 9.6985 273.745 9.57367 274.201 9.57367C274.534 9.53201 274.866 9.57367 275.157 9.6985Z" fill="#033E4F"/>
<path d="M282.263 9.74017L279.437 17.1909C279.189 17.8569 278.939 18.3564 278.524 18.6894C278.15 18.9808 277.775 18.9808 277.069 18.9808V17.7737C277.443 17.7737 277.693 17.7737 277.9 17.6072C278.15 17.4407 278.274 17.1493 278.606 16.3168L275.989 9.74017H277.235L279.147 14.7351L280.976 9.74017H282.263Z" fill="#033E4F"/>
<path d="M225.752 23.3513V25.7239H229.201V26.8894H225.752V29.5118H229.907V30.6773H224.506V22.1858H229.907V23.3513H225.752Z" fill="#033E4F"/>
<path d="M240.171 26.7645V30.6772H238.925V26.8477C238.925 26.2651 238.883 25.9321 238.509 25.5991C238.302 25.3909 237.969 25.2661 237.636 25.2661C237.262 25.2661 236.888 25.4326 236.639 25.6823C236.39 26.0153 236.348 26.3483 236.348 26.6813V26.7645V30.6772H235.102V26.8477C235.102 26.2651 235.06 25.9321 234.686 25.5991C234.478 25.3909 234.146 25.2661 233.813 25.2661C233.44 25.2661 233.066 25.4326 232.816 25.6823C232.526 26.0153 232.484 26.3483 232.484 26.6813V30.6772H231.237V24.3087H232.318V25.0163C232.733 24.4752 233.398 24.1422 234.105 24.1422C234.603 24.1422 235.226 24.3087 235.6 24.6833C235.767 24.8498 235.892 25.0163 236.015 25.1828C236.431 24.5168 237.179 24.1422 237.927 24.1422C238.425 24.1422 239.049 24.3087 239.423 24.6833C240.129 25.2661 240.171 25.9321 240.171 26.7645Z" fill="#033E4F"/>
<path d="M243.079 29.0539C243.37 29.4702 243.91 29.6782 244.451 29.6782C244.866 29.6782 245.24 29.595 245.531 29.3869C245.822 29.1788 245.988 28.929 246.113 28.6792L247.317 29.0539C247.068 29.595 246.694 30.0945 246.196 30.3858C245.697 30.6773 245.115 30.8438 244.534 30.8438C243.578 30.8438 242.664 30.4691 242.082 29.8031C241.583 29.1372 241.334 28.3463 241.334 27.5554C241.334 26.6813 241.583 25.8072 242.082 25.1828C242.664 24.4752 243.537 24.1422 244.451 24.1422C245.365 24.1422 246.113 24.4752 246.694 25.1412C247.276 25.8488 247.442 26.8062 247.401 27.8467H242.664C242.706 28.3047 242.83 28.7209 243.079 29.0539ZM243.079 25.8488C242.872 26.1402 242.747 26.4732 242.706 26.8477H246.154C246.113 26.4732 246.03 26.0986 245.822 25.8072C245.531 25.3909 244.991 25.2244 244.492 25.2244C243.952 25.2244 243.453 25.3909 243.079 25.8488Z" fill="#033E4F"/>
<path d="M252.678 24.3087V25.4742C252.387 25.3493 252.013 25.3077 251.639 25.3493C251.141 25.3909 250.766 25.5574 250.518 25.8072C250.06 26.2234 250.019 26.8062 250.019 27.5137V30.7188H248.772V24.3087H249.853V25.2244C249.977 24.9747 250.185 24.7666 250.435 24.5584C250.808 24.2671 251.266 24.1422 251.722 24.1422C252.055 24.1422 252.346 24.1838 252.678 24.3087Z" fill="#033E4F"/>
<path d="M259.202 24.3087V30.8438C259.202 31.9676 258.911 32.6752 258.163 33.1747C257.54 33.5909 256.875 33.6742 256.252 33.6742C255.67 33.6742 255.046 33.4661 254.631 33.1331C254.299 32.9249 253.966 32.6336 253.759 32.3006L254.88 31.7595C254.963 31.8843 255.047 32.0093 255.171 32.0925C255.462 32.3838 255.878 32.5088 256.252 32.5088C256.709 32.5088 257.165 32.3838 257.498 32.1341C257.872 31.8428 257.996 31.4681 257.955 30.8438V30.2193C257.456 30.6356 256.833 30.8438 256.086 30.8438C255.213 30.8438 254.423 30.4691 253.883 29.8031C253.343 29.1372 253.176 28.3047 253.176 27.4722C253.176 26.598 253.384 25.7656 253.883 25.1412C254.423 24.4752 255.213 24.1422 256.086 24.1422C256.833 24.1422 257.581 24.4336 258.08 24.9331V24.3503H259.202V24.3087ZM257.623 29.1787C257.955 28.7625 258.121 28.1382 258.121 27.5137C258.121 26.8894 257.996 26.265 257.623 25.8488C257.332 25.4326 256.833 25.2661 256.293 25.2661C255.711 25.2661 255.213 25.4742 254.88 25.9321C254.59 26.3482 254.465 26.931 254.465 27.5137C254.465 28.0965 254.59 28.6792 254.88 29.0955C255.213 29.5533 255.711 29.7615 256.252 29.7615C256.833 29.7615 257.332 29.5533 257.623 29.1787Z" fill="#033E4F"/>
<path d="M262.236 29.0539C262.526 29.4702 263.067 29.6782 263.607 29.6782C264.023 29.6782 264.396 29.595 264.687 29.3869C264.978 29.1788 265.144 28.929 265.269 28.6792L266.473 29.0539C266.225 29.595 265.85 30.0945 265.352 30.3858C264.853 30.6773 264.271 30.8438 263.69 30.8438C262.734 30.8438 261.82 30.4691 261.238 29.8031C260.74 29.1372 260.49 28.3463 260.49 27.5554C260.49 26.6813 260.74 25.8072 261.238 25.1828C261.82 24.4752 262.692 24.1422 263.607 24.1422C264.521 24.1422 265.269 24.4752 265.85 25.1412C266.432 25.8488 266.598 26.8062 266.556 27.8467H261.82C261.861 28.3047 261.986 28.7209 262.236 29.0539ZM262.236 25.8488C262.028 26.1402 261.903 26.4732 261.861 26.8477H265.31C265.269 26.4732 265.186 26.0986 264.978 25.8072C264.687 25.3909 264.146 25.2244 263.648 25.2244C263.108 25.2244 262.568 25.3909 262.236 25.8488Z" fill="#033E4F"/>
<path d="M273.371 27.597V30.6772H272.125V27.6387C272.125 26.8062 272.042 26.0985 271.543 25.6407C271.252 25.3909 270.878 25.2661 270.421 25.2661C270.089 25.3077 269.756 25.3909 269.507 25.5991C269.216 25.8072 269.05 26.1402 269.008 26.5564C268.925 26.931 268.925 27.3889 268.925 27.8467V30.6356H267.679V24.3087H268.759V25.0996L268.966 24.8498C269.382 24.3919 270.005 24.1838 270.587 24.1422C271.252 24.1006 271.959 24.2254 272.54 24.7249C273.33 25.4326 273.413 26.5147 273.371 27.597Z" fill="#033E4F"/>
<path d="M279.188 26.4315C279.064 26.1402 278.856 25.8072 278.606 25.599C278.357 25.3909 277.983 25.3077 277.65 25.3077C277.111 25.3077 276.612 25.5157 276.321 25.932C275.988 26.3482 275.905 26.931 275.905 27.5137C275.905 28.0965 276.03 28.6376 276.321 29.0538C276.612 29.4701 277.111 29.6782 277.65 29.6782C277.983 29.6782 278.357 29.595 278.606 29.3868C278.897 29.1787 279.022 28.929 279.147 28.596L280.393 28.8873C280.185 29.4285 279.853 29.9696 279.354 30.3026C278.814 30.6772 278.316 30.8021 277.609 30.8021C276.612 30.8021 275.823 30.4691 275.282 29.7615C274.742 29.0955 274.534 28.3046 274.534 27.4305C274.534 26.5564 274.742 25.7655 275.282 25.0995C275.864 24.3919 276.612 24.0589 277.609 24.0589C278.274 24.0589 278.731 24.1838 279.229 24.4752C279.77 24.8082 280.185 25.3077 280.352 26.0152L279.188 26.4315Z" fill="#033E4F"/>
<path d="M287 24.3087L284.217 31.7595C283.967 32.4254 283.717 32.9249 283.302 33.2579C282.928 33.5493 282.554 33.5493 281.847 33.5493V32.3422C282.222 32.3422 282.471 32.3422 282.678 32.1757C282.928 32.0092 283.053 31.7178 283.385 30.8853L280.768 24.3087H282.014L283.925 29.3036L285.754 24.3087H287Z" fill="#033E4F"/>
<path d="M230.364 42.8732C230.364 43.0813 230.323 43.3311 230.241 43.5392L231.32 44.5382L230.531 45.3707L229.658 44.5382C229.285 44.9128 228.827 45.1625 228.37 45.2874C227.996 45.4123 227.623 45.4539 227.248 45.4539C226.292 45.4539 225.461 45.1625 224.88 44.5798C224.423 44.0803 224.257 43.5392 224.215 42.8732C224.215 42.2488 224.382 41.6244 224.797 41.125C224.963 40.9168 225.213 40.7503 225.42 40.6255C224.921 40.0843 224.63 39.6265 224.63 38.9188C224.63 37.9615 225.171 37.129 226.044 36.796C226.459 36.6295 226.875 36.5879 227.248 36.5879C227.955 36.5879 228.661 36.796 229.118 37.2539C229.409 37.5453 229.617 37.8783 229.741 38.2528L228.537 38.5443C228.454 38.3361 228.329 38.1696 228.204 38.0448C227.955 37.8367 227.581 37.7534 227.248 37.7534C226.958 37.7534 226.75 37.795 226.5 37.9198C226.085 38.128 225.877 38.461 225.877 38.9605C225.877 39.3351 226.044 39.5848 226.292 39.8763C226.459 40.0428 226.667 40.2508 226.875 40.459L229.202 42.6234C229.202 42.4986 229.202 42.4153 229.202 42.2904V40.5838H231.154V41.6661H230.323V42.8732H230.364ZM226.376 41.4996C226.127 41.5828 225.919 41.7077 225.753 41.9158C225.586 42.1239 225.461 42.4569 225.461 42.7899C225.461 43.1646 225.586 43.4976 225.794 43.7057C226.085 44.0803 226.708 44.2468 227.248 44.2468C227.539 44.2468 227.83 44.2052 228.079 44.1219C228.412 43.9971 228.578 43.8306 228.744 43.7057L226.376 41.4996Z" fill="#033E4F"/>
<path d="M239.88 39.2518C239.672 38.7523 239.423 38.3777 238.966 38.0863C238.633 37.8782 238.218 37.7533 237.802 37.7533C237.387 37.7533 236.971 37.8366 236.681 38.0031C236.307 38.2112 236.099 38.5858 236.099 38.9188C236.099 39.127 236.182 39.3767 236.348 39.5016C236.556 39.7097 236.971 39.8762 237.429 40.0011L238.925 40.4173C239.589 40.6254 240.088 40.8336 240.462 41.2082C240.919 41.6661 241.21 42.2488 241.21 42.9147C241.21 43.6224 240.795 44.3717 240.171 44.7879C239.548 45.2042 238.758 45.329 237.927 45.329C236.805 45.329 235.932 45.0377 235.226 44.2052C234.811 43.7472 234.603 43.1645 234.478 42.665L235.725 42.3321C235.808 42.7482 235.932 43.1229 236.223 43.4559C236.598 43.9554 237.304 44.2052 237.969 44.2052C238.467 44.2052 239.091 44.0802 239.464 43.7889C239.797 43.5392 239.922 43.2062 239.922 42.8732C239.922 42.5817 239.797 42.3321 239.589 42.1239C239.34 41.9158 239.049 41.7493 238.675 41.6244L237.096 41.1666C236.515 41.0001 235.932 40.7503 235.517 40.3757C235.06 39.9594 234.853 39.3767 234.853 38.794C234.853 37.9615 235.392 37.1706 236.14 36.8376C236.723 36.5462 237.304 36.5046 237.886 36.5046C238.467 36.5046 239.091 36.6295 239.631 36.9208C240.337 37.3371 240.836 38.0031 241.168 38.8356L239.88 39.2518Z" fill="#033E4F"/>
<path d="M248.44 42.0823C248.44 42.9148 248.233 43.7473 247.733 44.4133C247.194 45.0793 246.404 45.4539 245.531 45.4539C244.825 45.4539 244.16 45.2458 243.661 44.7879V48.0763H242.415V38.9188H243.495V39.5016C243.994 39.0021 244.7 38.7108 245.49 38.7108C246.362 38.7108 247.193 39.0853 247.692 39.7098C248.233 40.4173 248.44 41.2498 248.44 42.0823ZM247.152 42.0823C247.152 41.458 247.027 40.8753 246.736 40.5006C246.404 40.0428 245.906 39.8346 245.323 39.8346C244.784 39.8346 244.326 40.0011 243.994 40.4173C243.661 40.8336 243.495 41.458 243.495 42.0823C243.495 42.7067 243.62 43.3311 243.994 43.7473C244.326 44.1219 244.825 44.3301 245.365 44.3301C245.906 44.3301 246.404 44.1219 246.736 43.6641C247.027 43.2894 247.152 42.7067 247.152 42.0823Z" fill="#033E4F"/>
<path d="M251.141 43.6641C251.431 44.0803 251.972 44.2884 252.512 44.2884C252.928 44.2884 253.301 44.2052 253.592 43.9971C253.883 43.7889 254.049 43.5808 254.174 43.2894L255.379 43.6641C255.13 44.2052 254.755 44.7047 254.257 44.996C253.759 45.2874 253.176 45.4539 252.595 45.4539C251.639 45.4539 250.725 45.0792 250.143 44.4132C249.645 43.7473 249.396 42.9564 249.396 42.1656C249.396 41.2915 249.645 40.4173 250.143 39.793C250.725 39.0853 251.598 38.7523 252.512 38.7523C253.426 38.7523 254.174 39.0853 254.755 39.7513C255.338 40.459 255.503 41.4163 255.462 42.4569H250.725C250.766 42.8732 250.85 43.3311 251.141 43.6641ZM251.141 40.459C250.933 40.7503 250.808 41.0833 250.766 41.4579H254.215C254.174 41.0833 254.091 40.7088 253.883 40.4173C253.592 40.0011 253.052 39.8346 252.512 39.8346C252.013 39.8346 251.473 40.0011 251.141 40.459Z" fill="#033E4F"/>
<path d="M261.03 41.0417C260.905 40.7503 260.698 40.4173 260.449 40.2092C260.199 40.0011 259.825 39.9178 259.493 39.9178C258.952 39.9178 258.454 40.126 258.163 40.5422C257.831 40.9585 257.748 41.5412 257.748 42.1239C257.748 42.7067 257.872 43.2478 258.163 43.6641C258.454 44.0803 258.952 44.2884 259.493 44.2884C259.825 44.2884 260.199 44.2052 260.449 43.9971C260.739 43.7889 260.864 43.5392 260.989 43.2062L262.235 43.4976C262.028 44.0387 261.695 44.5798 261.197 44.9128C260.656 45.2874 260.158 45.4122 259.451 45.4122C258.454 45.4122 257.664 45.0793 257.125 44.3717C256.584 43.7057 256.377 42.9148 256.377 42.0407C256.377 41.1666 256.584 40.3757 257.125 39.7097C257.706 39.0021 258.454 38.6692 259.451 38.6692C260.116 38.6692 260.573 38.794 261.072 39.0853C261.612 39.4183 262.028 39.9178 262.193 40.6255L261.03 41.0417Z" fill="#033E4F"/>
<path d="M264.604 37.9199H263.357V36.7128H264.604V37.9199ZM264.604 45.2874H263.357V38.9188H264.604V45.2874Z" fill="#033E4F"/>
<path d="M270.462 45.2874V44.3717C269.881 45.1626 269.133 45.4539 268.135 45.4539C266.889 45.4539 266.058 44.7047 266.058 43.4976C266.058 42.6651 266.39 42.0823 267.18 41.7077C267.969 41.3331 269.258 41.2082 270.337 41.0417C270.297 40.2925 269.756 39.8762 268.925 39.8762C268.26 39.8762 267.679 40.0843 267.18 40.5838L266.432 39.7513C267.096 39.0437 267.927 38.6692 269.008 38.6692C269.673 38.6692 270.337 38.9605 270.753 39.3351C271.335 39.8346 271.543 40.5838 271.543 41.3747V45.2457H270.462V45.2874ZM270.297 42.0407C269.589 42.1656 268.883 42.2904 268.385 42.3737C267.762 42.4986 267.221 42.8316 267.221 43.4143C267.221 43.9971 267.72 44.4133 268.343 44.4133C269.091 44.4133 269.714 44.0803 270.047 43.4976C270.337 43.0813 270.297 42.6234 270.297 42.0407Z" fill="#033E4F"/>
<path d="M274.078 36.6295H272.831V45.2874H274.078V36.6295Z" fill="#033E4F"/>
<path d="M277.443 42.7067C277.443 43.2062 277.402 43.6224 277.568 43.8722C277.734 44.1636 277.983 44.2884 278.274 44.2884C278.607 44.33 278.981 44.2884 279.313 44.2467V45.2874C278.856 45.4122 278.15 45.4122 277.693 45.329C277.111 45.2457 276.737 45.0377 276.446 44.5382C276.156 44.0387 276.196 43.4976 276.196 42.7899V39.9178H274.992V38.9188H276.196V37.129H277.402V38.9188H279.313V39.9178H277.402V42.7067H277.443Z" fill="#033E4F"/>
<path d="M286.377 38.9188L283.551 46.3697C283.302 47.0357 283.053 47.5352 282.637 47.8681C282.263 48.1595 281.889 48.1595 281.183 48.1595V46.9524C281.557 46.9524 281.806 46.9524 282.014 46.7859C282.263 46.6194 282.388 46.328 282.72 45.4955L280.102 38.9188H281.349L283.261 43.9138L285.088 38.9188H286.377Z" fill="#033E4F"/>
<path d="M231.777 57.3585C231.611 57.9828 231.32 58.5656 230.739 59.1068C230.033 59.7727 229.118 60.0641 228.079 60.0641C226.874 60.0641 225.794 59.6062 225.088 58.6905C224.422 57.8163 224.132 56.6925 224.132 55.6519C224.132 54.528 224.381 53.4458 225.088 52.5717C225.836 51.6559 226.874 51.1981 228.079 51.1981C229.118 51.1981 230.033 51.4894 230.739 52.1554C231.362 52.7382 231.695 53.4042 231.86 54.1118L230.614 54.2783C230.531 53.9453 230.364 53.5707 230.157 53.2793C229.658 52.6133 228.994 52.3636 228.162 52.3219C227.373 52.3219 226.584 52.6133 226.126 53.2793C225.628 53.9037 225.461 54.7362 225.461 55.5687C225.461 56.4012 225.586 57.192 226.126 57.858C226.584 58.524 227.373 58.8153 228.162 58.8153C228.994 58.8153 229.658 58.4823 230.157 57.858C230.364 57.6083 230.489 57.3168 230.614 56.9838L231.777 57.3585Z" fill="#033E4F"/>
<path d="M234.437 58.2326C234.728 58.6488 235.268 58.857 235.808 58.857C236.223 58.857 236.598 58.7738 236.888 58.5656C237.179 58.3575 237.346 58.1493 237.47 57.858L238.675 58.2326C238.425 58.7738 238.052 59.2733 237.553 59.5646C237.055 59.856 236.473 60.0225 235.891 60.0225C234.936 60.0225 234.021 59.6478 233.439 58.9818C232.941 58.3158 232.691 57.525 232.691 56.7342C232.691 55.86 232.941 54.9859 233.439 54.3615C234.021 53.6539 234.894 53.3209 235.808 53.3209C236.722 53.3209 237.47 53.6539 238.052 54.3199C238.633 55.0275 238.8 55.9849 238.758 57.0255H234.021C234.063 57.4833 234.146 57.8996 234.437 58.2326ZM234.437 55.0692C234.229 55.3605 234.105 55.6935 234.063 56.0682H237.511C237.47 55.6935 237.387 55.3189 237.179 55.0275C236.888 54.6113 236.348 54.4448 235.808 54.4448C235.268 54.4032 234.769 54.6113 234.437 55.0692Z" fill="#033E4F"/>
<path d="M245.572 56.7757V59.8559H244.326V56.8173C244.326 55.9849 244.243 55.2773 243.745 54.8194C243.453 54.5697 243.08 54.4448 242.622 54.4448C242.29 54.4864 241.958 54.5697 241.708 54.7778C241.418 54.9859 241.251 55.3189 241.21 55.7352C241.127 56.1098 241.127 56.5676 241.127 57.0255V59.8143H239.88V53.4458H240.96V54.2367L241.168 53.9869C241.583 53.529 242.207 53.3209 242.789 53.2793C243.453 53.2377 244.16 53.3625 244.742 53.862C245.531 54.6113 245.572 55.7352 245.572 56.7757Z" fill="#033E4F"/>
<path d="M248.606 57.3168C248.606 57.8163 248.564 58.2326 248.731 58.4823C248.897 58.7737 249.146 58.8986 249.437 58.8986C249.769 58.9402 250.143 58.8986 250.476 58.857V59.8976C250.019 60.0224 249.312 60.0224 248.856 59.9392C248.273 59.8559 247.9 59.6478 247.609 59.1483C247.317 58.6488 247.359 58.1077 247.359 57.4001V54.528H246.154V53.529H247.359V51.7392H248.564V53.529H250.476V54.528H248.564V57.3168H248.606Z" fill="#033E4F"/>
<path d="M252.928 58.2326C253.218 58.6488 253.759 58.857 254.299 58.857C254.715 58.857 255.088 58.7738 255.379 58.5656C255.67 58.3575 255.836 58.1493 255.961 57.858L257.166 58.2326C256.917 58.7738 256.542 59.2733 256.044 59.5646C255.546 59.856 254.963 60.0225 254.382 60.0225C253.426 60.0225 252.512 59.6478 251.93 58.9818C251.432 58.3158 251.182 57.525 251.182 56.7342C251.182 55.86 251.432 54.9859 251.93 54.3615C252.512 53.6539 253.384 53.3209 254.299 53.3209C255.213 53.3209 255.961 53.6539 256.542 54.3199C257.125 55.0275 257.29 55.9849 257.248 57.0255H252.512C252.553 57.4833 252.678 57.8996 252.928 58.2326ZM252.928 55.0692C252.72 55.3605 252.595 55.6935 252.553 56.0682H256.002C255.961 55.6935 255.878 55.3189 255.67 55.0275C255.379 54.6113 254.839 54.4448 254.299 54.4448C253.8 54.4032 253.26 54.6113 252.928 55.0692Z" fill="#033E4F"/>
<path d="M262.484 53.4874V54.6529C262.194 54.528 261.82 54.4864 261.445 54.528C260.947 54.5697 260.574 54.7362 260.324 54.9859C259.866 55.4022 259.825 55.9848 259.825 56.6925V59.8976H258.579V53.529H259.659V54.4447C259.784 54.195 259.991 53.9869 260.241 53.7787C260.614 53.4874 261.072 53.3625 261.529 53.3625C261.861 53.3209 262.194 53.3625 262.484 53.4874Z" fill="#033E4F"/>
<path d="M30.4995 8.24165C30.4995 8.78275 30.9565 9.24067 31.4967 9.24067C32.0369 9.24067 32.494 8.78275 32.494 8.24165C32.494 7.70054 32.0369 7.24266 31.4967 7.24266C30.9565 7.24266 30.4995 7.70054 30.4995 8.24165Z" fill="#F82D18"/>
<path d="M37.7293 8.24165C37.7293 8.78275 38.1863 9.24067 38.7265 9.24067C39.2667 9.24067 39.7238 8.78275 39.7238 8.24165C39.7238 7.70054 39.2667 7.24266 38.7265 7.24266C38.1863 7.24266 37.7293 7.70054 37.7293 8.24165Z" fill="#F82D18"/>
<path d="M31.3305 39.2518C31.3305 38.5027 30.7488 37.9199 30.0008 37.9199C29.2529 37.9199 28.6711 38.5027 28.6711 39.2518C28.6711 40.0011 29.2529 40.5838 30.0008 40.5838C30.7488 40.6255 31.3305 40.0011 31.3305 39.2518Z" fill="#F82D18"/>
<path d="M16.0391 25.932C16.0391 25.932 22.7705 26.9727 24.5157 32.1757C24.7235 32.8417 25.3884 33.2996 26.0947 33.2996H29.876C31.0394 33.2996 32.1197 33.7991 32.9092 34.6732L33.8649 35.7554C34.6129 36.6295 35.7347 37.129 36.8982 37.129H48.7406C49.6963 37.129 50.4442 38.0031 50.2365 38.9605L48.6575 47.66C48.242 49.9077 46.4136 51.6559 44.1283 51.9889L42.4247 52.2387C40.9704 52.4468 39.6822 53.2377 38.8096 54.4032L38.4772 54.861C37.1475 56.7342 36.6905 59.1067 37.2306 61.3544L39.1836 69.3047H84.8497L54.1007 34.8813L81.442 0H45.7073L45.6657 20.063C45.6657 20.063 42.2585 19.397 39.89 15.5676C39.4745 14.9432 38.8096 14.5686 38.1033 14.5686H32.4521C31.7458 14.5686 31.0809 14.9432 30.707 15.5259C28.3801 19.397 24.9312 20.063 24.9312 20.063V0H0V69.3047H16.0391V25.932Z" fill="#F82D18"/>
</g>
<defs>
<clipPath id="clip0_4_7598">
<rect width="287" height="70" fill="white"/>
</clipPath>
</defs>
</svg>
