<svg width="32" height="32" viewBox="0 0 32 32" fill="none" xmlns="http://www.w3.org/2000/svg">
<rect width="32" height="32" rx="4" fill="white"/>
<path d="M10.4441 13.3307C10.4441 13.3307 12.3093 13.6249 12.7928 15.0958C12.8504 15.284 13.0346 15.4135 13.2303 15.4135H14.278C14.6004 15.4135 14.8997 15.5547 15.1185 15.8018L15.3833 16.1077C15.5906 16.3548 15.9014 16.496 16.2238 16.496H19.5051C19.7699 16.496 19.9771 16.7431 19.9196 17.0138L19.482 19.4731C19.3669 20.1085 18.8603 20.6027 18.2271 20.6968L17.7551 20.7674C17.3521 20.8263 16.9952 21.0498 16.7534 21.3793L16.6613 21.5087C16.2929 22.0382 16.1662 22.709 16.3159 23.3443L16.857 25.5918H29.5102L20.9903 15.8606L28.566 6H18.6646L18.6531 11.6716C18.6531 11.6716 17.709 11.4834 17.0527 10.4008C16.9376 10.2243 16.7534 10.1184 16.5577 10.1184H14.9919C14.7961 10.1184 14.6119 10.2243 14.5083 10.389C13.8636 11.4834 12.908 11.6716 12.908 11.6716V6H6V25.5918H10.4441V13.3307Z" fill="#F82D18"/>
</svg>
