<svg width="18" height="18" viewBox="0 0 18 18" fill="none" xmlns="http://www.w3.org/2000/svg">
<g clip-path="url(#clip0_478_14777)">
<path d="M9.74998 0.749977C9.74998 0.551065 9.829 0.360299 9.96965 0.219647C10.1103 0.0789947 10.3011 -2.29772e-05 10.5 -2.29772e-05C12.4884 0.00216072 14.3948 0.793038 15.8009 2.19909C17.2069 3.60514 17.9978 5.51152 18 7.49998C18 7.69889 17.9209 7.88966 17.7803 8.03031C17.6396 8.17096 17.4489 8.24998 17.25 8.24998C17.0511 8.24998 16.8603 8.17096 16.7196 8.03031C16.579 7.88966 16.5 7.69889 16.5 7.49998C16.4982 5.90923 15.8655 4.38414 14.7406 3.25931C13.6158 2.13448 12.0907 1.50176 10.5 1.49998C10.3011 1.49998 10.1103 1.42096 9.96965 1.28031C9.829 1.13965 9.74998 0.948889 9.74998 0.749977ZM10.5 4.49998C11.2956 4.49998 12.0587 4.81605 12.6213 5.37866C13.1839 5.94127 13.5 6.70433 13.5 7.49998C13.5 7.69889 13.579 7.88966 13.7196 8.03031C13.8603 8.17096 14.0511 8.24998 14.25 8.24998C14.4489 8.24998 14.6396 8.17096 14.7803 8.03031C14.921 7.88966 15 7.69889 15 7.49998C14.9988 6.30687 14.5243 5.16297 13.6806 4.31931C12.837 3.47566 11.6931 3.00117 10.5 2.99998C10.3011 2.99998 10.1103 3.07899 9.96965 3.21965C9.829 3.3603 9.74998 3.55106 9.74998 3.74998C9.74998 3.94889 9.829 4.13966 9.96965 4.28031C10.1103 4.42096 10.3011 4.49998 10.5 4.49998ZM17.3197 12.5542C17.7544 12.9901 17.9984 13.5805 17.9984 14.196C17.9984 14.8115 17.7544 15.4019 17.3197 15.8377L16.6372 16.6245C10.4947 22.5052 -4.45276 7.56148 1.33724 1.39948L2.19974 0.649477C2.63606 0.226985 3.22118 -0.00673617 3.82851 -0.00112185C4.43584 0.00449248 5.01654 0.248991 5.44498 0.679477C5.46823 0.702727 6.85798 2.50798 6.85798 2.50798C7.27035 2.9412 7.49991 3.51667 7.49893 4.11478C7.49795 4.71288 7.26652 5.28761 6.85273 5.71948L5.98423 6.81148C6.46487 7.97931 7.17153 9.04066 8.06361 9.93455C8.95569 10.8284 10.0156 11.5372 11.1825 12.0202L12.2812 11.1465C12.7132 10.733 13.2878 10.5018 13.8857 10.501C14.4836 10.5002 15.0589 10.7297 15.492 11.142C15.492 11.142 17.2965 12.531 17.3197 12.5542ZM16.2877 13.6447C16.2877 13.6447 14.493 12.264 14.4697 12.2407C14.3152 12.0875 14.1064 12.0016 13.8888 12.0016C13.6713 12.0016 13.4625 12.0875 13.308 12.2407C13.2877 12.2617 11.775 13.467 11.775 13.467C11.673 13.5481 11.5517 13.6013 11.423 13.6213C11.2942 13.6413 11.1625 13.6274 11.0407 13.581C9.52907 13.0182 8.15603 12.137 7.01461 10.9973C5.87318 9.85754 4.99003 8.4858 4.42498 6.97498C4.37488 6.85157 4.35855 6.71704 4.37766 6.58523C4.39677 6.45342 4.45064 6.32907 4.53373 6.22498C4.53373 6.22498 5.73898 4.71148 5.75923 4.69198C5.91243 4.53747 5.99839 4.32869 5.99839 4.1111C5.99839 3.89352 5.91243 3.68474 5.75923 3.53023C5.73598 3.50773 4.35523 1.71148 4.35523 1.71148C4.19841 1.57086 3.99374 1.49555 3.78317 1.50099C3.5726 1.50643 3.37209 1.5922 3.22274 1.74073L2.36024 2.49073C-1.87126 7.57873 11.082 19.8135 15.5407 15.6L16.224 14.8125C16.3841 14.6642 16.4802 14.4594 16.4921 14.2415C16.504 14.0236 16.4307 13.8096 16.2877 13.6447Z" fill="#033E4F"/>
</g>
<defs>
<clipPath id="clip0_478_14777">
<rect width="18" height="18" fill="white"/>
</clipPath>
</defs>
</svg>
