<svg width="20" height="20" viewBox="0 0 20 20" fill="none" xmlns="http://www.w3.org/2000/svg">
<rect width="20" height="20" rx="10" fill="#FBD7D3"/>
<g clip-path="url(#clip0_40_9068)">
<path d="M11.6667 8.33336C11.5885 8.25525 11.4826 8.21136 11.3721 8.21136C11.2616 8.21136 11.1556 8.25525 11.0775 8.33336L10 9.41086L8.9225 8.33336C8.84391 8.25746 8.73866 8.21546 8.62942 8.21641C8.52017 8.21736 8.41566 8.26118 8.33841 8.33843C8.26115 8.41569 8.21733 8.52019 8.21639 8.62944C8.21544 8.73869 8.25743 8.84394 8.33333 8.92253L9.41083 10L8.33333 11.0775C8.25743 11.1561 8.21544 11.2614 8.21639 11.3706C8.21733 11.4799 8.26115 11.5844 8.33841 11.6616C8.41566 11.7389 8.52017 11.7827 8.62942 11.7836C8.73866 11.7846 8.84391 11.7426 8.9225 11.6667L10 10.5892L11.0775 11.6667C11.1561 11.7426 11.2613 11.7846 11.3706 11.7836C11.4798 11.7827 11.5843 11.7389 11.6616 11.6616C11.7388 11.5844 11.7827 11.4799 11.7836 11.3706C11.7846 11.2614 11.7426 11.1561 11.6667 11.0775L10.5892 10L11.6667 8.92253C11.7448 8.84439 11.7887 8.73843 11.7887 8.62794C11.7887 8.51746 11.7448 8.4115 11.6667 8.33336Z" fill="#E4432D"/>
<path d="M10 5C9.0111 5 8.0444 5.29324 7.22215 5.84265C6.39991 6.39206 5.75904 7.17295 5.3806 8.08658C5.00217 9.00021 4.90315 10.0055 5.09608 10.9755C5.289 11.9454 5.76521 12.8363 6.46447 13.5355C7.16373 14.2348 8.05465 14.711 9.02455 14.9039C9.99446 15.0969 10.9998 14.9978 11.9134 14.6194C12.827 14.241 13.6079 13.6001 14.1573 12.7779C14.7068 11.9556 15 10.9889 15 10C14.9986 8.67436 14.4713 7.40342 13.534 6.46605C12.5966 5.52868 11.3256 5.00143 10 5V5ZM10 14.1667C9.17591 14.1667 8.37033 13.9223 7.68513 13.4645C6.99992 13.0066 6.46587 12.3559 6.1505 11.5945C5.83514 10.8332 5.75263 9.99538 5.9134 9.18712C6.07417 8.37887 6.47101 7.63644 7.05372 7.05372C7.63644 6.471 8.37887 6.07417 9.18713 5.91339C9.99538 5.75262 10.8332 5.83514 11.5945 6.1505C12.3559 6.46587 13.0066 6.99992 13.4645 7.68512C13.9223 8.37033 14.1667 9.17591 14.1667 10C14.1655 11.1047 13.7261 12.1638 12.9449 12.9449C12.1638 13.7261 11.1047 14.1655 10 14.1667Z" fill="#E4432D"/>
</g>
<defs>
<clipPath id="clip0_40_9068">
<rect width="10" height="10" fill="white" transform="translate(5 5)"/>
</clipPath>
</defs>
</svg>
