<svg width="80" height="80" viewBox="0 0 80 80" fill="none" xmlns="http://www.w3.org/2000/svg">
<rect width="80" height="80" rx="16" fill="#9CEDED"/>
<path d="M52.9502 33.0037L43.8307 42.1232C42.8138 43.1374 41.4362 43.707 40 43.707C38.5638 43.707 37.1862 43.1374 36.1693 42.1232L27.0498 33.0037C27.0347 33.1748 27 33.3297 27 33.4998V46.4998C27.0017 47.9359 27.573 49.3126 28.5884 50.3281C29.6039 51.3435 30.9806 51.9148 32.4167 51.9165H47.5833C49.0194 51.9148 50.3961 51.3435 51.4116 50.3281C52.427 49.3126 52.9983 47.9359 53 46.4998V33.4998C53 33.3297 52.9653 33.1748 52.9502 33.0037Z" fill="#033E4F"/>
<path d="M42.2985 40.5913L52.1937 30.6951C51.7143 29.9003 51.0382 29.2424 50.2306 28.7849C49.423 28.3274 48.5112 28.0857 47.583 28.0832H32.4163C31.4882 28.0857 30.5763 28.3274 29.7687 28.7849C28.9611 29.2424 28.285 29.9003 27.8057 30.6951L37.7008 40.5913C38.3114 41.1994 39.138 41.5408 39.9997 41.5408C40.8614 41.5408 41.688 41.1994 42.2985 40.5913Z" fill="#033E4F"/>
<rect opacity="0.2" width="80" height="80" rx="12" fill="#9DEEEE"/>
</svg>
