<svg width="12" height="12" viewBox="0 0 12 12" fill="none" xmlns="http://www.w3.org/2000/svg">
<path d="M5.13333 11.0833C4.87083 11.0833 4.62049 11.0274 4.38229 10.9156C4.1441 10.8038 3.94236 10.6458 3.77708 10.4417L0 5.78958L0.379167 5.425C0.563889 5.24028 0.782639 5.13333 1.03542 5.10417C1.28819 5.075 1.51667 5.13333 1.72083 5.27917L3.4125 6.46042V0.583333C3.4125 0.418056 3.4684 0.279514 3.58021 0.167708C3.69201 0.0559028 3.83056 0 3.99583 0C4.16111 0 4.29965 0.0559028 4.41146 0.167708C4.52326 0.279514 4.57917 0.418056 4.57917 0.583333V8.70625L2.96042 7.56875L4.68125 9.69792C4.73958 9.76597 4.80764 9.81944 4.88542 9.85833C4.96319 9.89722 5.04583 9.91667 5.13333 9.91667H9.24583C9.56667 9.91667 9.84132 9.80243 10.0698 9.57396C10.2983 9.34549 10.4125 9.07083 10.4125 8.75V4.66667C10.4125 4.50139 10.4684 4.36285 10.5802 4.25104C10.692 4.13924 10.8306 4.08333 10.9958 4.08333C11.1611 4.08333 11.2997 4.13924 11.4115 4.25104C11.5233 4.36285 11.5792 4.50139 11.5792 4.66667V8.75C11.5792 9.39167 11.3507 9.94097 10.8938 10.3979C10.4368 10.8549 9.8875 11.0833 9.24583 11.0833H5.13333ZM5.74583 6.41667V2.91667C5.74583 2.75139 5.80174 2.61285 5.91354 2.50104C6.02535 2.38924 6.16389 2.33333 6.32917 2.33333C6.49444 2.33333 6.63299 2.38924 6.74479 2.50104C6.8566 2.61285 6.9125 2.75139 6.9125 2.91667V6.41667H5.74583ZM8.07917 6.41667V3.5C8.07917 3.33472 8.13507 3.19618 8.24687 3.08437C8.35868 2.97257 8.49722 2.91667 8.6625 2.91667C8.82778 2.91667 8.96632 2.97257 9.07812 3.08437C9.18993 3.19618 9.24583 3.33472 9.24583 3.5V6.41667H8.07917Z" fill="white"/>
</svg>
