<svg width="40" height="40" viewBox="0 0 40 40" fill="none" xmlns="http://www.w3.org/2000/svg">
<path d="M31.6667 36.6677H8.33333C6.12401 36.665 4.00593 35.7862 2.4437 34.224C0.88147 32.6618 0.00264643 30.5437 0 28.3344L0 11.6677C0.00264643 9.45836 0.88147 7.34028 2.4437 5.77805C4.00593 4.21582 6.12401 3.337 8.33333 3.33435H31.6667C33.876 3.337 35.9941 4.21582 37.5563 5.77805C39.1185 7.34028 39.9974 9.45836 40 11.6677V28.3344C39.9974 30.5437 39.1185 32.6618 37.5563 34.224C35.9941 35.7862 33.876 36.665 31.6667 36.6677ZM8.33333 6.66768C7.00725 6.66768 5.73548 7.19447 4.7978 8.13215C3.86012 9.06983 3.33333 10.3416 3.33333 11.6677V28.3344C3.33333 29.6604 3.86012 30.9322 4.7978 31.8699C5.73548 32.8076 7.00725 33.3344 8.33333 33.3344H31.6667C32.9927 33.3344 34.2645 32.8076 35.2022 31.8699C36.1399 30.9322 36.6667 29.6604 36.6667 28.3344V11.6677C36.6667 10.3416 36.1399 9.06983 35.2022 8.13215C34.2645 7.19447 32.9927 6.66768 31.6667 6.66768H8.33333Z" fill="black"/>
<path d="M31.6667 36.6677H8.33333C6.12401 36.665 4.00593 35.7862 2.4437 34.224C0.88147 32.6618 0.00264643 30.5437 0 28.3344L0 11.6677C0.00264643 9.45836 0.88147 7.34028 2.4437 5.77805C4.00593 4.21582 6.12401 3.337 8.33333 3.33435H31.6667C33.876 3.337 35.9941 4.21582 37.5563 5.77805C39.1185 7.34028 39.9974 9.45836 40 11.6677V28.3344C39.9974 30.5437 39.1185 32.6618 37.5563 34.224C35.9941 35.7862 33.876 36.665 31.6667 36.6677ZM8.33333 6.66768C7.00725 6.66768 5.73548 7.19447 4.7978 8.13215C3.86012 9.06983 3.33333 10.3416 3.33333 11.6677V28.3344C3.33333 29.6604 3.86012 30.9322 4.7978 31.8699C5.73548 32.8076 7.00725 33.3344 8.33333 33.3344H31.6667C32.9927 33.3344 34.2645 32.8076 35.2022 31.8699C36.1399 30.9322 36.6667 29.6604 36.6667 28.3344V11.6677C36.6667 10.3416 36.1399 9.06983 35.2022 8.13215C34.2645 7.19447 32.9927 6.66768 31.6667 6.66768H8.33333Z" fill="black" fill-opacity="0.2"/>
<path d="M31.6667 36.6677H8.33333C6.12401 36.665 4.00593 35.7862 2.4437 34.224C0.88147 32.6618 0.00264643 30.5437 0 28.3344L0 11.6677C0.00264643 9.45836 0.88147 7.34028 2.4437 5.77805C4.00593 4.21582 6.12401 3.337 8.33333 3.33435H31.6667C33.876 3.337 35.9941 4.21582 37.5563 5.77805C39.1185 7.34028 39.9974 9.45836 40 11.6677V28.3344C39.9974 30.5437 39.1185 32.6618 37.5563 34.224C35.9941 35.7862 33.876 36.665 31.6667 36.6677ZM8.33333 6.66768C7.00725 6.66768 5.73548 7.19447 4.7978 8.13215C3.86012 9.06983 3.33333 10.3416 3.33333 11.6677V28.3344C3.33333 29.6604 3.86012 30.9322 4.7978 31.8699C5.73548 32.8076 7.00725 33.3344 8.33333 33.3344H31.6667C32.9927 33.3344 34.2645 32.8076 35.2022 31.8699C36.1399 30.9322 36.6667 29.6604 36.6667 28.3344V11.6677C36.6667 10.3416 36.1399 9.06983 35.2022 8.13215C34.2645 7.19447 32.9927 6.66768 31.6667 6.66768H8.33333Z" fill="black" fill-opacity="0.2"/>
<path d="M31.6667 36.6677H8.33333C6.12401 36.665 4.00593 35.7862 2.4437 34.224C0.88147 32.6618 0.00264643 30.5437 0 28.3344L0 11.6677C0.00264643 9.45836 0.88147 7.34028 2.4437 5.77805C4.00593 4.21582 6.12401 3.337 8.33333 3.33435H31.6667C33.876 3.337 35.9941 4.21582 37.5563 5.77805C39.1185 7.34028 39.9974 9.45836 40 11.6677V28.3344C39.9974 30.5437 39.1185 32.6618 37.5563 34.224C35.9941 35.7862 33.876 36.665 31.6667 36.6677ZM8.33333 6.66768C7.00725 6.66768 5.73548 7.19447 4.7978 8.13215C3.86012 9.06983 3.33333 10.3416 3.33333 11.6677V28.3344C3.33333 29.6604 3.86012 30.9322 4.7978 31.8699C5.73548 32.8076 7.00725 33.3344 8.33333 33.3344H31.6667C32.9927 33.3344 34.2645 32.8076 35.2022 31.8699C36.1399 30.9322 36.6667 29.6604 36.6667 28.3344V11.6677C36.6667 10.3416 36.1399 9.06983 35.2022 8.13215C34.2645 7.19447 32.9927 6.66768 31.6667 6.66768H8.33333Z" fill="black" fill-opacity="0.2"/>
<path d="M31.6667 36.6677H8.33333C6.12401 36.665 4.00593 35.7862 2.4437 34.224C0.88147 32.6618 0.00264643 30.5437 0 28.3344L0 11.6677C0.00264643 9.45836 0.88147 7.34028 2.4437 5.77805C4.00593 4.21582 6.12401 3.337 8.33333 3.33435H31.6667C33.876 3.337 35.9941 4.21582 37.5563 5.77805C39.1185 7.34028 39.9974 9.45836 40 11.6677V28.3344C39.9974 30.5437 39.1185 32.6618 37.5563 34.224C35.9941 35.7862 33.876 36.665 31.6667 36.6677ZM8.33333 6.66768C7.00725 6.66768 5.73548 7.19447 4.7978 8.13215C3.86012 9.06983 3.33333 10.3416 3.33333 11.6677V28.3344C3.33333 29.6604 3.86012 30.9322 4.7978 31.8699C5.73548 32.8076 7.00725 33.3344 8.33333 33.3344H31.6667C32.9927 33.3344 34.2645 32.8076 35.2022 31.8699C36.1399 30.9322 36.6667 29.6604 36.6667 28.3344V11.6677C36.6667 10.3416 36.1399 9.06983 35.2022 8.13215C34.2645 7.19447 32.9927 6.66768 31.6667 6.66768H8.33333Z" fill="black" fill-opacity="0.2"/>
<path d="M31.666 21.6677H18.3327C17.8907 21.6677 17.4667 21.4921 17.1542 21.1795C16.8416 20.867 16.666 20.4431 16.666 20.001C16.666 19.559 16.8416 19.1351 17.1542 18.8225C17.4667 18.5099 17.8907 18.3344 18.3327 18.3344H31.666C32.108 18.3344 32.532 18.5099 32.8445 18.8225C33.1571 19.1351 33.3327 19.559 33.3327 20.001C33.3327 20.4431 33.1571 20.867 32.8445 21.1795C32.532 21.4921 32.108 21.6677 31.666 21.6677Z" fill="black"/>
<path d="M31.666 21.6677H18.3327C17.8907 21.6677 17.4667 21.4921 17.1542 21.1795C16.8416 20.867 16.666 20.4431 16.666 20.001C16.666 19.559 16.8416 19.1351 17.1542 18.8225C17.4667 18.5099 17.8907 18.3344 18.3327 18.3344H31.666C32.108 18.3344 32.532 18.5099 32.8445 18.8225C33.1571 19.1351 33.3327 19.559 33.3327 20.001C33.3327 20.4431 33.1571 20.867 32.8445 21.1795C32.532 21.4921 32.108 21.6677 31.666 21.6677Z" fill="black" fill-opacity="0.2"/>
<path d="M31.666 21.6677H18.3327C17.8907 21.6677 17.4667 21.4921 17.1542 21.1795C16.8416 20.867 16.666 20.4431 16.666 20.001C16.666 19.559 16.8416 19.1351 17.1542 18.8225C17.4667 18.5099 17.8907 18.3344 18.3327 18.3344H31.666C32.108 18.3344 32.532 18.5099 32.8445 18.8225C33.1571 19.1351 33.3327 19.559 33.3327 20.001C33.3327 20.4431 33.1571 20.867 32.8445 21.1795C32.532 21.4921 32.108 21.6677 31.666 21.6677Z" fill="black" fill-opacity="0.2"/>
<path d="M31.666 21.6677H18.3327C17.8907 21.6677 17.4667 21.4921 17.1542 21.1795C16.8416 20.867 16.666 20.4431 16.666 20.001C16.666 19.559 16.8416 19.1351 17.1542 18.8225C17.4667 18.5099 17.8907 18.3344 18.3327 18.3344H31.666C32.108 18.3344 32.532 18.5099 32.8445 18.8225C33.1571 19.1351 33.3327 19.559 33.3327 20.001C33.3327 20.4431 33.1571 20.867 32.8445 21.1795C32.532 21.4921 32.108 21.6677 31.666 21.6677Z" fill="black" fill-opacity="0.2"/>
<path d="M31.666 21.6677H18.3327C17.8907 21.6677 17.4667 21.4921 17.1542 21.1795C16.8416 20.867 16.666 20.4431 16.666 20.001C16.666 19.559 16.8416 19.1351 17.1542 18.8225C17.4667 18.5099 17.8907 18.3344 18.3327 18.3344H31.666C32.108 18.3344 32.532 18.5099 32.8445 18.8225C33.1571 19.1351 33.3327 19.559 33.3327 20.001C33.3327 20.4431 33.1571 20.867 32.8445 21.1795C32.532 21.4921 32.108 21.6677 31.666 21.6677Z" fill="black" fill-opacity="0.2"/>
<path d="M11.667 21.6677H8.33366C7.89163 21.6677 7.46771 21.4921 7.15515 21.1795C6.84259 20.867 6.66699 20.4431 6.66699 20.001C6.66699 19.559 6.84259 19.1351 7.15515 18.8225C7.46771 18.5099 7.89163 18.3344 8.33366 18.3344H11.667C12.109 18.3344 12.5329 18.5099 12.8455 18.8225C13.1581 19.1351 13.3336 19.559 13.3336 20.001C13.3336 20.4431 13.1581 20.867 12.8455 21.1795C12.5329 21.4921 12.109 21.6677 11.667 21.6677Z" fill="black"/>
<path d="M11.667 21.6677H8.33366C7.89163 21.6677 7.46771 21.4921 7.15515 21.1795C6.84259 20.867 6.66699 20.4431 6.66699 20.001C6.66699 19.559 6.84259 19.1351 7.15515 18.8225C7.46771 18.5099 7.89163 18.3344 8.33366 18.3344H11.667C12.109 18.3344 12.5329 18.5099 12.8455 18.8225C13.1581 19.1351 13.3336 19.559 13.3336 20.001C13.3336 20.4431 13.1581 20.867 12.8455 21.1795C12.5329 21.4921 12.109 21.6677 11.667 21.6677Z" fill="black" fill-opacity="0.2"/>
<path d="M11.667 21.6677H8.33366C7.89163 21.6677 7.46771 21.4921 7.15515 21.1795C6.84259 20.867 6.66699 20.4431 6.66699 20.001C6.66699 19.559 6.84259 19.1351 7.15515 18.8225C7.46771 18.5099 7.89163 18.3344 8.33366 18.3344H11.667C12.109 18.3344 12.5329 18.5099 12.8455 18.8225C13.1581 19.1351 13.3336 19.559 13.3336 20.001C13.3336 20.4431 13.1581 20.867 12.8455 21.1795C12.5329 21.4921 12.109 21.6677 11.667 21.6677Z" fill="black" fill-opacity="0.2"/>
<path d="M11.667 21.6677H8.33366C7.89163 21.6677 7.46771 21.4921 7.15515 21.1795C6.84259 20.867 6.66699 20.4431 6.66699 20.001C6.66699 19.559 6.84259 19.1351 7.15515 18.8225C7.46771 18.5099 7.89163 18.3344 8.33366 18.3344H11.667C12.109 18.3344 12.5329 18.5099 12.8455 18.8225C13.1581 19.1351 13.3336 19.559 13.3336 20.001C13.3336 20.4431 13.1581 20.867 12.8455 21.1795C12.5329 21.4921 12.109 21.6677 11.667 21.6677Z" fill="black" fill-opacity="0.2"/>
<path d="M11.667 21.6677H8.33366C7.89163 21.6677 7.46771 21.4921 7.15515 21.1795C6.84259 20.867 6.66699 20.4431 6.66699 20.001C6.66699 19.559 6.84259 19.1351 7.15515 18.8225C7.46771 18.5099 7.89163 18.3344 8.33366 18.3344H11.667C12.109 18.3344 12.5329 18.5099 12.8455 18.8225C13.1581 19.1351 13.3336 19.559 13.3336 20.001C13.3336 20.4431 13.1581 20.867 12.8455 21.1795C12.5329 21.4921 12.109 21.6677 11.667 21.6677Z" fill="black" fill-opacity="0.2"/>
<path d="M21.667 29.999H8.33366C7.89163 29.999 7.46771 29.8234 7.15515 29.5108C6.84259 29.1983 6.66699 28.7744 6.66699 28.3323C6.66699 27.8903 6.84259 27.4664 7.15515 27.1538C7.46771 26.8412 7.89163 26.6656 8.33366 26.6656H21.667C22.109 26.6656 22.5329 26.8412 22.8455 27.1538C23.1581 27.4664 23.3337 27.8903 23.3337 28.3323C23.3337 28.7744 23.1581 29.1983 22.8455 29.5108C22.5329 29.8234 22.109 29.999 21.667 29.999Z" fill="black"/>
<path d="M21.667 29.999H8.33366C7.89163 29.999 7.46771 29.8234 7.15515 29.5108C6.84259 29.1983 6.66699 28.7744 6.66699 28.3323C6.66699 27.8903 6.84259 27.4664 7.15515 27.1538C7.46771 26.8412 7.89163 26.6656 8.33366 26.6656H21.667C22.109 26.6656 22.5329 26.8412 22.8455 27.1538C23.1581 27.4664 23.3337 27.8903 23.3337 28.3323C23.3337 28.7744 23.1581 29.1983 22.8455 29.5108C22.5329 29.8234 22.109 29.999 21.667 29.999Z" fill="black" fill-opacity="0.2"/>
<path d="M21.667 29.999H8.33366C7.89163 29.999 7.46771 29.8234 7.15515 29.5108C6.84259 29.1983 6.66699 28.7744 6.66699 28.3323C6.66699 27.8903 6.84259 27.4664 7.15515 27.1538C7.46771 26.8412 7.89163 26.6656 8.33366 26.6656H21.667C22.109 26.6656 22.5329 26.8412 22.8455 27.1538C23.1581 27.4664 23.3337 27.8903 23.3337 28.3323C23.3337 28.7744 23.1581 29.1983 22.8455 29.5108C22.5329 29.8234 22.109 29.999 21.667 29.999Z" fill="black" fill-opacity="0.2"/>
<path d="M21.667 29.999H8.33366C7.89163 29.999 7.46771 29.8234 7.15515 29.5108C6.84259 29.1983 6.66699 28.7744 6.66699 28.3323C6.66699 27.8903 6.84259 27.4664 7.15515 27.1538C7.46771 26.8412 7.89163 26.6656 8.33366 26.6656H21.667C22.109 26.6656 22.5329 26.8412 22.8455 27.1538C23.1581 27.4664 23.3337 27.8903 23.3337 28.3323C23.3337 28.7744 23.1581 29.1983 22.8455 29.5108C22.5329 29.8234 22.109 29.999 21.667 29.999Z" fill="black" fill-opacity="0.2"/>
<path d="M21.667 29.999H8.33366C7.89163 29.999 7.46771 29.8234 7.15515 29.5108C6.84259 29.1983 6.66699 28.7744 6.66699 28.3323C6.66699 27.8903 6.84259 27.4664 7.15515 27.1538C7.46771 26.8412 7.89163 26.6656 8.33366 26.6656H21.667C22.109 26.6656 22.5329 26.8412 22.8455 27.1538C23.1581 27.4664 23.3337 27.8903 23.3337 28.3323C23.3337 28.7744 23.1581 29.1983 22.8455 29.5108C22.5329 29.8234 22.109 29.999 21.667 29.999Z" fill="black" fill-opacity="0.2"/>
<path d="M31.666 29.999H28.3327C27.8907 29.999 27.4667 29.8234 27.1542 29.5108C26.8416 29.1983 26.666 28.7744 26.666 28.3323C26.666 27.8903 26.8416 27.4664 27.1542 27.1538C27.4667 26.8412 27.8907 26.6656 28.3327 26.6656H31.666C32.108 26.6656 32.532 26.8412 32.8445 27.1538C33.1571 27.4664 33.3327 27.8903 33.3327 28.3323C33.3327 28.7744 33.1571 29.1983 32.8445 29.5108C32.532 29.8234 32.108 29.999 31.666 29.999Z" fill="black"/>
<path d="M31.666 29.999H28.3327C27.8907 29.999 27.4667 29.8234 27.1542 29.5108C26.8416 29.1983 26.666 28.7744 26.666 28.3323C26.666 27.8903 26.8416 27.4664 27.1542 27.1538C27.4667 26.8412 27.8907 26.6656 28.3327 26.6656H31.666C32.108 26.6656 32.532 26.8412 32.8445 27.1538C33.1571 27.4664 33.3327 27.8903 33.3327 28.3323C33.3327 28.7744 33.1571 29.1983 32.8445 29.5108C32.532 29.8234 32.108 29.999 31.666 29.999Z" fill="black" fill-opacity="0.2"/>
<path d="M31.666 29.999H28.3327C27.8907 29.999 27.4667 29.8234 27.1542 29.5108C26.8416 29.1983 26.666 28.7744 26.666 28.3323C26.666 27.8903 26.8416 27.4664 27.1542 27.1538C27.4667 26.8412 27.8907 26.6656 28.3327 26.6656H31.666C32.108 26.6656 32.532 26.8412 32.8445 27.1538C33.1571 27.4664 33.3327 27.8903 33.3327 28.3323C33.3327 28.7744 33.1571 29.1983 32.8445 29.5108C32.532 29.8234 32.108 29.999 31.666 29.999Z" fill="black" fill-opacity="0.2"/>
<path d="M31.666 29.999H28.3327C27.8907 29.999 27.4667 29.8234 27.1542 29.5108C26.8416 29.1983 26.666 28.7744 26.666 28.3323C26.666 27.8903 26.8416 27.4664 27.1542 27.1538C27.4667 26.8412 27.8907 26.6656 28.3327 26.6656H31.666C32.108 26.6656 32.532 26.8412 32.8445 27.1538C33.1571 27.4664 33.3327 27.8903 33.3327 28.3323C33.3327 28.7744 33.1571 29.1983 32.8445 29.5108C32.532 29.8234 32.108 29.999 31.666 29.999Z" fill="black" fill-opacity="0.2"/>
<path d="M31.666 29.999H28.3327C27.8907 29.999 27.4667 29.8234 27.1542 29.5108C26.8416 29.1983 26.666 28.7744 26.666 28.3323C26.666 27.8903 26.8416 27.4664 27.1542 27.1538C27.4667 26.8412 27.8907 26.6656 28.3327 26.6656H31.666C32.108 26.6656 32.532 26.8412 32.8445 27.1538C33.1571 27.4664 33.3327 27.8903 33.3327 28.3323C33.3327 28.7744 33.1571 29.1983 32.8445 29.5108C32.532 29.8234 32.108 29.999 31.666 29.999Z" fill="black" fill-opacity="0.2"/>
</svg>
