<svg width="20" height="20" viewBox="0 0 20 20" fill="none" xmlns="http://www.w3.org/2000/svg">
<path d="M6.66667 5.00008C7.58714 5.00008 8.33333 4.25389 8.33333 3.33341C8.33333 2.41294 7.58714 1.66675 6.66667 1.66675C5.74619 1.66675 5 2.41294 5 3.33341C5 4.25389 5.74619 5.00008 6.66667 5.00008Z" fill="#BCBCBC"/>
<path d="M6.66667 11.6666C7.58714 11.6666 8.33333 10.9204 8.33333 9.99992C8.33333 9.07944 7.58714 8.33325 6.66667 8.33325C5.74619 8.33325 5 9.07944 5 9.99992C5 10.9204 5.74619 11.6666 6.66667 11.6666Z" fill="#BCBCBC"/>
<path d="M6.66667 18.3333C7.58714 18.3333 8.33333 17.5871 8.33333 16.6667C8.33333 15.7462 7.58714 15 6.66667 15C5.74619 15 5 15.7462 5 16.6667C5 17.5871 5.74619 18.3333 6.66667 18.3333Z" fill="#BCBCBC"/>
<path d="M13.3334 5.00008C14.2539 5.00008 15.0001 4.25389 15.0001 3.33341C15.0001 2.41294 14.2539 1.66675 13.3334 1.66675C12.4129 1.66675 11.6667 2.41294 11.6667 3.33341C11.6667 4.25389 12.4129 5.00008 13.3334 5.00008Z" fill="#BCBCBC"/>
<path d="M13.3334 11.6666C14.2539 11.6666 15.0001 10.9204 15.0001 9.99992C15.0001 9.07944 14.2539 8.33325 13.3334 8.33325C12.4129 8.33325 11.6667 9.07944 11.6667 9.99992C11.6667 10.9204 12.4129 11.6666 13.3334 11.6666Z" fill="#BCBCBC"/>
<path d="M13.3334 18.3333C14.2539 18.3333 15.0001 17.5871 15.0001 16.6667C15.0001 15.7462 14.2539 15 13.3334 15C12.4129 15 11.6667 15.7462 11.6667 16.6667C11.6667 17.5871 12.4129 18.3333 13.3334 18.3333Z" fill="#BCBCBC"/>
</svg>
