<svg width="20" height="20" viewBox="0 0 20 20" fill="none" xmlns="http://www.w3.org/2000/svg">
<g clip-path="url(#clip0_671_4167)">
<path d="M0.976667 15.9321C0.351502 16.5571 0.000188791 17.4048 0 18.2888L0 19.9996H1.71083C2.59482 19.9994 3.44252 19.6481 4.0675 19.023L15.1867 7.90382L12.0958 4.81299L0.976667 15.9321Z" fill="white"/>
<path d="M19.2877 0.712555C19.0848 0.509417 18.8438 0.348268 18.5786 0.238319C18.3134 0.12837 18.029 0.0717773 17.7419 0.0717773C17.4548 0.0717773 17.1705 0.12837 16.9052 0.238319C16.64 0.348268 16.399 0.509417 16.1961 0.712555L13.2744 3.63505L16.3652 6.72589L19.2877 3.80422C19.4909 3.6013 19.652 3.36032 19.762 3.09508C19.8719 2.82983 19.9285 2.54552 19.9285 2.25839C19.9285 1.97126 19.8719 1.68694 19.762 1.4217C19.652 1.15645 19.4909 0.91548 19.2877 0.712555V0.712555Z" fill="white"/>
</g>
<defs>
<clipPath id="clip0_671_4167">
<rect width="20" height="20" fill="white"/>
</clipPath>
</defs>
</svg>
