<svg width="80" height="80" viewBox="0 0 80 80" fill="none" xmlns="http://www.w3.org/2000/svg">
<rect width="80" height="80" rx="16" fill="#E4432D" fill-opacity="0.1"/>
<path d="M40 46.5C40.3683 46.5 40.6771 46.3754 40.9262 46.1262C41.1754 45.8771 41.3 45.5683 41.3 45.2C41.3 44.8317 41.1754 44.5229 40.9262 44.2738C40.6771 44.0246 40.3683 43.9 40 43.9C39.6317 43.9 39.3229 44.0246 39.0738 44.2738C38.8246 44.5229 38.7 44.8317 38.7 45.2C38.7 45.5683 38.8246 45.8771 39.0738 46.1262C39.3229 46.3754 39.6317 46.5 40 46.5ZM38.7 41.3H41.3V33.5H38.7V41.3ZM40 53C38.2017 53 36.5117 52.6587 34.93 51.9762C33.3483 51.2937 31.9725 50.3675 30.8025 49.1975C29.6325 48.0275 28.7062 46.6517 28.0237 45.07C27.3413 43.4883 27 41.7983 27 40C27 38.2017 27.3413 36.5117 28.0237 34.93C28.7062 33.3483 29.6325 31.9725 30.8025 30.8025C31.9725 29.6325 33.3483 28.7062 34.93 28.0237C36.5117 27.3413 38.2017 27 40 27C41.7983 27 43.4883 27.3413 45.07 28.0237C46.6517 28.7062 48.0275 29.6325 49.1975 30.8025C50.3675 31.9725 51.2937 33.3483 51.9762 34.93C52.6587 36.5117 53 38.2017 53 40C53 41.7983 52.6587 43.4883 51.9762 45.07C51.2937 46.6517 50.3675 48.0275 49.1975 49.1975C48.0275 50.3675 46.6517 51.2937 45.07 51.9762C43.4883 52.6587 41.7983 53 40 53Z" fill="#E4432D"/>
</svg>
