<svg width="19" height="13" viewBox="0 0 19 13" fill="none" xmlns="http://www.w3.org/2000/svg">
<path d="M9.16667 10C10.2083 10 11.0938 9.63542 11.8229 8.90625C12.5521 8.17708 12.9167 7.29167 12.9167 6.25C12.9167 5.20833 12.5521 4.32292 11.8229 3.59375C11.0938 2.86458 10.2083 2.5 9.16667 2.5C8.125 2.5 7.23958 2.86458 6.51042 3.59375C5.78125 4.32292 5.41667 5.20833 5.41667 6.25C5.41667 7.29167 5.78125 8.17708 6.51042 8.90625C7.23958 9.63542 8.125 10 9.16667 10V10M9.16667 8.5C8.54167 8.5 8.01042 8.28125 7.57292 7.84375C7.13542 7.40625 6.91667 6.875 6.91667 6.25C6.91667 5.625 7.13542 5.09375 7.57292 4.65625C8.01042 4.21875 8.54167 4 9.16667 4C9.79167 4 10.3229 4.21875 10.7604 4.65625C11.1979 5.09375 11.4167 5.625 11.4167 6.25C11.4167 6.875 11.1979 7.40625 10.7604 7.84375C10.3229 8.28125 9.79167 8.5 9.16667 8.5V8.5M9.16667 12.5C7.13889 12.5 5.29167 11.934 3.625 10.8021C1.95833 9.67014 0.75 8.15278 0 6.25C0.75 4.34722 1.95833 2.82986 3.625 1.69792C5.29167 0.565972 7.13889 0 9.16667 0C11.1944 0 13.0417 0.565972 14.7083 1.69792C16.375 2.82986 17.5833 4.34722 18.3333 6.25C17.5833 8.15278 16.375 9.67014 14.7083 10.8021C13.0417 11.934 11.1944 12.5 9.16667 12.5V12.5M9.16667 6.25V6.25V6.25V6.25V6.25V6.25V6.25V6.25V6.25V6.25M9.16667 10.8333C10.7361 10.8333 12.1771 10.4201 13.4896 9.59375C14.8021 8.76736 15.8056 7.65278 16.5 6.25C15.8056 4.84722 14.8021 3.73264 13.4896 2.90625C12.1771 2.07986 10.7361 1.66667 9.16667 1.66667C7.59722 1.66667 6.15625 2.07986 4.84375 2.90625C3.53125 3.73264 2.52778 4.84722 1.83333 6.25C2.52778 7.65278 3.53125 8.76736 4.84375 9.59375C6.15625 10.4201 7.59722 10.8333 9.16667 10.8333V10.8333" fill="#71787C"/>
</svg>
