<svg width="28" height="28" viewBox="0 0 28 28" fill="none" xmlns="http://www.w3.org/2000/svg">
<g clip-path="url(#clip0_95_3842)">
<path fill-rule="evenodd" clip-rule="evenodd" d="M14 28C21.732 28 28 21.732 28 14C28 6.26801 21.732 0 14 0C6.26801 0 0 6.26801 0 14C0 21.732 6.26801 28 14 28ZM14 26.7273C21.0291 26.7273 26.7273 21.0291 26.7273 14C26.7273 6.97092 21.0291 1.27273 14 1.27273C6.97092 1.27273 1.27273 6.97092 1.27273 14C1.27273 21.0291 6.97092 26.7273 14 26.7273ZM11.8824 22.08V13.9995H10.2402V11.321H11.8824V9.70128C11.8824 7.51647 12.5356 5.94097 14.9278 5.94097H17.7736V8.6139H15.7697C14.7662 8.6139 14.5376 9.28076 14.5376 9.97907V11.321H17.6257L17.2042 13.9995H14.5376V22.08H11.8824Z" fill="#E4432D"/>
</g>
<defs>
<clipPath id="clip0_95_3842">
<rect width="28" height="28" fill="white"/>
</clipPath>
</defs>
</svg>
