<svg width="20" height="20" viewBox="0 0 20 20" fill="none" xmlns="http://www.w3.org/2000/svg">
<g clip-path="url(#clip0_671_7320)">
<path d="M18.7958 11.3851L17.2124 5.6884C16.7483 4.01951 15.7397 2.55364 14.3469 1.52379C12.954 0.493945 11.2569 -0.0407771 9.52531 0.00462298C7.79369 0.0500231 6.12693 0.67294 4.78998 1.77436C3.45302 2.87578 2.52259 4.39249 2.14659 6.0834L0.920757 11.5959C0.785353 12.205 0.788484 12.8368 0.929918 13.4445C1.07135 14.0522 1.34748 14.6205 1.73791 15.1072C2.12834 15.5939 2.62311 15.9868 3.18568 16.2567C3.74826 16.5266 4.36428 16.6668 4.98826 16.6667H5.91659C6.10785 17.6086 6.61887 18.4555 7.36304 19.0637C8.10722 19.672 9.03879 20.0042 9.99992 20.0042C10.9611 20.0042 11.8926 19.672 12.6368 19.0637C13.381 18.4555 13.892 17.6086 14.0833 16.6667H14.7816C15.4239 16.6668 16.0576 16.5183 16.6331 16.2329C17.2085 15.9476 17.7102 15.533 18.0989 15.0216C18.4877 14.5103 18.7529 13.9159 18.8739 13.2851C18.9949 12.6543 18.9685 12.004 18.7966 11.3851H18.7958ZM9.99992 18.3334C9.48471 18.3313 8.98273 18.17 8.56267 17.8717C8.14262 17.5733 7.82499 17.1525 7.65326 16.6667H12.3466C12.1749 17.1525 11.8572 17.5733 11.4372 17.8717C11.0171 18.17 10.5151 18.3313 9.99992 18.3334V18.3334ZM16.7716 14.0126C16.5394 14.3206 16.2385 14.5703 15.8929 14.7417C15.5473 14.9131 15.1665 15.0016 14.7808 15.0001H4.98826C4.61391 15 4.24436 14.9159 3.90687 14.7539C3.56939 14.5919 3.2726 14.3562 3.03839 14.0641C2.80419 13.7721 2.63856 13.4312 2.55373 13.0666C2.46889 12.702 2.46702 12.323 2.54826 11.9576L3.77326 6.44423C4.06855 5.11607 4.79935 3.92474 5.84947 3.05961C6.89959 2.19448 8.20878 1.70521 9.5689 1.66958C10.929 1.63395 12.262 2.054 13.356 2.86296C14.45 3.67192 15.2422 4.82336 15.6066 6.13423L17.1899 11.8309C17.2945 12.202 17.3112 12.5925 17.2386 12.9712C17.166 13.3499 17.0061 13.7064 16.7716 14.0126V14.0126Z" fill="#033E4F"/>
</g>
<defs>
<clipPath id="clip0_671_7320">
<rect width="20" height="20" fill="white"/>
</clipPath>
</defs>
</svg>
