<svg width="25" height="25" viewBox="0 0 25 25" fill="none" xmlns="http://www.w3.org/2000/svg">
<path d="M17.5 16.25C16.4583 16.25 15.5729 15.8854 14.8438 15.1562C14.1146 14.4271 13.75 13.5417 13.75 12.5C13.75 11.4583 14.1146 10.5729 14.8438 9.84375C15.5729 9.11458 16.4583 8.75 17.5 8.75C18.5417 8.75 19.4271 9.11458 20.1562 9.84375C20.8854 10.5729 21.25 11.4583 21.25 12.5C21.25 13.5417 20.8854 14.4271 20.1562 15.1562C19.4271 15.8854 18.5417 16.25 17.5 16.25ZM17.5 13.75C17.8542 13.75 18.151 13.6302 18.3906 13.3906C18.6302 13.151 18.75 12.8542 18.75 12.5C18.75 12.1458 18.6302 11.849 18.3906 11.6094C18.151 11.3698 17.8542 11.25 17.5 11.25C17.1458 11.25 16.849 11.3698 16.6094 11.6094C16.3698 11.849 16.25 12.1458 16.25 12.5C16.25 12.8542 16.3698 13.151 16.6094 13.3906C16.849 13.6302 17.1458 13.75 17.5 13.75ZM10 25V21.375C10 20.9375 10.1042 20.526 10.3125 20.1406C10.5208 19.7552 10.8125 19.4479 11.1875 19.2188C11.8542 18.8229 12.5573 18.4948 13.2969 18.2344C14.0365 17.974 14.7917 17.7812 15.5625 17.6562L17.5 20L19.4375 17.6562C20.2083 17.7812 20.9583 17.974 21.6875 18.2344C22.4167 18.4948 23.1146 18.8229 23.7812 19.2188C24.1562 19.4479 24.4531 19.7552 24.6719 20.1406C24.8906 20.526 25 20.9375 25 21.375V25H10ZM12.4688 22.5H16.3125L14.625 20.4375C14.25 20.5417 13.8854 20.6771 13.5312 20.8438C13.1771 21.0104 12.8229 21.1875 12.4688 21.375V22.5ZM18.6875 22.5H22.5V21.375C22.1667 21.1667 21.8229 20.9844 21.4688 20.8281C21.1146 20.6719 20.75 20.5417 20.375 20.4375L18.6875 22.5ZM2.5 22.5C1.8125 22.5 1.22396 22.2552 0.734375 21.7656C0.244792 21.276 0 20.6875 0 20V2.5C0 1.8125 0.244792 1.22396 0.734375 0.734375C1.22396 0.244792 1.8125 0 2.5 0H20C20.6875 0 21.276 0.244792 21.7656 0.734375C22.2552 1.22396 22.5 1.8125 22.5 2.5V8.75C22.1667 8.33333 21.8021 7.9375 21.4062 7.5625C21.0104 7.1875 20.5417 6.9375 20 6.8125V2.5H2.5V20H7.6875C7.625 20.2292 7.57812 20.4583 7.54688 20.6875C7.51562 20.9167 7.5 21.1458 7.5 21.375V22.5H2.5ZM5 7.5H13.75C14.2917 7.08333 14.8854 6.77083 15.5312 6.5625C16.1771 6.35417 16.8333 6.25 17.5 6.25V5H5V7.5ZM5 12.5H11.25C11.25 12.0625 11.2969 11.6354 11.3906 11.2188C11.4844 10.8021 11.6146 10.3958 11.7812 10H5V12.5ZM5 17.5H9.3125C9.54167 17.3125 9.78646 17.1458 10.0469 17C10.3073 16.8542 10.5729 16.7188 10.8438 16.5938V15H5V17.5ZM2.5 20V2.5V6.78125C2.5 6.61458 2.5 6.48438 2.5 6.39062C2.5 6.29688 2.5 6.25 2.5 6.25C2.5 6.25 2.5 6.85938 2.5 8.07812C2.5 9.29688 2.5 10.7708 2.5 12.5C2.5 13.0833 2.5 13.6667 2.5 14.25C2.5 14.8333 2.5 15.4167 2.5 16C2.5 16.1667 2.5 16.3438 2.5 16.5312C2.5 16.7188 2.5 16.8958 2.5 17.0625C2.5 17.5417 2.5 18.0312 2.5 18.5312C2.5 19.0312 2.5 19.5208 2.5 20Z" fill="#E4432D"/>
</svg>
