<svg width="26" height="26" viewBox="0 0 26 26" fill="none" xmlns="http://www.w3.org/2000/svg">
<g clip-path="url(#clip0_95_3846)">
<path d="M18.4499 24.8679H7.21926C3.68963 24.8679 0.801758 21.98 0.801758 18.4504V7.21975C0.801758 3.69012 3.68963 0.802246 7.21926 0.802246H18.4499C21.9795 0.802246 24.8674 3.69012 24.8674 7.21975V18.4504C24.8674 21.98 21.9795 24.8679 18.4499 24.8679Z" stroke="#E4432D" stroke-width="2" stroke-miterlimit="10" stroke-linecap="round" stroke-linejoin="round"/>
<path d="M12.835 18.4504C15.9363 18.4504 18.4504 15.9363 18.4504 12.835C18.4504 9.73379 15.9363 7.21973 12.835 7.21973C9.73379 7.21973 7.21973 9.73379 7.21973 12.835C7.21973 15.9363 9.73379 18.4504 12.835 18.4504Z" stroke="#E4432D" stroke-width="2" stroke-miterlimit="10" stroke-linecap="round" stroke-linejoin="round"/>
<path d="M19.2524 6.41736C19.6954 6.41736 20.0546 6.05821 20.0546 5.61518C20.0546 5.17214 19.6954 4.81299 19.2524 4.81299C18.8093 4.81299 18.4502 5.17214 18.4502 5.61518C18.4502 6.05821 18.8093 6.41736 19.2524 6.41736Z" stroke="#E4432D" stroke-width="2" stroke-miterlimit="10" stroke-linecap="round" stroke-linejoin="round"/>
</g>
<defs>
<clipPath id="clip0_95_3846">
<rect width="25.67" height="25.67" fill="white"/>
</clipPath>
</defs>
</svg>
