<svg width="40" height="40" viewBox="0 0 40 40" fill="none" xmlns="http://www.w3.org/2000/svg">
<path d="M30.0003 0H13.3337C11.714 0.00213063 10.1302 0.476176 8.77568 1.36417C7.4212 2.25215 6.35484 3.5156 5.70699 5H3.33366C2.89163 5 2.46771 5.17559 2.15515 5.48816C1.84259 5.80072 1.66699 6.22464 1.66699 6.66667C1.66699 7.10869 1.84259 7.53262 2.15515 7.84518C2.46771 8.15774 2.89163 8.33333 3.33366 8.33333H5.00033V11.6667H3.33366C2.89163 11.6667 2.46771 11.8423 2.15515 12.1548C1.84259 12.4674 1.66699 12.8913 1.66699 13.3333C1.66699 13.7754 1.84259 14.1993 2.15515 14.5118C2.46771 14.8244 2.89163 15 3.33366 15H5.00033V18.3333H3.33366C2.89163 18.3333 2.46771 18.5089 2.15515 18.8215C1.84259 19.134 1.66699 19.558 1.66699 20C1.66699 20.442 1.84259 20.8659 2.15515 21.1785C2.46771 21.4911 2.89163 21.6667 3.33366 21.6667H5.00033V25H3.33366C2.89163 25 2.46771 25.1756 2.15515 25.4882C1.84259 25.8007 1.66699 26.2246 1.66699 26.6667C1.66699 27.1087 1.84259 27.5326 2.15515 27.8452C2.46771 28.1577 2.89163 28.3333 3.33366 28.3333H5.00033V31.6667H3.33366C2.89163 31.6667 2.46771 31.8423 2.15515 32.1548C1.84259 32.4674 1.66699 32.8913 1.66699 33.3333C1.66699 33.7754 1.84259 34.1993 2.15515 34.5118C2.46771 34.8244 2.89163 35 3.33366 35H5.70699C6.35484 36.4844 7.4212 37.7478 8.77568 38.6358C10.1302 39.5238 11.714 39.9979 13.3337 40H30.0003C32.2097 39.9974 34.3277 39.1185 35.89 37.5563C37.4522 35.9941 38.331 33.876 38.3337 31.6667V8.33333C38.331 6.12401 37.4522 4.00593 35.89 2.4437C34.3277 0.88147 32.2097 0.00264643 30.0003 0V0ZM35.0003 31.6667C35.0003 32.9927 34.4735 34.2645 33.5359 35.2022C32.5982 36.1399 31.3264 36.6667 30.0003 36.6667H13.3337C12.0076 36.6667 10.7358 36.1399 9.79813 35.2022C8.86044 34.2645 8.33366 32.9927 8.33366 31.6667V8.33333C8.33366 7.00725 8.86044 5.73548 9.79813 4.7978C10.7358 3.86012 12.0076 3.33333 13.3337 3.33333H30.0003C31.3264 3.33333 32.5982 3.86012 33.5359 4.7978C34.4735 5.73548 35.0003 7.00725 35.0003 8.33333V31.6667ZM21.667 20C22.9931 20 24.2648 19.4732 25.2025 18.5355C26.1402 17.5979 26.667 16.3261 26.667 15C26.667 13.6739 26.1402 12.4021 25.2025 11.4645C24.2648 10.5268 22.9931 10 21.667 10C20.3409 10 19.0691 10.5268 18.1315 11.4645C17.1938 12.4021 16.667 13.6739 16.667 15C16.667 16.3261 17.1938 17.5979 18.1315 18.5355C19.0691 19.4732 20.3409 20 21.667 20ZM30.0003 30C30.0003 30.442 29.8247 30.866 29.5122 31.1785C29.1996 31.4911 28.7757 31.6667 28.3337 31.6667C27.8916 31.6667 27.4677 31.4911 27.1551 31.1785C26.8426 30.866 26.667 30.442 26.667 30C26.667 28.6739 26.1402 27.4021 25.2025 26.4645C24.2648 25.5268 22.9931 25 21.667 25C20.3409 25 19.0691 25.5268 18.1315 26.4645C17.1938 27.4021 16.667 28.6739 16.667 30C16.667 30.442 16.4914 30.866 16.1788 31.1785C15.8663 31.4911 15.4424 31.6667 15.0003 31.6667C14.5583 31.6667 14.1344 31.4911 13.8218 31.1785C13.5093 30.866 13.3337 30.442 13.3337 30C13.6853 18.9867 29.652 18.99 30.0003 30Z" fill="black"/>
<path d="M30.0003 0H13.3337C11.714 0.00213063 10.1302 0.476176 8.77568 1.36417C7.4212 2.25215 6.35484 3.5156 5.70699 5H3.33366C2.89163 5 2.46771 5.17559 2.15515 5.48816C1.84259 5.80072 1.66699 6.22464 1.66699 6.66667C1.66699 7.10869 1.84259 7.53262 2.15515 7.84518C2.46771 8.15774 2.89163 8.33333 3.33366 8.33333H5.00033V11.6667H3.33366C2.89163 11.6667 2.46771 11.8423 2.15515 12.1548C1.84259 12.4674 1.66699 12.8913 1.66699 13.3333C1.66699 13.7754 1.84259 14.1993 2.15515 14.5118C2.46771 14.8244 2.89163 15 3.33366 15H5.00033V18.3333H3.33366C2.89163 18.3333 2.46771 18.5089 2.15515 18.8215C1.84259 19.134 1.66699 19.558 1.66699 20C1.66699 20.442 1.84259 20.8659 2.15515 21.1785C2.46771 21.4911 2.89163 21.6667 3.33366 21.6667H5.00033V25H3.33366C2.89163 25 2.46771 25.1756 2.15515 25.4882C1.84259 25.8007 1.66699 26.2246 1.66699 26.6667C1.66699 27.1087 1.84259 27.5326 2.15515 27.8452C2.46771 28.1577 2.89163 28.3333 3.33366 28.3333H5.00033V31.6667H3.33366C2.89163 31.6667 2.46771 31.8423 2.15515 32.1548C1.84259 32.4674 1.66699 32.8913 1.66699 33.3333C1.66699 33.7754 1.84259 34.1993 2.15515 34.5118C2.46771 34.8244 2.89163 35 3.33366 35H5.70699C6.35484 36.4844 7.4212 37.7478 8.77568 38.6358C10.1302 39.5238 11.714 39.9979 13.3337 40H30.0003C32.2097 39.9974 34.3277 39.1185 35.89 37.5563C37.4522 35.9941 38.331 33.876 38.3337 31.6667V8.33333C38.331 6.12401 37.4522 4.00593 35.89 2.4437C34.3277 0.88147 32.2097 0.00264643 30.0003 0V0ZM35.0003 31.6667C35.0003 32.9927 34.4735 34.2645 33.5359 35.2022C32.5982 36.1399 31.3264 36.6667 30.0003 36.6667H13.3337C12.0076 36.6667 10.7358 36.1399 9.79813 35.2022C8.86044 34.2645 8.33366 32.9927 8.33366 31.6667V8.33333C8.33366 7.00725 8.86044 5.73548 9.79813 4.7978C10.7358 3.86012 12.0076 3.33333 13.3337 3.33333H30.0003C31.3264 3.33333 32.5982 3.86012 33.5359 4.7978C34.4735 5.73548 35.0003 7.00725 35.0003 8.33333V31.6667ZM21.667 20C22.9931 20 24.2648 19.4732 25.2025 18.5355C26.1402 17.5979 26.667 16.3261 26.667 15C26.667 13.6739 26.1402 12.4021 25.2025 11.4645C24.2648 10.5268 22.9931 10 21.667 10C20.3409 10 19.0691 10.5268 18.1315 11.4645C17.1938 12.4021 16.667 13.6739 16.667 15C16.667 16.3261 17.1938 17.5979 18.1315 18.5355C19.0691 19.4732 20.3409 20 21.667 20ZM30.0003 30C30.0003 30.442 29.8247 30.866 29.5122 31.1785C29.1996 31.4911 28.7757 31.6667 28.3337 31.6667C27.8916 31.6667 27.4677 31.4911 27.1551 31.1785C26.8426 30.866 26.667 30.442 26.667 30C26.667 28.6739 26.1402 27.4021 25.2025 26.4645C24.2648 25.5268 22.9931 25 21.667 25C20.3409 25 19.0691 25.5268 18.1315 26.4645C17.1938 27.4021 16.667 28.6739 16.667 30C16.667 30.442 16.4914 30.866 16.1788 31.1785C15.8663 31.4911 15.4424 31.6667 15.0003 31.6667C14.5583 31.6667 14.1344 31.4911 13.8218 31.1785C13.5093 30.866 13.3337 30.442 13.3337 30C13.6853 18.9867 29.652 18.99 30.0003 30Z" fill="black" fill-opacity="0.2"/>
<path d="M30.0003 0H13.3337C11.714 0.00213063 10.1302 0.476176 8.77568 1.36417C7.4212 2.25215 6.35484 3.5156 5.70699 5H3.33366C2.89163 5 2.46771 5.17559 2.15515 5.48816C1.84259 5.80072 1.66699 6.22464 1.66699 6.66667C1.66699 7.10869 1.84259 7.53262 2.15515 7.84518C2.46771 8.15774 2.89163 8.33333 3.33366 8.33333H5.00033V11.6667H3.33366C2.89163 11.6667 2.46771 11.8423 2.15515 12.1548C1.84259 12.4674 1.66699 12.8913 1.66699 13.3333C1.66699 13.7754 1.84259 14.1993 2.15515 14.5118C2.46771 14.8244 2.89163 15 3.33366 15H5.00033V18.3333H3.33366C2.89163 18.3333 2.46771 18.5089 2.15515 18.8215C1.84259 19.134 1.66699 19.558 1.66699 20C1.66699 20.442 1.84259 20.8659 2.15515 21.1785C2.46771 21.4911 2.89163 21.6667 3.33366 21.6667H5.00033V25H3.33366C2.89163 25 2.46771 25.1756 2.15515 25.4882C1.84259 25.8007 1.66699 26.2246 1.66699 26.6667C1.66699 27.1087 1.84259 27.5326 2.15515 27.8452C2.46771 28.1577 2.89163 28.3333 3.33366 28.3333H5.00033V31.6667H3.33366C2.89163 31.6667 2.46771 31.8423 2.15515 32.1548C1.84259 32.4674 1.66699 32.8913 1.66699 33.3333C1.66699 33.7754 1.84259 34.1993 2.15515 34.5118C2.46771 34.8244 2.89163 35 3.33366 35H5.70699C6.35484 36.4844 7.4212 37.7478 8.77568 38.6358C10.1302 39.5238 11.714 39.9979 13.3337 40H30.0003C32.2097 39.9974 34.3277 39.1185 35.89 37.5563C37.4522 35.9941 38.331 33.876 38.3337 31.6667V8.33333C38.331 6.12401 37.4522 4.00593 35.89 2.4437C34.3277 0.88147 32.2097 0.00264643 30.0003 0V0ZM35.0003 31.6667C35.0003 32.9927 34.4735 34.2645 33.5359 35.2022C32.5982 36.1399 31.3264 36.6667 30.0003 36.6667H13.3337C12.0076 36.6667 10.7358 36.1399 9.79813 35.2022C8.86044 34.2645 8.33366 32.9927 8.33366 31.6667V8.33333C8.33366 7.00725 8.86044 5.73548 9.79813 4.7978C10.7358 3.86012 12.0076 3.33333 13.3337 3.33333H30.0003C31.3264 3.33333 32.5982 3.86012 33.5359 4.7978C34.4735 5.73548 35.0003 7.00725 35.0003 8.33333V31.6667ZM21.667 20C22.9931 20 24.2648 19.4732 25.2025 18.5355C26.1402 17.5979 26.667 16.3261 26.667 15C26.667 13.6739 26.1402 12.4021 25.2025 11.4645C24.2648 10.5268 22.9931 10 21.667 10C20.3409 10 19.0691 10.5268 18.1315 11.4645C17.1938 12.4021 16.667 13.6739 16.667 15C16.667 16.3261 17.1938 17.5979 18.1315 18.5355C19.0691 19.4732 20.3409 20 21.667 20ZM30.0003 30C30.0003 30.442 29.8247 30.866 29.5122 31.1785C29.1996 31.4911 28.7757 31.6667 28.3337 31.6667C27.8916 31.6667 27.4677 31.4911 27.1551 31.1785C26.8426 30.866 26.667 30.442 26.667 30C26.667 28.6739 26.1402 27.4021 25.2025 26.4645C24.2648 25.5268 22.9931 25 21.667 25C20.3409 25 19.0691 25.5268 18.1315 26.4645C17.1938 27.4021 16.667 28.6739 16.667 30C16.667 30.442 16.4914 30.866 16.1788 31.1785C15.8663 31.4911 15.4424 31.6667 15.0003 31.6667C14.5583 31.6667 14.1344 31.4911 13.8218 31.1785C13.5093 30.866 13.3337 30.442 13.3337 30C13.6853 18.9867 29.652 18.99 30.0003 30Z" fill="black" fill-opacity="0.2"/>
<path d="M30.0003 0H13.3337C11.714 0.00213063 10.1302 0.476176 8.77568 1.36417C7.4212 2.25215 6.35484 3.5156 5.70699 5H3.33366C2.89163 5 2.46771 5.17559 2.15515 5.48816C1.84259 5.80072 1.66699 6.22464 1.66699 6.66667C1.66699 7.10869 1.84259 7.53262 2.15515 7.84518C2.46771 8.15774 2.89163 8.33333 3.33366 8.33333H5.00033V11.6667H3.33366C2.89163 11.6667 2.46771 11.8423 2.15515 12.1548C1.84259 12.4674 1.66699 12.8913 1.66699 13.3333C1.66699 13.7754 1.84259 14.1993 2.15515 14.5118C2.46771 14.8244 2.89163 15 3.33366 15H5.00033V18.3333H3.33366C2.89163 18.3333 2.46771 18.5089 2.15515 18.8215C1.84259 19.134 1.66699 19.558 1.66699 20C1.66699 20.442 1.84259 20.8659 2.15515 21.1785C2.46771 21.4911 2.89163 21.6667 3.33366 21.6667H5.00033V25H3.33366C2.89163 25 2.46771 25.1756 2.15515 25.4882C1.84259 25.8007 1.66699 26.2246 1.66699 26.6667C1.66699 27.1087 1.84259 27.5326 2.15515 27.8452C2.46771 28.1577 2.89163 28.3333 3.33366 28.3333H5.00033V31.6667H3.33366C2.89163 31.6667 2.46771 31.8423 2.15515 32.1548C1.84259 32.4674 1.66699 32.8913 1.66699 33.3333C1.66699 33.7754 1.84259 34.1993 2.15515 34.5118C2.46771 34.8244 2.89163 35 3.33366 35H5.70699C6.35484 36.4844 7.4212 37.7478 8.77568 38.6358C10.1302 39.5238 11.714 39.9979 13.3337 40H30.0003C32.2097 39.9974 34.3277 39.1185 35.89 37.5563C37.4522 35.9941 38.331 33.876 38.3337 31.6667V8.33333C38.331 6.12401 37.4522 4.00593 35.89 2.4437C34.3277 0.88147 32.2097 0.00264643 30.0003 0V0ZM35.0003 31.6667C35.0003 32.9927 34.4735 34.2645 33.5359 35.2022C32.5982 36.1399 31.3264 36.6667 30.0003 36.6667H13.3337C12.0076 36.6667 10.7358 36.1399 9.79813 35.2022C8.86044 34.2645 8.33366 32.9927 8.33366 31.6667V8.33333C8.33366 7.00725 8.86044 5.73548 9.79813 4.7978C10.7358 3.86012 12.0076 3.33333 13.3337 3.33333H30.0003C31.3264 3.33333 32.5982 3.86012 33.5359 4.7978C34.4735 5.73548 35.0003 7.00725 35.0003 8.33333V31.6667ZM21.667 20C22.9931 20 24.2648 19.4732 25.2025 18.5355C26.1402 17.5979 26.667 16.3261 26.667 15C26.667 13.6739 26.1402 12.4021 25.2025 11.4645C24.2648 10.5268 22.9931 10 21.667 10C20.3409 10 19.0691 10.5268 18.1315 11.4645C17.1938 12.4021 16.667 13.6739 16.667 15C16.667 16.3261 17.1938 17.5979 18.1315 18.5355C19.0691 19.4732 20.3409 20 21.667 20ZM30.0003 30C30.0003 30.442 29.8247 30.866 29.5122 31.1785C29.1996 31.4911 28.7757 31.6667 28.3337 31.6667C27.8916 31.6667 27.4677 31.4911 27.1551 31.1785C26.8426 30.866 26.667 30.442 26.667 30C26.667 28.6739 26.1402 27.4021 25.2025 26.4645C24.2648 25.5268 22.9931 25 21.667 25C20.3409 25 19.0691 25.5268 18.1315 26.4645C17.1938 27.4021 16.667 28.6739 16.667 30C16.667 30.442 16.4914 30.866 16.1788 31.1785C15.8663 31.4911 15.4424 31.6667 15.0003 31.6667C14.5583 31.6667 14.1344 31.4911 13.8218 31.1785C13.5093 30.866 13.3337 30.442 13.3337 30C13.6853 18.9867 29.652 18.99 30.0003 30Z" fill="black" fill-opacity="0.2"/>
<path d="M30.0003 0H13.3337C11.714 0.00213063 10.1302 0.476176 8.77568 1.36417C7.4212 2.25215 6.35484 3.5156 5.70699 5H3.33366C2.89163 5 2.46771 5.17559 2.15515 5.48816C1.84259 5.80072 1.66699 6.22464 1.66699 6.66667C1.66699 7.10869 1.84259 7.53262 2.15515 7.84518C2.46771 8.15774 2.89163 8.33333 3.33366 8.33333H5.00033V11.6667H3.33366C2.89163 11.6667 2.46771 11.8423 2.15515 12.1548C1.84259 12.4674 1.66699 12.8913 1.66699 13.3333C1.66699 13.7754 1.84259 14.1993 2.15515 14.5118C2.46771 14.8244 2.89163 15 3.33366 15H5.00033V18.3333H3.33366C2.89163 18.3333 2.46771 18.5089 2.15515 18.8215C1.84259 19.134 1.66699 19.558 1.66699 20C1.66699 20.442 1.84259 20.8659 2.15515 21.1785C2.46771 21.4911 2.89163 21.6667 3.33366 21.6667H5.00033V25H3.33366C2.89163 25 2.46771 25.1756 2.15515 25.4882C1.84259 25.8007 1.66699 26.2246 1.66699 26.6667C1.66699 27.1087 1.84259 27.5326 2.15515 27.8452C2.46771 28.1577 2.89163 28.3333 3.33366 28.3333H5.00033V31.6667H3.33366C2.89163 31.6667 2.46771 31.8423 2.15515 32.1548C1.84259 32.4674 1.66699 32.8913 1.66699 33.3333C1.66699 33.7754 1.84259 34.1993 2.15515 34.5118C2.46771 34.8244 2.89163 35 3.33366 35H5.70699C6.35484 36.4844 7.4212 37.7478 8.77568 38.6358C10.1302 39.5238 11.714 39.9979 13.3337 40H30.0003C32.2097 39.9974 34.3277 39.1185 35.89 37.5563C37.4522 35.9941 38.331 33.876 38.3337 31.6667V8.33333C38.331 6.12401 37.4522 4.00593 35.89 2.4437C34.3277 0.88147 32.2097 0.00264643 30.0003 0V0ZM35.0003 31.6667C35.0003 32.9927 34.4735 34.2645 33.5359 35.2022C32.5982 36.1399 31.3264 36.6667 30.0003 36.6667H13.3337C12.0076 36.6667 10.7358 36.1399 9.79813 35.2022C8.86044 34.2645 8.33366 32.9927 8.33366 31.6667V8.33333C8.33366 7.00725 8.86044 5.73548 9.79813 4.7978C10.7358 3.86012 12.0076 3.33333 13.3337 3.33333H30.0003C31.3264 3.33333 32.5982 3.86012 33.5359 4.7978C34.4735 5.73548 35.0003 7.00725 35.0003 8.33333V31.6667ZM21.667 20C22.9931 20 24.2648 19.4732 25.2025 18.5355C26.1402 17.5979 26.667 16.3261 26.667 15C26.667 13.6739 26.1402 12.4021 25.2025 11.4645C24.2648 10.5268 22.9931 10 21.667 10C20.3409 10 19.0691 10.5268 18.1315 11.4645C17.1938 12.4021 16.667 13.6739 16.667 15C16.667 16.3261 17.1938 17.5979 18.1315 18.5355C19.0691 19.4732 20.3409 20 21.667 20ZM30.0003 30C30.0003 30.442 29.8247 30.866 29.5122 31.1785C29.1996 31.4911 28.7757 31.6667 28.3337 31.6667C27.8916 31.6667 27.4677 31.4911 27.1551 31.1785C26.8426 30.866 26.667 30.442 26.667 30C26.667 28.6739 26.1402 27.4021 25.2025 26.4645C24.2648 25.5268 22.9931 25 21.667 25C20.3409 25 19.0691 25.5268 18.1315 26.4645C17.1938 27.4021 16.667 28.6739 16.667 30C16.667 30.442 16.4914 30.866 16.1788 31.1785C15.8663 31.4911 15.4424 31.6667 15.0003 31.6667C14.5583 31.6667 14.1344 31.4911 13.8218 31.1785C13.5093 30.866 13.3337 30.442 13.3337 30C13.6853 18.9867 29.652 18.99 30.0003 30Z" fill="black" fill-opacity="0.2"/>
</svg>
