<svg width="28" height="28" viewBox="0 0 28 28" fill="none" xmlns="http://www.w3.org/2000/svg">
<g clip-path="url(#clip0_95_3834)">
<path d="M10.1819 11.4547C10.8848 11.4547 11.4547 10.8848 11.4547 10.1819C11.4547 9.47901 10.8848 8.90918 10.1819 8.90918C9.47901 8.90918 8.90918 9.47901 8.90918 10.1819C8.90918 10.8848 9.47901 11.4547 10.1819 11.4547Z" fill="#E4432D"/>
<path d="M11.4546 12.0908H8.90918V19.0908H11.4546V12.0908Z" fill="#E4432D"/>
<path d="M14 0C6.26801 0 0 6.26801 0 14C0 21.732 6.26801 28 14 28C21.732 28 28 21.732 28 14C28 6.26801 21.732 0 14 0ZM14 26.7273C6.97091 26.7273 1.27274 21.0291 1.27274 14C1.27274 6.97091 6.97091 1.27274 14 1.27274C21.0291 1.27274 26.7273 6.97091 26.7273 14C26.7273 21.0291 21.0291 26.7273 14 26.7273Z" fill="#E4432D"/>
<path d="M17.4111 12.0908C15.5021 12.0908 15.273 13.2236 15.273 13.2236V12.0908H12.7275V19.0908H15.273V15.2726C15.273 15.2726 15.273 13.9999 16.3548 13.9999C16.9911 13.9999 17.1821 14.5663 17.1821 15.2726V19.0908H19.7275V15.2726C19.7275 13.2808 18.8621 12.0908 17.4111 12.0908Z" fill="#E4432D"/>
</g>
<defs>
<clipPath id="clip0_95_3834">
<rect width="28" height="28" fill="white"/>
</clipPath>
</defs>
</svg>
