<svg width="15" height="15" viewBox="0 0 15 15" fill="none" xmlns="http://www.w3.org/2000/svg">
<g clip-path="url(#clip0_413_10395)">
<path d="M14.9997 7.02948C14.9093 5.567 14.3929 4.16293 13.5142 2.99037C12.6355 1.81782 11.4329 0.928041 10.0546 0.43073C8.67625 -0.0665811 7.18254 -0.149683 5.75758 0.191668C4.33262 0.533019 3.03869 1.2839 2.03532 2.35174C1.03195 3.41959 0.363004 4.75771 0.110943 6.20114C-0.141119 7.64458 0.0347267 9.13022 0.616801 10.4749C1.19888 11.8196 2.16173 12.9646 3.38667 13.7687C4.61161 14.5728 6.04508 15.0009 7.51035 15.0001H11.8747C12.7033 14.9993 13.4977 14.6698 14.0835 14.0839C14.6694 13.498 14.9989 12.7037 14.9997 11.8751V7.02948ZM13.7497 11.8751C13.7497 12.3724 13.5522 12.8493 13.2006 13.2009C12.8489 13.5526 12.372 13.7501 11.8747 13.7501H7.51035C6.62844 13.7497 5.75651 13.5634 4.95141 13.2034C4.14632 12.8434 3.42615 12.3178 2.83785 11.6607C2.24671 11.004 1.80281 10.2285 1.53591 9.38623C1.26901 8.54392 1.18529 7.65429 1.29035 6.77698C1.45625 5.3932 2.07797 4.10398 3.0575 3.11256C4.03704 2.12115 5.31867 1.48393 6.70035 1.30136C6.96988 1.26758 7.24122 1.25046 7.51285 1.25011C8.9694 1.24614 10.3809 1.75505 11.4997 2.68761C12.1532 3.2307 12.6895 3.90083 13.0763 4.65738C13.4631 5.41393 13.6922 6.24113 13.7497 7.08886V11.8751Z" fill="#9CEDED"/>
<path d="M5 5.625H7.5C7.66576 5.625 7.82473 5.55915 7.94194 5.44194C8.05915 5.32473 8.125 5.16576 8.125 5C8.125 4.83424 8.05915 4.67527 7.94194 4.55806C7.82473 4.44085 7.66576 4.375 7.5 4.375H5C4.83424 4.375 4.67527 4.44085 4.55806 4.55806C4.44085 4.67527 4.375 4.83424 4.375 5C4.375 5.16576 4.44085 5.32473 4.55806 5.44194C4.67527 5.55915 4.83424 5.625 5 5.625Z" fill="#9CEDED"/>
<path d="M10 6.875H5C4.83424 6.875 4.67527 6.94085 4.55806 7.05806C4.44085 7.17527 4.375 7.33424 4.375 7.5C4.375 7.66576 4.44085 7.82474 4.55806 7.94195C4.67527 8.05916 4.83424 8.12501 5 8.12501H10C10.1658 8.12501 10.3247 8.05916 10.4419 7.94195C10.5592 7.82474 10.625 7.66576 10.625 7.5C10.625 7.33424 10.5592 7.17527 10.4419 7.05806C10.3247 6.94085 10.1658 6.875 10 6.875Z" fill="#9CEDED"/>
<path d="M10 9.375H5C4.83424 9.375 4.67527 9.44085 4.55806 9.55806C4.44085 9.67527 4.375 9.83424 4.375 10C4.375 10.1658 4.44085 10.3247 4.55806 10.4419C4.67527 10.5592 4.83424 10.625 5 10.625H10C10.1658 10.625 10.3247 10.5592 10.4419 10.4419C10.5592 10.3247 10.625 10.1658 10.625 10C10.625 9.83424 10.5592 9.67527 10.4419 9.55806C10.3247 9.44085 10.1658 9.375 10 9.375Z" fill="#9CEDED"/>
</g>
<defs>
<clipPath id="clip0_413_10395">
<rect width="15" height="15" fill="white"/>
</clipPath>
</defs>
</svg>
