<svg width="25" height="25" viewBox="0 0 25 25" fill="none" xmlns="http://www.w3.org/2000/svg">
<path d="M25 25L20 20H7.5C6.8125 20 6.22396 19.7552 5.73438 19.2656C5.24479 18.776 5 18.1875 5 17.5V16.25H18.75C19.4375 16.25 20.026 16.0052 20.5156 15.5156C21.0052 15.026 21.25 14.4375 21.25 13.75V5H22.5C23.1875 5 23.776 5.24479 24.2656 5.73438C24.7552 6.22396 25 6.8125 25 7.5V25ZM2.5 12.7188L3.96875 11.25H16.25V2.5H2.5V12.7188ZM0 18.75V2.5C0 1.8125 0.244792 1.22396 0.734375 0.734375C1.22396 0.244792 1.8125 0 2.5 0H16.25C16.9375 0 17.526 0.244792 18.0156 0.734375C18.5052 1.22396 18.75 1.8125 18.75 2.5V11.25C18.75 11.9375 18.5052 12.526 18.0156 13.0156C17.526 13.5052 16.9375 13.75 16.25 13.75H5L0 18.75ZM2.5 11.25V2.5V11.25Z" fill="#E4432D"/>
</svg>
