<svg width="32" height="32" viewBox="0 0 32 32" fill="none" xmlns="http://www.w3.org/2000/svg">
<rect width="32" height="32" rx="8" fill="#E5F6FF"/>
<path d="M16 16C14.9 16 13.9583 15.6083 13.175 14.825C12.3917 14.0417 12 13.1 12 12C12 10.9 12.3917 9.95833 13.175 9.175C13.9583 8.39167 14.9 8 16 8C17.1 8 18.0417 8.39167 18.825 9.175C19.6083 9.95833 20 10.9 20 12C20 13.1 19.6083 14.0417 18.825 14.825C18.0417 15.6083 17.1 16 16 16ZM8 24V21.2C8 20.6333 8.14583 20.1125 8.4375 19.6375C8.72917 19.1625 9.11667 18.8 9.6 18.55C10.6333 18.0333 11.6833 17.6458 12.75 17.3875C13.8167 17.1292 14.9 17 16 17C17.1 17 18.1833 17.1292 19.25 17.3875C20.3167 17.6458 21.3667 18.0333 22.4 18.55C22.8833 18.8 23.2708 19.1625 23.5625 19.6375C23.8542 20.1125 24 20.6333 24 21.2V24H8ZM10 22H22V21.2C22 21.0167 21.9542 20.85 21.8625 20.7C21.7708 20.55 21.65 20.4333 21.5 20.35C20.6 19.9 19.6917 19.5625 18.775 19.3375C17.8583 19.1125 16.9333 19 16 19C15.0667 19 14.1417 19.1125 13.225 19.3375C12.3083 19.5625 11.4 19.9 10.5 20.35C10.35 20.4333 10.2292 20.55 10.1375 20.7C10.0458 20.85 10 21.0167 10 21.2V22ZM16 14C16.55 14 17.0208 13.8042 17.4125 13.4125C17.8042 13.0208 18 12.55 18 12C18 11.45 17.8042 10.9792 17.4125 10.5875C17.0208 10.1958 16.55 10 16 10C15.45 10 14.9792 10.1958 14.5875 10.5875C14.1958 10.9792 14 11.45 14 12C14 12.55 14.1958 13.0208 14.5875 13.4125C14.9792 13.8042 15.45 14 16 14Z" fill="#033E4F"/>
</svg>
