<svg width="40" height="40" viewBox="0 0 40 40" fill="none" xmlns="http://www.w3.org/2000/svg">
<g clip-path="url(#clip0_100_5181)">
<path d="M39.9999 18.7452C39.7589 14.8452 38.3819 11.1011 36.0386 7.97425C33.6953 4.84744 30.4883 2.47469 26.8128 1.14853C23.1373 -0.177631 19.1541 -0.399237 15.3542 0.511033C11.5543 1.4213 8.10383 3.42366 5.42818 6.27124C2.75253 9.11882 0.968663 12.6871 0.296498 16.5363C-0.375667 20.3855 0.0932555 24.3472 1.64545 27.9331C3.19765 31.5189 5.76527 34.5722 9.03177 36.7165C12.2983 38.8607 16.1209 40.0022 20.0283 40.0002H31.6666C33.8761 39.998 35.9944 39.1193 37.5567 37.557C39.119 35.9947 39.9977 33.8763 39.9999 31.6669V18.7452ZM36.6666 31.6669C36.6666 32.993 36.1398 34.2647 35.2021 35.2024C34.2644 36.1401 32.9927 36.6669 31.6666 36.6669H20.0283C17.6765 36.6658 15.3513 36.1691 13.2044 35.2091C11.0575 34.249 9.13705 32.8473 7.56826 31.0952C5.99188 29.344 4.80815 27.276 4.09642 25.0299C3.38469 22.7837 3.16143 20.4114 3.4416 18.0719C3.88399 14.3818 5.54191 10.9439 8.154 8.30008C10.7661 5.65631 14.1838 3.95706 17.8683 3.47021C18.587 3.38013 19.3106 3.33448 20.0349 3.33354C23.9191 3.32295 27.6829 4.68005 30.6666 7.16687C32.4091 8.61511 33.8394 10.4021 34.8708 12.4196C35.9022 14.4371 36.5131 16.6429 36.6666 18.9035V31.6669Z" fill="black"/>
<path d="M39.9999 18.7452C39.7589 14.8452 38.3819 11.1011 36.0386 7.97425C33.6953 4.84744 30.4883 2.47469 26.8128 1.14853C23.1373 -0.177631 19.1541 -0.399237 15.3542 0.511033C11.5543 1.4213 8.10383 3.42366 5.42818 6.27124C2.75253 9.11882 0.968663 12.6871 0.296498 16.5363C-0.375667 20.3855 0.0932555 24.3472 1.64545 27.9331C3.19765 31.5189 5.76527 34.5722 9.03177 36.7165C12.2983 38.8607 16.1209 40.0022 20.0283 40.0002H31.6666C33.8761 39.998 35.9944 39.1193 37.5567 37.557C39.119 35.9947 39.9977 33.8763 39.9999 31.6669V18.7452ZM36.6666 31.6669C36.6666 32.993 36.1398 34.2647 35.2021 35.2024C34.2644 36.1401 32.9927 36.6669 31.6666 36.6669H20.0283C17.6765 36.6658 15.3513 36.1691 13.2044 35.2091C11.0575 34.249 9.13705 32.8473 7.56826 31.0952C5.99188 29.344 4.80815 27.276 4.09642 25.0299C3.38469 22.7837 3.16143 20.4114 3.4416 18.0719C3.88399 14.3818 5.54191 10.9439 8.154 8.30008C10.7661 5.65631 14.1838 3.95706 17.8683 3.47021C18.587 3.38013 19.3106 3.33448 20.0349 3.33354C23.9191 3.32295 27.6829 4.68005 30.6666 7.16687C32.4091 8.61511 33.8394 10.4021 34.8708 12.4196C35.9022 14.4371 36.5131 16.6429 36.6666 18.9035V31.6669Z" fill="black" fill-opacity="0.2"/>
<path d="M39.9999 18.7452C39.7589 14.8452 38.3819 11.1011 36.0386 7.97425C33.6953 4.84744 30.4883 2.47469 26.8128 1.14853C23.1373 -0.177631 19.1541 -0.399237 15.3542 0.511033C11.5543 1.4213 8.10383 3.42366 5.42818 6.27124C2.75253 9.11882 0.968663 12.6871 0.296498 16.5363C-0.375667 20.3855 0.0932555 24.3472 1.64545 27.9331C3.19765 31.5189 5.76527 34.5722 9.03177 36.7165C12.2983 38.8607 16.1209 40.0022 20.0283 40.0002H31.6666C33.8761 39.998 35.9944 39.1193 37.5567 37.557C39.119 35.9947 39.9977 33.8763 39.9999 31.6669V18.7452ZM36.6666 31.6669C36.6666 32.993 36.1398 34.2647 35.2021 35.2024C34.2644 36.1401 32.9927 36.6669 31.6666 36.6669H20.0283C17.6765 36.6658 15.3513 36.1691 13.2044 35.2091C11.0575 34.249 9.13705 32.8473 7.56826 31.0952C5.99188 29.344 4.80815 27.276 4.09642 25.0299C3.38469 22.7837 3.16143 20.4114 3.4416 18.0719C3.88399 14.3818 5.54191 10.9439 8.154 8.30008C10.7661 5.65631 14.1838 3.95706 17.8683 3.47021C18.587 3.38013 19.3106 3.33448 20.0349 3.33354C23.9191 3.32295 27.6829 4.68005 30.6666 7.16687C32.4091 8.61511 33.8394 10.4021 34.8708 12.4196C35.9022 14.4371 36.5131 16.6429 36.6666 18.9035V31.6669Z" fill="black" fill-opacity="0.2"/>
<path d="M39.9999 18.7452C39.7589 14.8452 38.3819 11.1011 36.0386 7.97425C33.6953 4.84744 30.4883 2.47469 26.8128 1.14853C23.1373 -0.177631 19.1541 -0.399237 15.3542 0.511033C11.5543 1.4213 8.10383 3.42366 5.42818 6.27124C2.75253 9.11882 0.968663 12.6871 0.296498 16.5363C-0.375667 20.3855 0.0932555 24.3472 1.64545 27.9331C3.19765 31.5189 5.76527 34.5722 9.03177 36.7165C12.2983 38.8607 16.1209 40.0022 20.0283 40.0002H31.6666C33.8761 39.998 35.9944 39.1193 37.5567 37.557C39.119 35.9947 39.9977 33.8763 39.9999 31.6669V18.7452ZM36.6666 31.6669C36.6666 32.993 36.1398 34.2647 35.2021 35.2024C34.2644 36.1401 32.9927 36.6669 31.6666 36.6669H20.0283C17.6765 36.6658 15.3513 36.1691 13.2044 35.2091C11.0575 34.249 9.13705 32.8473 7.56826 31.0952C5.99188 29.344 4.80815 27.276 4.09642 25.0299C3.38469 22.7837 3.16143 20.4114 3.4416 18.0719C3.88399 14.3818 5.54191 10.9439 8.154 8.30008C10.7661 5.65631 14.1838 3.95706 17.8683 3.47021C18.587 3.38013 19.3106 3.33448 20.0349 3.33354C23.9191 3.32295 27.6829 4.68005 30.6666 7.16687C32.4091 8.61511 33.8394 10.4021 34.8708 12.4196C35.9022 14.4371 36.5131 16.6429 36.6666 18.9035V31.6669Z" fill="black" fill-opacity="0.2"/>
<path d="M39.9999 18.7452C39.7589 14.8452 38.3819 11.1011 36.0386 7.97425C33.6953 4.84744 30.4883 2.47469 26.8128 1.14853C23.1373 -0.177631 19.1541 -0.399237 15.3542 0.511033C11.5543 1.4213 8.10383 3.42366 5.42818 6.27124C2.75253 9.11882 0.968663 12.6871 0.296498 16.5363C-0.375667 20.3855 0.0932555 24.3472 1.64545 27.9331C3.19765 31.5189 5.76527 34.5722 9.03177 36.7165C12.2983 38.8607 16.1209 40.0022 20.0283 40.0002H31.6666C33.8761 39.998 35.9944 39.1193 37.5567 37.557C39.119 35.9947 39.9977 33.8763 39.9999 31.6669V18.7452ZM36.6666 31.6669C36.6666 32.993 36.1398 34.2647 35.2021 35.2024C34.2644 36.1401 32.9927 36.6669 31.6666 36.6669H20.0283C17.6765 36.6658 15.3513 36.1691 13.2044 35.2091C11.0575 34.249 9.13705 32.8473 7.56826 31.0952C5.99188 29.344 4.80815 27.276 4.09642 25.0299C3.38469 22.7837 3.16143 20.4114 3.4416 18.0719C3.88399 14.3818 5.54191 10.9439 8.154 8.30008C10.7661 5.65631 14.1838 3.95706 17.8683 3.47021C18.587 3.38013 19.3106 3.33448 20.0349 3.33354C23.9191 3.32295 27.6829 4.68005 30.6666 7.16687C32.4091 8.61511 33.8394 10.4021 34.8708 12.4196C35.9022 14.4371 36.5131 16.6429 36.6666 18.9035V31.6669Z" fill="black" fill-opacity="0.2"/>
<path d="M13.3327 14.9998H19.9993C20.4414 14.9998 20.8653 14.8242 21.1779 14.5117C21.4904 14.1991 21.666 13.7752 21.666 13.3332C21.666 12.8911 21.4904 12.4672 21.1779 12.1547C20.8653 11.8421 20.4414 11.6665 19.9993 11.6665H13.3327C12.8907 11.6665 12.4667 11.8421 12.1542 12.1547C11.8416 12.4672 11.666 12.8911 11.666 13.3332C11.666 13.7752 11.8416 14.1991 12.1542 14.5117C12.4667 14.8242 12.8907 14.9998 13.3327 14.9998Z" fill="black"/>
<path d="M13.3327 14.9998H19.9993C20.4414 14.9998 20.8653 14.8242 21.1779 14.5117C21.4904 14.1991 21.666 13.7752 21.666 13.3332C21.666 12.8911 21.4904 12.4672 21.1779 12.1547C20.8653 11.8421 20.4414 11.6665 19.9993 11.6665H13.3327C12.8907 11.6665 12.4667 11.8421 12.1542 12.1547C11.8416 12.4672 11.666 12.8911 11.666 13.3332C11.666 13.7752 11.8416 14.1991 12.1542 14.5117C12.4667 14.8242 12.8907 14.9998 13.3327 14.9998Z" fill="black" fill-opacity="0.2"/>
<path d="M13.3327 14.9998H19.9993C20.4414 14.9998 20.8653 14.8242 21.1779 14.5117C21.4904 14.1991 21.666 13.7752 21.666 13.3332C21.666 12.8911 21.4904 12.4672 21.1779 12.1547C20.8653 11.8421 20.4414 11.6665 19.9993 11.6665H13.3327C12.8907 11.6665 12.4667 11.8421 12.1542 12.1547C11.8416 12.4672 11.666 12.8911 11.666 13.3332C11.666 13.7752 11.8416 14.1991 12.1542 14.5117C12.4667 14.8242 12.8907 14.9998 13.3327 14.9998Z" fill="black" fill-opacity="0.2"/>
<path d="M13.3327 14.9998H19.9993C20.4414 14.9998 20.8653 14.8242 21.1779 14.5117C21.4904 14.1991 21.666 13.7752 21.666 13.3332C21.666 12.8911 21.4904 12.4672 21.1779 12.1547C20.8653 11.8421 20.4414 11.6665 19.9993 11.6665H13.3327C12.8907 11.6665 12.4667 11.8421 12.1542 12.1547C11.8416 12.4672 11.666 12.8911 11.666 13.3332C11.666 13.7752 11.8416 14.1991 12.1542 14.5117C12.4667 14.8242 12.8907 14.9998 13.3327 14.9998Z" fill="black" fill-opacity="0.2"/>
<path d="M13.3327 14.9998H19.9993C20.4414 14.9998 20.8653 14.8242 21.1779 14.5117C21.4904 14.1991 21.666 13.7752 21.666 13.3332C21.666 12.8911 21.4904 12.4672 21.1779 12.1547C20.8653 11.8421 20.4414 11.6665 19.9993 11.6665H13.3327C12.8907 11.6665 12.4667 11.8421 12.1542 12.1547C11.8416 12.4672 11.666 12.8911 11.666 13.3332C11.666 13.7752 11.8416 14.1991 12.1542 14.5117C12.4667 14.8242 12.8907 14.9998 13.3327 14.9998Z" fill="black" fill-opacity="0.2"/>
<path d="M26.666 18.3335H13.3327C12.8907 18.3335 12.4667 18.5091 12.1542 18.8217C11.8416 19.1342 11.666 19.5581 11.666 20.0002C11.666 20.4422 11.8416 20.8661 12.1542 21.1787C12.4667 21.4913 12.8907 21.6668 13.3327 21.6668H26.666C27.108 21.6668 27.532 21.4913 27.8445 21.1787C28.1571 20.8661 28.3327 20.4422 28.3327 20.0002C28.3327 19.5581 28.1571 19.1342 27.8445 18.8217C27.532 18.5091 27.108 18.3335 26.666 18.3335Z" fill="black"/>
<path d="M26.666 18.3335H13.3327C12.8907 18.3335 12.4667 18.5091 12.1542 18.8217C11.8416 19.1342 11.666 19.5581 11.666 20.0002C11.666 20.4422 11.8416 20.8661 12.1542 21.1787C12.4667 21.4913 12.8907 21.6668 13.3327 21.6668H26.666C27.108 21.6668 27.532 21.4913 27.8445 21.1787C28.1571 20.8661 28.3327 20.4422 28.3327 20.0002C28.3327 19.5581 28.1571 19.1342 27.8445 18.8217C27.532 18.5091 27.108 18.3335 26.666 18.3335Z" fill="black" fill-opacity="0.2"/>
<path d="M26.666 18.3335H13.3327C12.8907 18.3335 12.4667 18.5091 12.1542 18.8217C11.8416 19.1342 11.666 19.5581 11.666 20.0002C11.666 20.4422 11.8416 20.8661 12.1542 21.1787C12.4667 21.4913 12.8907 21.6668 13.3327 21.6668H26.666C27.108 21.6668 27.532 21.4913 27.8445 21.1787C28.1571 20.8661 28.3327 20.4422 28.3327 20.0002C28.3327 19.5581 28.1571 19.1342 27.8445 18.8217C27.532 18.5091 27.108 18.3335 26.666 18.3335Z" fill="black" fill-opacity="0.2"/>
<path d="M26.666 18.3335H13.3327C12.8907 18.3335 12.4667 18.5091 12.1542 18.8217C11.8416 19.1342 11.666 19.5581 11.666 20.0002C11.666 20.4422 11.8416 20.8661 12.1542 21.1787C12.4667 21.4913 12.8907 21.6668 13.3327 21.6668H26.666C27.108 21.6668 27.532 21.4913 27.8445 21.1787C28.1571 20.8661 28.3327 20.4422 28.3327 20.0002C28.3327 19.5581 28.1571 19.1342 27.8445 18.8217C27.532 18.5091 27.108 18.3335 26.666 18.3335Z" fill="black" fill-opacity="0.2"/>
<path d="M26.666 18.3335H13.3327C12.8907 18.3335 12.4667 18.5091 12.1542 18.8217C11.8416 19.1342 11.666 19.5581 11.666 20.0002C11.666 20.4422 11.8416 20.8661 12.1542 21.1787C12.4667 21.4913 12.8907 21.6668 13.3327 21.6668H26.666C27.108 21.6668 27.532 21.4913 27.8445 21.1787C28.1571 20.8661 28.3327 20.4422 28.3327 20.0002C28.3327 19.5581 28.1571 19.1342 27.8445 18.8217C27.532 18.5091 27.108 18.3335 26.666 18.3335Z" fill="black" fill-opacity="0.2"/>
<path d="M26.666 25H13.3327C12.8907 25 12.4667 25.1756 12.1542 25.4882C11.8416 25.8007 11.666 26.2246 11.666 26.6667C11.666 27.1087 11.8416 27.5326 12.1542 27.8452C12.4667 28.1578 12.8907 28.3334 13.3327 28.3334H26.666C27.108 28.3334 27.532 28.1578 27.8445 27.8452C28.1571 27.5326 28.3327 27.1087 28.3327 26.6667C28.3327 26.2246 28.1571 25.8007 27.8445 25.4882C27.532 25.1756 27.108 25 26.666 25Z" fill="black"/>
<path d="M26.666 25H13.3327C12.8907 25 12.4667 25.1756 12.1542 25.4882C11.8416 25.8007 11.666 26.2246 11.666 26.6667C11.666 27.1087 11.8416 27.5326 12.1542 27.8452C12.4667 28.1578 12.8907 28.3334 13.3327 28.3334H26.666C27.108 28.3334 27.532 28.1578 27.8445 27.8452C28.1571 27.5326 28.3327 27.1087 28.3327 26.6667C28.3327 26.2246 28.1571 25.8007 27.8445 25.4882C27.532 25.1756 27.108 25 26.666 25Z" fill="black" fill-opacity="0.2"/>
<path d="M26.666 25H13.3327C12.8907 25 12.4667 25.1756 12.1542 25.4882C11.8416 25.8007 11.666 26.2246 11.666 26.6667C11.666 27.1087 11.8416 27.5326 12.1542 27.8452C12.4667 28.1578 12.8907 28.3334 13.3327 28.3334H26.666C27.108 28.3334 27.532 28.1578 27.8445 27.8452C28.1571 27.5326 28.3327 27.1087 28.3327 26.6667C28.3327 26.2246 28.1571 25.8007 27.8445 25.4882C27.532 25.1756 27.108 25 26.666 25Z" fill="black" fill-opacity="0.2"/>
<path d="M26.666 25H13.3327C12.8907 25 12.4667 25.1756 12.1542 25.4882C11.8416 25.8007 11.666 26.2246 11.666 26.6667C11.666 27.1087 11.8416 27.5326 12.1542 27.8452C12.4667 28.1578 12.8907 28.3334 13.3327 28.3334H26.666C27.108 28.3334 27.532 28.1578 27.8445 27.8452C28.1571 27.5326 28.3327 27.1087 28.3327 26.6667C28.3327 26.2246 28.1571 25.8007 27.8445 25.4882C27.532 25.1756 27.108 25 26.666 25Z" fill="black" fill-opacity="0.2"/>
<path d="M26.666 25H13.3327C12.8907 25 12.4667 25.1756 12.1542 25.4882C11.8416 25.8007 11.666 26.2246 11.666 26.6667C11.666 27.1087 11.8416 27.5326 12.1542 27.8452C12.4667 28.1578 12.8907 28.3334 13.3327 28.3334H26.666C27.108 28.3334 27.532 28.1578 27.8445 27.8452C28.1571 27.5326 28.3327 27.1087 28.3327 26.6667C28.3327 26.2246 28.1571 25.8007 27.8445 25.4882C27.532 25.1756 27.108 25 26.666 25Z" fill="black" fill-opacity="0.2"/>
</g>
<defs>
<clipPath id="clip0_100_5181">
<rect width="40" height="40" fill="white"/>
</clipPath>
</defs>
</svg>
