<svg width="20" height="20" viewBox="0 0 20 20" fill="none" xmlns="http://www.w3.org/2000/svg">
<g clip-path="url(#clip0_674_11471)">
<path d="M13.7498 19.9997H6.2499C5.21445 19.9613 5.21523 18.4753 6.2499 18.4372H13.7498C14.7852 18.4756 14.7845 19.9616 13.7498 19.9997ZM15.3123 16.8747H4.68661C2.10243 16.8747 0 14.7723 0 12.1881V5.78116C0 3.19651 2.10278 1.09373 4.68743 1.09373H5.66397C6.69943 1.13213 6.69865 2.61816 5.66397 2.65621H4.68743C2.96433 2.65621 1.56248 4.05806 1.56248 5.78116V12.1881C1.56248 13.9108 2.96398 15.3123 4.68661 15.3123H15.3123C17.0354 15.3123 18.4372 13.9104 18.4372 12.1873V10.7811C18.4756 9.74563 19.9616 9.74641 19.9997 10.7811V12.1873C19.9997 14.772 17.8969 16.8747 15.3123 16.8747ZM13.2875 8.98427H11.2889C10.3498 8.98427 9.46696 8.61862 8.80299 7.95456C8.13897 7.29055 7.77332 6.40771 7.77332 5.46863V3.51553C7.77335 1.57705 9.35044 0 11.2889 0H13.2875C14.5817 0 15.7353 0.712293 16.3457 1.79864C16.3457 1.79864 17.6584 0.823972 17.6778 0.81198C18.1473 0.523 18.7381 0.510578 19.2193 0.779558C19.7006 1.0485 19.9996 1.5581 19.9996 2.10942L19.9997 6.87485C19.9997 7.42617 19.7007 7.93577 19.2194 8.20475C18.7381 8.4737 18.1475 8.46127 17.6779 8.17233C17.6611 8.16198 16.3476 7.21059 16.3476 7.21059C15.7387 8.28186 14.5846 8.98427 13.2875 8.98427ZM11.2889 1.56248C10.212 1.56248 9.33579 2.43863 9.33579 3.51553V5.46866C9.33579 5.99038 9.53891 6.48084 9.90781 6.84974C10.2767 7.2186 10.7672 7.4218 11.2889 7.4218H13.2875C14.2322 7.4218 15.0398 6.75486 15.2078 5.83592C15.2561 5.57194 15.4365 5.35124 15.6856 5.25136C15.9347 5.15144 16.2176 5.18652 16.4349 5.34398L18.4372 6.79571L18.4371 2.19067L16.4424 3.67377C16.2257 3.8349 15.9412 3.87271 15.69 3.77373C15.4387 3.67475 15.2564 3.45303 15.2078 3.18737C15.0384 2.26102 14.2128 1.56248 13.2875 1.56248H11.2889Z" fill="#E4432D"/>
</g>
<defs>
<clipPath id="clip0_674_11471">
<rect width="20" height="20" fill="white"/>
</clipPath>
</defs>
</svg>
