<svg width="20" height="20" viewBox="0 0 20 20" fill="none" xmlns="http://www.w3.org/2000/svg">
<g clip-path="url(#clip0_462_13999)">
<path d="M10 0C8.89542 0 8 0.895417 8 2C8 3.10458 8.89542 4 10 4C11.1041 3.99892 11.9989 3.10413 12 2C12 0.895417 11.1046 0 10 0ZM10 3.33333C9.26363 3.33333 8.66667 2.73638 8.66667 2C8.66667 1.26363 9.26363 0.666667 10 0.666667C10.7364 0.666667 11.3333 1.26363 11.3333 2C11.3333 2.73638 10.7364 3.33333 10 3.33333Z" fill="#033E4F"/>
<path d="M11.3333 4.33325H11.2547L11.1843 4.36825C10.4385 4.73963 9.56154 4.73963 8.81567 4.36825L8.74533 4.33325H8.66667C7.74667 4.33434 7.00108 5.07992 7 5.99992V7.99992C7 8.55221 7.44771 8.99992 8 8.99992H12C12.5523 8.99992 13 8.55221 13 7.99992V5.99992C12.9989 5.07992 12.2533 4.33434 11.3333 4.33325ZM12.3333 7.99992C12.3333 8.184 12.1841 8.33325 12 8.33325H8C7.81592 8.33325 7.66667 8.184 7.66667 7.99992V5.99992C7.66675 5.47525 8.07229 5.03984 8.59567 5.00259C9.48629 5.41592 10.5138 5.41592 11.4043 5.00259C11.9277 5.03984 12.3333 5.47525 12.3333 5.99992V7.99992Z" fill="#033E4F"/>
<path d="M17 11C15.8954 11 15 11.8954 15 13C15 14.1046 15.8954 15 17 15C18.1046 15 19 14.1046 19 13C18.9989 11.8959 18.1041 11.0011 17 11ZM17 14.3333C16.2636 14.3333 15.6667 13.7364 15.6667 13C15.6667 12.2636 16.2636 11.6667 17 11.6667C17.7364 11.6667 18.3333 12.2636 18.3333 13C18.3333 13.7364 17.7364 14.3333 17 14.3333Z" fill="#033E4F"/>
<path d="M18.3333 15.3333H18.2547L18.1843 15.3666C17.4385 15.7379 16.5615 15.7379 15.8157 15.3666L15.7453 15.3333H15.6667C14.7467 15.3343 14.0011 16.0799 14 16.9999V18.9999C14 19.5522 14.4477 19.9999 15 19.9999H19C19.5523 19.9999 20 19.5522 20 18.9999V16.9999C19.9989 16.0799 19.2533 15.3343 18.3333 15.3333ZM19.3333 18.9999C19.3333 19.184 19.1841 19.3333 19 19.3333H15C14.8159 19.3333 14.6667 19.184 14.6667 18.9999V16.9999C14.6668 16.4753 15.0723 16.0398 15.5957 16.0026C16.4863 16.4159 17.5137 16.4159 18.4043 16.0026C18.9277 16.0398 19.3333 16.4753 19.3333 16.9999V18.9999Z" fill="#033E4F"/>
<path d="M3 11C1.89542 11 1 11.8954 1 13C1 14.1046 1.89542 15 3 15C4.10458 15 5 14.1046 5 13C4.99892 11.8959 4.10413 11.0011 3 11ZM3 14.3333C2.26363 14.3333 1.66667 13.7364 1.66667 13C1.66667 12.2636 2.26363 11.6667 3 11.6667C3.73638 11.6667 4.33333 12.2636 4.33333 13C4.33333 13.7364 3.73638 14.3333 3 14.3333Z" fill="#033E4F"/>
<path d="M4.33333 15.3333H4.25467L4.18433 15.3666C3.43846 15.7379 2.56154 15.7379 1.81567 15.3666L1.74533 15.3333H1.66667C0.746667 15.3343 0.00108333 16.0799 0 16.9999V18.9999C0 19.5522 0.447708 19.9999 1 19.9999H5C5.55229 19.9999 6 19.5522 6 18.9999V16.9999C5.99892 16.0799 5.25333 15.3343 4.33333 15.3333ZM5.33333 18.9999C5.33333 19.184 5.18408 19.3333 5 19.3333H1C0.815917 19.3333 0.666667 19.184 0.666667 18.9999V16.9999C0.66675 16.4753 1.07229 16.0398 1.59567 16.0026C2.48629 16.4159 3.51371 16.4159 4.40433 16.0026C4.92771 16.0398 5.33325 16.4753 5.33333 16.9999V18.9999Z" fill="#033E4F"/>
<path d="M13.3066 16.9283C13.3064 16.9279 13.3063 16.9275 13.3061 16.9271C13.2339 16.7577 13.0382 16.6789 12.8688 16.7511C11.3636 17.3819 9.69195 17.497 8.11449 17.0784L8.42649 16.9868C8.60324 16.935 8.70457 16.7499 8.65282 16.5731C8.60107 16.3964 8.41591 16.295 8.23916 16.3468L6.90582 16.7378C6.90082 16.7378 6.89716 16.7434 6.89249 16.7451C6.86162 16.7566 6.83262 16.7727 6.80649 16.7928C6.79491 16.799 6.78378 16.806 6.77316 16.8138C6.73799 16.8451 6.71012 16.8838 6.69149 16.9271C6.67341 16.9707 6.66478 17.0176 6.66616 17.0648C6.67428 17.1099 6.68541 17.1544 6.69949 17.1981C6.70149 17.2028 6.69949 17.2081 6.70316 17.2128L7.36982 18.4884C7.45507 18.6517 7.65653 18.715 7.81982 18.6298C7.98312 18.5445 8.04641 18.3431 7.96116 18.1798L7.68982 17.6611C9.48207 18.1999 11.4063 18.0951 13.1295 17.3651C13.299 17.2934 13.3783 17.0978 13.3066 16.9283Z" fill="#033E4F"/>
<path d="M18.9018 8.76423C18.7716 8.6341 18.5606 8.6341 18.4304 8.76423L17.9588 9.2359C17.6828 6.31631 15.8292 3.78273 13.1301 2.6359C12.9607 2.56373 12.7649 2.64252 12.6928 2.8119C12.6206 2.98127 12.6994 3.17706 12.8688 3.24923C15.29 4.27827 16.9731 6.5271 17.2778 9.14023L16.9018 8.76423C16.7694 8.63631 16.5584 8.63998 16.4304 8.7724C16.3057 8.90156 16.3057 9.10635 16.4304 9.23556L17.4304 10.2356C17.5604 10.3659 17.7715 10.3662 17.9019 10.2361C17.9021 10.2359 17.9023 10.2357 17.9024 10.2356L18.9024 9.23556C19.0324 9.10523 19.0321 8.89423 18.9018 8.76423Z" fill="#033E4F"/>
<path d="M7.32367 2.88635C7.32259 2.86689 7.31971 2.8476 7.315 2.82868C7.315 2.82568 7.31134 2.82368 7.31 2.82035C7.30867 2.81701 7.31 2.81468 7.31 2.81201C7.30092 2.7958 7.29042 2.78039 7.27867 2.76601C7.26788 2.74647 7.25513 2.72805 7.24067 2.71101C7.22096 2.69355 7.19913 2.67868 7.17567 2.66668C7.16396 2.65672 7.15146 2.64768 7.13834 2.63968L5.805 2.03068C5.63471 1.96076 5.43996 2.04214 5.37004 2.21243C5.30392 2.37347 5.37288 2.5583 5.52833 2.63668L6.21867 2.95235C3.61979 4.34322 1.99813 7.05235 2 10C2 10.1841 2.14925 10.3333 2.33333 10.3333C2.51742 10.3333 2.66667 10.1841 2.66667 10C2.665 7.40447 4.03754 5.00201 6.27433 3.68535L6.03334 4.18901C5.95388 4.35472 6.0235 4.55347 6.189 4.63335C6.23396 4.6553 6.28329 4.66672 6.33333 4.66668C6.46134 4.66651 6.57792 4.59305 6.63334 4.47768L7.3 3.08668C7.3 3.08335 7.3 3.07968 7.30267 3.07635C7.31134 3.05355 7.31738 3.02985 7.32067 3.00568C7.32638 2.98772 7.33063 2.96935 7.33334 2.95068C7.33221 2.92897 7.329 2.90743 7.32367 2.88635Z" fill="#033E4F"/>
</g>
<defs>
<clipPath id="clip0_462_13999">
<rect width="20" height="20" fill="white"/>
</clipPath>
</defs>
</svg>
