<svg width="64" height="64" viewBox="0 0 64 64" fill="none" xmlns="http://www.w3.org/2000/svg">
<rect width="64" height="64" rx="32" fill="#9CEDED"/>
<path d="M27.75 45.125L25.375 41.125L20.875 40.125L21.3125 35.5L18.25 32L21.3125 28.5L20.875 23.875L25.375 22.875L27.75 18.875L32 20.6875L36.25 18.875L38.625 22.875L43.125 23.875L42.6875 28.5L45.75 32L42.6875 35.5L43.125 40.125L38.625 41.125L36.25 45.125L32 43.3125L27.75 45.125ZM28.8125 41.9375L32 40.5625L35.25 41.9375L37 38.9375L40.4375 38.125L40.125 34.625L42.4375 32L40.125 29.3125L40.4375 25.8125L37 25.0625L35.1875 22.0625L32 23.4375L28.75 22.0625L27 25.0625L23.5625 25.8125L23.875 29.3125L21.5625 32L23.875 34.625L23.5625 38.1875L27 38.9375L28.8125 41.9375ZM30.6875 36.4375L37.75 29.375L36 27.5625L30.6875 32.875L28 30.25L26.25 32L30.6875 36.4375Z" fill="#033E4F"/>
</svg>
