<svg width="20" height="20" viewBox="0 0 20 20" fill="none" xmlns="http://www.w3.org/2000/svg">
<g clip-path="url(#clip0_671_5514)">
<path d="M10.0003 1.66665C11.1057 1.67028 12.1994 1.8931 13.2181 2.32222C14.2369 2.75135 15.1604 3.37825 15.9353 4.16665H13.3336C13.1126 4.16665 12.9006 4.25445 12.7443 4.41073C12.588 4.56701 12.5003 4.77897 12.5003 4.99999C12.5003 5.221 12.588 5.43296 12.7443 5.58924C12.9006 5.74552 13.1126 5.83332 13.3336 5.83332H16.7861C17.1964 5.8331 17.5899 5.66999 17.8801 5.37982C18.1703 5.08966 18.3334 4.69617 18.3336 4.28582V0.833319C18.3336 0.612305 18.2458 0.400344 18.0895 0.244064C17.9332 0.0877832 17.7213 -1.41704e-05 17.5003 -1.41704e-05V-1.41704e-05C17.2792 -1.41704e-05 17.0673 0.0877832 16.911 0.244064C16.7547 0.400344 16.6669 0.612305 16.6669 0.833319V2.56499C15.2896 1.32453 13.5941 0.491994 11.7703 0.16061C9.94659 -0.170774 8.06661 0.0120791 6.3409 0.688692C4.6152 1.36531 3.11193 2.50896 1.99943 3.99159C0.886923 5.47422 0.209118 7.23727 0.0419168 9.08332C0.0311529 9.19937 0.0446799 9.31639 0.0816359 9.42692C0.118592 9.53745 0.178166 9.63907 0.256564 9.72531C0.334961 9.81154 0.430462 9.88051 0.536982 9.9278C0.643502 9.97509 0.758705 9.99967 0.87525 9.99999V9.99999C1.07907 10.0026 1.27653 9.92902 1.42897 9.79369C1.5814 9.65836 1.67785 9.47101 1.69942 9.26832C1.88493 7.19394 2.8394 5.2639 4.37532 3.85735C5.91124 2.4508 7.9176 1.6694 10.0003 1.66665Z" fill="#033E4F"/>
<path d="M19.1259 10.0003C18.9221 9.99771 18.7246 10.0713 18.5722 10.2066C18.4198 10.3419 18.3233 10.5293 18.3017 10.732C18.164 12.318 17.5742 13.8312 16.6023 15.0922C15.6304 16.3531 14.3172 17.3087 12.8185 17.8458C11.3199 18.3828 9.69858 18.4787 8.14704 18.1221C6.5955 17.7654 5.17883 16.9712 4.06508 15.8337H6.66675C6.88776 15.8337 7.09972 15.7459 7.256 15.5896C7.41228 15.4333 7.50008 15.2213 7.50008 15.0003C7.50008 14.7793 7.41228 14.5673 7.256 14.4111C7.09972 14.2548 6.88776 14.167 6.66675 14.167H3.21425C3.011 14.1669 2.80972 14.2068 2.62192 14.2846C2.43412 14.3623 2.26348 14.4763 2.11976 14.62C1.97604 14.7637 1.86205 14.9344 1.78432 15.1222C1.70659 15.31 1.66664 15.5112 1.66675 15.7145V19.167C1.66675 19.388 1.75455 19.6 1.91083 19.7563C2.06711 19.9125 2.27907 20.0003 2.50008 20.0003C2.7211 20.0003 2.93306 19.9125 3.08934 19.7563C3.24562 19.6 3.33341 19.388 3.33341 19.167V17.4353C4.71077 18.6758 6.40626 19.5083 8.23 19.8397C10.0537 20.1711 11.9337 19.9882 13.6594 19.3116C15.3851 18.635 16.8884 17.4914 18.0009 16.0087C19.1134 14.5261 19.7912 12.763 19.9584 10.917C19.9692 10.8009 19.9557 10.6839 19.9187 10.5734C19.8817 10.4628 19.8222 10.3612 19.7438 10.275C19.6654 10.1888 19.5699 10.1198 19.4633 10.0725C19.3568 10.0252 19.2416 10.0006 19.1251 10.0003H19.1259Z" fill="#033E4F"/>
</g>
<defs>
<clipPath id="clip0_671_5514">
<rect width="20" height="20" fill="white"/>
</clipPath>
</defs>
</svg>
