<svg width="25" height="24" viewBox="0 0 25 24" fill="none" xmlns="http://www.w3.org/2000/svg">
<path d="M22.4 6.20804C22.1457 6.08422 21.8613 6.03549 21.5802 6.06755C21.2991 6.0996 21.033 6.21113 20.813 6.38904L18.25 8.43904V8.00004C18.3088 7.49338 18.2522 6.98 18.0845 6.4983C17.9168 6.0166 17.6423 5.57906 17.2817 5.2184C16.921 4.85774 16.4835 4.5833 16.0018 4.4156C15.5201 4.24791 15.0067 4.19131 14.5 4.25004H5.50004C4.99338 4.19131 4.48 4.24791 3.9983 4.4156C3.5166 4.5833 3.07906 4.85774 2.7184 5.2184C2.35774 5.57906 2.0833 6.0166 1.9156 6.4983C1.74791 6.98 1.69131 7.49338 1.75004 8.00004V16C1.69131 16.5067 1.74791 17.0201 1.9156 17.5018C2.0833 17.9835 2.35774 18.421 2.7184 18.7817C3.07906 19.1423 3.5166 19.4168 3.9983 19.5845C4.48 19.7522 4.99338 19.8088 5.50004 19.75H14.5C15.0067 19.8088 15.5201 19.7522 16.0018 19.5845C16.4835 19.4168 16.921 19.1423 17.2817 18.7817C17.6423 18.421 17.9168 17.9835 18.0845 17.5018C18.2522 17.0201 18.3088 16.5067 18.25 16V15.561L20.813 17.611C21.0775 17.8246 21.4071 17.9411 21.747 17.941C21.9731 17.9407 22.1962 17.8898 22.4 17.792C22.6555 17.6704 22.8711 17.4786 23.0216 17.239C23.1721 16.9994 23.2513 16.722 23.25 16.439V7.56104C23.2513 7.2781 23.1721 7.00064 23.0216 6.76106C22.8711 6.52148 22.6555 6.32967 22.4 6.20804ZM16.75 16C16.75 17.577 16.077 18.25 14.5 18.25H5.50004C3.92304 18.25 3.25004 17.577 3.25004 16V8.00004C3.25004 6.42304 3.92304 5.75004 5.50004 5.75004H14.5C16.077 5.75004 16.75 6.42304 16.75 8.00004V16ZM21.75 16.44L18.25 13.64V10.36L21.75 7.56004V16.44Z" fill="#033E4F"/>
</svg>
