<svg width="26" height="26" viewBox="0 0 26 26" fill="none" xmlns="http://www.w3.org/2000/svg">
<path d="M20.7511 13.9261C20.3472 13.9261 20.0198 14.2535 20.0198 14.6573V17.5904C20.0198 18.316 19.4291 18.9067 18.7036 18.9067H3.67231C2.94674 18.9067 2.35605 18.316 2.35605 17.5904V7.93793C2.35605 7.21237 2.94674 6.62168 3.67231 6.62168H12.3336C12.7374 6.62168 13.0648 6.29424 13.0648 5.89043C13.0648 5.48662 12.7374 5.15918 12.3336 5.15918H3.67231C2.13993 5.15918 0.893555 6.40556 0.893555 7.93793V17.5904C0.893555 19.1228 2.13993 20.3692 3.67231 20.3692H8.02487V22.7027H6.51524C6.11143 22.7027 5.78399 23.0301 5.78399 23.4339C5.78399 23.8377 6.11143 24.1652 6.51524 24.1652H15.8566C16.2604 24.1652 16.5878 23.8377 16.5878 23.4339C16.5878 23.0301 16.2604 22.7027 15.8566 22.7027H14.3469V20.3692H18.7036C20.2359 20.3692 21.4823 19.1228 21.4823 17.5904V14.6573C21.4823 14.2535 21.1549 13.9261 20.7511 13.9261ZM12.8844 22.7019H9.48656V20.3692H12.8844V22.7019Z" fill="#E4432D"/>
<path d="M14.5093 12.116C14.5093 10.2911 13.0248 8.80664 11.2 8.80664C9.37509 8.80664 7.89065 10.2911 7.89065 12.116C7.89065 13.0609 8.29365 13.9083 8.92984 14.512C8.41065 14.7899 7.98165 15.1588 7.70865 15.6024C7.4974 15.9469 7.60546 16.397 7.94915 16.6083C8.06859 16.6814 8.20102 16.7163 8.33102 16.7163C8.57721 16.7163 8.8169 16.5928 8.95502 16.3678C9.24265 15.8981 10.0486 15.4245 11.2 15.4245C12.3448 15.4245 13.1654 15.9136 13.4441 16.367C13.6553 16.7106 14.1046 16.8195 14.45 16.6075C14.7945 16.3962 14.9017 15.9461 14.6905 15.6016C14.4183 15.1571 13.9893 14.7891 13.4693 14.5104C14.1063 13.9083 14.5093 13.0609 14.5093 12.116ZM9.35234 12.116C9.35234 11.0979 10.1811 10.2691 11.1991 10.2691C12.2172 10.2691 13.046 11.0979 13.046 12.116C13.046 13.134 12.2172 13.9628 11.1991 13.9628C10.1811 13.9628 9.35234 13.1348 9.35234 12.116Z" fill="#E4432D"/>
<path d="M19.7152 1.83496C16.7422 1.83496 14.3242 4.25296 14.3242 7.2259C14.3242 10.1988 16.743 12.6168 19.7152 12.6168C22.6873 12.6168 25.1061 10.198 25.1061 7.2259C25.1061 4.25377 22.6881 1.83496 19.7152 1.83496ZM19.7152 11.1543C17.549 11.1543 15.7867 9.39202 15.7867 7.2259C15.7867 5.05977 17.549 3.29746 19.7152 3.29746C21.8813 3.29746 23.6436 5.05977 23.6436 7.2259C23.6436 9.39202 21.8813 11.1543 19.7152 11.1543Z" fill="#E4432D"/>
<path d="M21.6021 6.0855L20.0697 5.00243C19.6415 4.69856 19.0858 4.662 18.621 4.9025C18.1555 5.14381 17.8662 5.61912 17.8662 6.14318V8.3085C17.8662 8.83337 18.1555 9.30787 18.621 9.54918C18.8241 9.654 19.0443 9.706 19.2637 9.706C19.5473 9.706 19.8284 9.61987 20.0697 9.44925L21.6013 8.367C21.9718 8.10537 22.1928 7.67881 22.1928 7.22625C22.1928 6.77368 21.9718 6.34712 21.6021 6.0855ZM19.3295 8.18175V6.26993L20.6823 7.22625L19.3295 8.18175Z" fill="#E4432D"/>
</svg>
